<svg 
  width="232.79750366210936px"
  height="137.1299591064453px" 
  xmlns="http://www.w3.org/2000/svg" 
  viewBox="133.60124816894532 6.435020446777344 232.79750366210936 137.1299591064453" s
  tyle="background: rgba(0, 0, 0, 0);" 
  preserveAspectRatio="xMidYMid"
>
  <defs>
    <filter 
      id="editing-hole" 
      x="-100%" 
      y="-100%" 
      width="300%" 
      height="300%"
    >
    <feFlood flood-color="#000000" result="black"></feFlood>
    <feMorphology 
      operator="dilate" 
      radius="2" 
      in="SourceGraphic" 
      result="erode"
    ></feMorphology>
    <feGaussianBlur 
      in="erode" 
      stdDeviation="4" 
      result="blur"
    ></feGaussianBlur>
    <feOffset 
      in="blur" 
      dx="2" 
      dy="2" 
      result="offset"
    ></feOffset>
    <feComposite 
      operator="atop" 
      in="offset" 
      in2="black" 
      result="merge"
    ></feComposite>
    <feComposite 
      operator="in" 
      in="merge" 
      in2="SourceGraphic" 
      result="inner-shadow"
    ></feComposite>
    </filter>
  </defs>
  <g filter="url(#editing-hole)">
    <g transform="translate(170.6700038909912, 97.78499984741211)">
      <path 
        d="M34.05-44.03L34.05-44.03Q37.38-44.03 40.16-42.66L40.16-42.66L40.16-42.66Q42.94-41.28 44.58-38.78L44.58-38.78L44.58-38.78Q46.21-36.29 46.21-33.22L46.21-33.22L46.21-33.22Q46.21-25.09 38.85-22.98L38.85-22.98L38.85-22.72L38.85-22.72Q47.23-20.80 47.23-11.71L47.23-11.71L47.23-11.71Q47.23-8.26 45.54-5.60L45.54-5.60L45.54-5.60Q43.84-2.94 40.90-1.47L40.90-1.47L40.90-1.47Q37.95 0 34.43 0L34.43 0L4.74 0L4.74-44.03L34.05-44.03ZM18.88-34.37L18.88-26.88L28.61-26.88L28.61-26.88Q30.02-26.88 30.94-27.87L30.94-27.87L30.94-27.87Q31.87-28.86 31.87-30.34L31.87-30.34L31.87-30.98L31.87-30.98Q31.87-32.38 30.91-33.38L30.91-33.38L30.91-33.38Q29.95-34.37 28.61-34.37L28.61-34.37L18.88-34.37ZM18.88-17.79L18.88-10.24L29.63-10.24L29.63-10.24Q31.04-10.24 31.97-11.23L31.97-11.23L31.97-11.23Q32.90-12.22 32.90-13.70L32.90-13.70L32.90-14.34L32.90-14.34Q32.90-15.81 31.97-16.80L31.97-16.80L31.97-16.80Q31.04-17.79 29.63-17.79L29.63-17.79L18.88-17.79ZM76.48-44.80L76.48-44.80Q83.01-44.80 87.81-43.20L87.81-43.20L87.81-43.20Q92.61-41.60 95.17-38.85L95.17-38.85L95.17-38.85Q97.73-36.10 97.73-32.77L97.73-32.77L97.73-31.17L86.40-31.17L86.40-31.17Q86.40-33.15 84.06-34.46L84.06-34.46L84.06-34.46Q81.73-35.78 77.31-35.78L77.31-35.78L77.31-35.78Q73.22-35.78 71.07-34.21L71.07-34.21L71.07-34.21Q68.93-32.64 68.93-30.40L68.93-30.40L68.93-30.40Q68.93-28.42 70.24-27.39L70.24-27.39L70.24-27.39Q71.55-26.37 73.47-26.37L73.47-26.37L80.13-26.37L80.13-18.50L72.06-18.50L72.06-18.50Q70.08-18.50 68.83-17.31L68.83-17.31L68.83-17.31Q67.58-16.13 67.58-13.89L67.58-13.89L67.58-13.89Q67.58-11.26 69.79-9.76L69.79-9.76L69.79-9.76Q72-8.26 76.80-8.26L76.80-8.26L76.80-8.26Q86.40-8.26 86.40-13.95L86.40-13.95L86.40-26.37L106.62-26.37L106.62-18.50L97.86-18.50L97.86-14.21L97.86-14.21Q97.86-7.04 92.77-3.14L92.77-3.14L92.77-3.14Q87.68 0.77 76.86 0.77L76.86 0.77L76.86 0.77Q65.73 0.77 60.16-2.82L60.16-2.82L60.16-2.82Q54.59-6.40 54.59-12.29L54.59-12.29L54.59-12.29Q54.59-16.13 56.61-18.91L56.61-18.91L56.61-18.91Q58.62-21.70 62.27-22.85L62.27-22.85L62.27-23.10L62.27-23.10Q59.52-24.13 57.70-26.62L57.70-26.62L57.70-26.62Q55.87-29.12 55.87-32.19L55.87-32.19L55.87-32.19Q55.87-35.65 58.21-38.53L58.21-38.53L58.21-38.53Q60.54-41.41 65.22-43.10L65.22-43.10L65.22-43.10Q69.89-44.80 76.48-44.80L76.48-44.80ZM140.74-44.03L140.74-44.03Q144.06-44.03 146.85-42.66L146.85-42.66L146.85-42.66Q149.63-41.28 151.26-38.78L151.26-38.78L151.26-38.78Q152.90-36.29 152.90-33.22L152.90-33.22L152.90-33.22Q152.90-25.09 145.54-22.98L145.54-22.98L145.54-22.72L145.54-22.72Q153.92-20.80 153.92-11.71L153.92-11.71L153.92-11.71Q153.92-8.26 152.22-5.60L152.22-5.60L152.22-5.60Q150.53-2.94 147.58-1.47L147.58-1.47L147.58-1.47Q144.64 0 141.12 0L141.12 0L111.42 0L111.42-44.03L140.74-44.03ZM125.57-34.37L125.57-26.88L135.30-26.88L135.30-26.88Q136.70-26.88 137.63-27.87L137.63-27.87L137.63-27.87Q138.56-28.86 138.56-30.34L138.56-30.34L138.56-30.98L138.56-30.98Q138.56-32.38 137.60-33.38L137.60-33.38L137.60-33.38Q136.64-34.37 135.30-34.37L135.30-34.37L125.57-34.37ZM125.57-17.79L125.57-10.24L136.32-10.24L136.32-10.24Q137.73-10.24 138.66-11.23L138.66-11.23L138.66-11.23Q139.58-12.22 139.58-13.70L139.58-13.70L139.58-14.34L139.58-14.34Q139.58-15.81 138.66-16.80L138.66-16.80L138.66-16.80Q137.73-17.79 136.32-17.79L136.32-17.79L125.57-17.79Z" 
        fill="#ccc"
      ></path>
    </g>
  </g>
</svg>
