<svg 
  width="446.9975219726562px" 
  height="130.41500549316407px" 
  xmlns="http://www.w3.org/2000/svg" 
  viewBox="26.501239013671892 9.792497253417963 446.9975219726562 130.41500549316407" 
  style="background: rgba(0, 0, 0, 0);" 
  preserveAspectRatio="xMidYMid"
>
  <defs>
    <filter 
      id="editing-hole" 
      x="-100%"
      y="-100%" 
      width="300%" 
      height="300%"
    >
      <feFlood flood-color="#000" result="black"></feFlood>
      <feMorphology 
        operator="dilate" 
        radius="2" 
        in="SourceGraphic" 
        result="erode"
      ></feMorphology>
      <feGaussianBlur 
        in="erode" 
        stdDeviation="4" 
        result="blur"
      ></feGaussianBlur>
      <feOffset 
        in="blur" 
        dx="2" 
        dy="2" 
        result="offset"
      ></feOffset>
      <feComposite 
        operator="atop" 
        in="offset" 
        in2="black" 
        result="merge"
      ></feComposite>
      <feComposite 
        operator="in" 
        in="merge" 
        in2="SourceGraphic" 
        result="inner-shadow"
      ></feComposite>
    </filter>
  </defs>
  <g filter="url(#editing-hole)">
    <g transform="translate(92.0499975681305, 100.05500030517578)">
      <path 
        d="M25.47 0L25.47 0L3.26 0L3.26-2.82L9.09-4.93L9.09-40.26L3.26-42.37L3.26-45.18L22.02-45.18L22.02-45.18Q30.59-45.18 34.69-40.19L34.69-40.19L34.69-40.19Q36.99-37.38 36.99-33.28L36.99-33.28L36.99-33.28Q36.99-27.26 32.90-24.13L32.90-24.13L32.90-24.13Q40.45-21.38 40.45-12.99L40.45-12.99L40.45-12.99Q40.45-9.54 39.04-6.91L39.04-6.91L39.04-6.91Q37.63-4.29 35.33-2.82L35.33-2.82L35.33-2.82Q30.85 0 25.47 0ZM15.55-21.06L15.55-4.80L22.46-4.80L22.46-4.80Q28.35-4.80 31.26-6.59L31.26-6.59L31.26-6.59Q34.18-8.38 34.18-12.80L34.18-12.80L34.18-12.80Q34.18-17.22 31.68-19.14L31.68-19.14L31.68-19.14Q29.18-21.06 25.28-21.06L25.28-21.06L15.55-21.06ZM15.62-40.38L15.62-25.28L21.82-25.28L21.82-25.28Q30.72-25.28 30.72-33.22L30.72-33.22L30.72-33.22Q30.72-37.31 27.78-38.85L27.78-38.85L27.78-38.85Q24.83-40.38 19.01-40.38L19.01-40.38L15.62-40.38ZM63.17-2.75L63.17 0L46.34 0L46.34-2.75L51.71-4.86L51.71-27.71L46.34-27.71L46.34-31.55L46.34-31.55Q48.83-32.77 51.97-32.77L51.97-32.77L51.97-32.77Q55.10-32.77 56.32-31.42L56.32-31.42L56.32-31.42Q57.54-30.08 57.66-27.46L57.66-27.46L57.66-27.46Q58.30-29.38 60.29-30.91L60.29-30.91L60.29-30.91Q62.66-32.77 66.56-32.77L66.56-32.77L66.56-32.77Q68.29-32.77 69.86-32.32L69.86-32.32L69.86-32.32Q71.42-31.87 72.13-31.42L72.13-31.42L72.90-30.98L72.90-23.42L69.06-23.42L68.22-27.26L68.22-27.26Q67.84-27.65 66.11-27.65L66.11-27.65L66.11-27.65Q64.38-27.65 62.78-27.17L62.78-27.17L62.78-27.17Q61.18-26.69 60.29-25.98L60.29-25.98L60.29-25.98Q58.50-24.45 57.73-22.85L57.73-22.85L57.73-4.86L63.17-2.75ZM93.50 0.64L93.50 0.64L93.50 0.64Q86.27 0.64 81.76-3.49L81.76-3.49L81.76-3.49Q77.25-7.62 77.25-15.55L77.25-15.55L77.25-15.55Q77.25-23.49 81.86-28.13L81.86-28.13L81.86-28.13Q86.46-32.77 92.61-32.77L92.61-32.77L92.61-32.77Q107.20-32.77 107.20-15.49L107.20-15.49L83.46-15.49L83.46-15.17L83.46-15.17Q83.46-10.62 86.66-7.49L86.66-7.49L86.66-7.49Q89.86-4.35 95.36-4.35L95.36-4.35L95.36-4.35Q97.73-4.35 99.84-4.90L99.84-4.90L99.84-4.90Q101.95-5.44 102.91-6.02L102.91-6.02L103.81-6.53L105.66-3.20L105.66-3.20Q105.47-3.07 105.12-2.78L105.12-2.78L105.12-2.78Q104.77-2.50 103.62-1.86L103.62-1.86L103.62-1.86Q102.46-1.22 101.12-0.70L101.12-0.70L101.12-0.70Q97.73 0.64 93.50 0.64ZM101.25-19.58L101.25-19.58Q100.93-23.55 98.66-25.63L98.66-25.63L98.66-25.63Q96.38-27.71 92.77-27.71L92.77-27.71L92.77-27.71Q89.15-27.71 86.78-25.70L86.78-25.70L86.78-25.70Q84.42-23.68 83.71-19.58L83.71-19.58L101.25-19.58ZM150.66-2.75L150.66 0L133.82 0L133.82-2.75L138.94-4.86L138.94-20.16L138.94-20.16Q138.94-23.94 137.70-25.79L137.70-25.79L137.70-25.79Q136.45-27.65 133.18-27.65L133.18-27.65L133.18-27.65Q127.94-27.65 123.78-23.49L123.78-23.49L123.78-4.86L129.22-2.75L129.22 0L112.38 0L112.38-2.75L117.76-4.86L117.76-27.71L112.38-27.71L112.38-31.55L112.38-31.55Q114.88-32.77 118.08-32.77L118.08-32.77L118.08-32.77Q121.28-32.77 122.46-31.36L122.46-31.36L122.46-31.36Q123.65-29.95 123.78-27.14L123.78-27.14L123.78-27.14Q124.67-28.29 126.46-29.76L126.46-29.76L126.46-29.76Q130.24-32.77 135.10-32.77L135.10-32.77L135.10-32.77Q139.97-32.77 142.46-29.98L142.46-29.98L142.46-29.98Q144.96-27.20 144.96-22.40L144.96-22.40L144.96-4.86L150.66-2.75ZM184-4.35L189.38-4.35L189.38-0.51L189.38-0.51Q186.88 0.70 183.90 0.70L183.90 0.70L183.90 0.70Q180.93 0.70 179.62-0.38L179.62-0.38L179.62-0.38Q178.30-1.47 178.05-3.58L178.05-3.58L178.05-3.58Q175.10 0.64 168.83 0.64L168.83 0.64L168.83 0.64Q163.78 0.64 159.49-2.82L159.49-2.82L159.49-2.82Q157.31-4.61 156-7.90L156-7.90L156-7.90Q154.69-11.20 154.69-15.55L154.69-15.55L154.69-15.55Q154.69-19.90 156.42-23.33L156.42-23.33L156.42-23.33Q158.14-26.75 160.96-28.74L160.96-28.74L160.96-28.74Q166.66-32.77 173.57-32.77L173.57-32.77L173.57-32.77Q175.62-32.77 177.98-31.87L177.98-31.87L177.98-44.35L172.61-44.35L172.61-48.19L172.61-48.19Q175.10-49.41 178.40-49.41L178.40-49.41L178.40-49.41Q181.70-49.41 182.85-47.84L182.85-47.84L182.85-47.84Q184-46.27 184-43.07L184-43.07L184-4.35ZM173.57-27.71L173.57-27.71L173.57-27.71Q167.87-27.71 164.38-24.61L164.38-24.61L164.38-24.61Q160.90-21.50 160.90-15.87L160.90-15.87L160.90-15.87Q160.90-10.24 163.68-7.14L163.68-7.14L163.68-7.14Q166.46-4.03 169.73-4.03L169.73-4.03L169.73-4.03Q175.23-4.03 177.98-8.06L177.98-8.06L177.98-26.75L177.98-26.75Q175.10-27.71 173.57-27.71ZM217.79-30.21L217.79-22.85L213.76-22.85L212.86-26.05L212.86-26.05Q211.20-27.65 207.74-27.65L207.74-27.65L207.74-27.65Q204.29-27.65 202.40-26.75L202.40-26.75L202.40-26.75Q200.51-25.86 200.51-24.35L200.51-24.35L200.51-24.35Q200.51-22.85 201.92-21.54L201.92-21.54L201.92-21.54Q203.33-20.22 204.80-19.58L204.80-19.58L204.80-19.58Q206.27-18.94 210.05-17.66L210.05-17.66L210.05-17.66Q213.82-16.38 216.22-14.27L216.22-14.27L216.22-14.27Q218.62-12.16 218.62-8.70L218.62-8.70L218.62-8.70Q218.62-4.10 215.26-1.70L215.26-1.70L215.26-1.70Q211.90 0.70 207.58 0.70L207.58 0.70L207.58 0.70Q203.26 0.70 200.16-0.38L200.16-0.38L200.16-0.38Q197.06-1.47 195.71-2.56L195.71-2.56L194.43-3.65L194.43-10.50L198.27-10.50L199.62-6.53L199.62-6.53Q199.68-6.34 200.64-5.89L200.64-5.89L200.64-5.89Q203.65-4.35 206.66-4.35L206.66-4.35L206.66-4.35Q209.66-4.35 211.26-5.28L211.26-5.28L211.26-5.28Q212.86-6.21 212.86-7.90L212.86-7.90L212.86-7.90Q212.86-9.60 211.07-11.14L211.07-11.14L211.07-11.14Q209.28-12.67 205.09-13.92L205.09-13.92L205.09-13.92Q200.90-15.17 198.05-17.57L198.05-17.57L198.05-17.57Q195.20-19.97 195.20-23.17L195.20-23.17L195.20-23.17Q195.20-27.97 198.56-30.37L198.56-30.37L198.56-30.37Q201.92-32.77 207.23-32.77L207.23-32.77L207.23-32.77Q209.86-32.77 212.48-32.13L212.48-32.13L212.48-32.13Q215.10-31.49 216.45-30.85L216.45-30.85L217.79-30.21ZM233.79-14.02L233.79-14.02Q233.79-8.51 235.46-6.53L235.46-6.53L235.46-6.53Q237.12-4.54 240.51-4.54L240.51-4.54L240.51-4.54Q243.90-4.54 246.08-5.57L246.08-5.57L247.36-2.37L247.36-2.37Q247.10-2.05 246.62-1.54L246.62-1.54L246.62-1.54Q246.14-1.02 244.22-0.16L244.22-0.16L244.22-0.16Q242.30 0.70 240 0.70L240 0.70L240 0.70Q234.18 0.70 230.98-2.59L230.98-2.59L230.98-2.59Q227.78-5.89 227.78-12.22L227.78-12.22L227.78-26.94L224.38-26.94L224.38-30.72L230.53-36.86L233.79-36.86L233.79-32L244.54-32L244.54-26.94L233.79-26.94L233.79-14.02ZM267.20 0.64L267.20 0.64L267.20 0.64Q259.97 0.64 255.46-3.49L255.46-3.49L255.46-3.49Q250.94-7.62 250.94-15.55L250.94-15.55L250.94-15.55Q250.94-23.49 255.55-28.13L255.55-28.13L255.55-28.13Q260.16-32.77 266.30-32.77L266.30-32.77L266.30-32.77Q280.90-32.77 280.90-15.49L280.90-15.49L257.15-15.49L257.15-15.17L257.15-15.17Q257.15-10.62 260.35-7.49L260.35-7.49L260.35-7.49Q263.55-4.35 269.06-4.35L269.06-4.35L269.06-4.35Q271.42-4.35 273.54-4.90L273.54-4.90L273.54-4.90Q275.65-5.44 276.61-6.02L276.61-6.02L277.50-6.53L279.36-3.20L279.36-3.20Q279.17-3.07 278.82-2.78L278.82-2.78L278.82-2.78Q278.46-2.50 277.31-1.86L277.31-1.86L277.31-1.86Q276.16-1.22 274.82-0.70L274.82-0.70L274.82-0.70Q271.42 0.64 267.20 0.64ZM274.94-19.58L274.94-19.58Q274.62-23.55 272.35-25.63L272.35-25.63L272.35-25.63Q270.08-27.71 266.46-27.71L266.46-27.71L266.46-27.71Q262.85-27.71 260.48-25.70L260.48-25.70L260.48-25.70Q258.11-23.68 257.41-19.58L257.41-19.58L274.94-19.58ZM302.91-2.75L302.91 0L286.08 0L286.08-2.75L291.46-4.86L291.46-27.71L286.08-27.71L286.08-31.55L286.08-31.55Q288.58-32.77 291.71-32.77L291.71-32.77L291.71-32.77Q294.85-32.77 296.06-31.42L296.06-31.42L296.06-31.42Q297.28-30.08 297.41-27.46L297.41-27.46L297.41-27.46Q298.05-29.38 300.03-30.91L300.03-30.91L300.03-30.91Q302.40-32.77 306.30-32.77L306.30-32.77L306.30-32.77Q308.03-32.77 309.60-32.32L309.60-32.32L309.60-32.32Q311.17-31.87 311.87-31.42L311.87-31.42L312.64-30.98L312.64-23.42L308.80-23.42L307.97-27.26L307.97-27.26Q307.58-27.65 305.86-27.65L305.86-27.65L305.86-27.65Q304.13-27.65 302.53-27.17L302.53-27.17L302.53-27.17Q300.93-26.69 300.03-25.98L300.03-25.98L300.03-25.98Q298.24-24.45 297.47-22.85L297.47-22.85L297.47-4.86L302.91-2.75Z" 
        fill="#ccc"
      ></path>
    </g>
  </g>
  <style>
    text {
      font-size: 64px;
      font-family: Arial Black;
      dominant-baseline: central;
      text-anchor: middle;
    }
  </style>
</svg>
