<svg 
  width="298.88499145507814px" 
  height="141.9325408935547px" 
  xmlns="http://www.w3.org/2000/svg" 
  viewBox="100.55750427246093 4.033729553222656 298.88499145507814 141.9325408935547" 
  style="background: rgba(0, 0, 0, 0);" 
  preserveAspectRatio="xMidYMid"
>
  <defs>
    <filter 
      id="editing-hole" 
      x="-100%" 
      y="-100%" 
      width="300%" 
      height="300%"
    >
      <feFlood flood-color="#000" result="black"></feFlood>
      <feMorphology 
        operator="dilate" 
        radius="2" 
        in="SourceGraphic" 
        result="erode"
        ></feMorphology>
      <feGaussianBlur 
        in="erode" 
        stdDeviation="4" 
        result="blur"
      ></feGaussianBlur>
      <feOffset 
        in="blur" 
        dx="2" 
        dy="2" 
        result="offset"
      ></feOffset>
      <feComposite 
        operator="atop" 
        in="offset" 
        in2="black" 
        result="merge"
      ></feComposite>
      <feComposite 
        operator="in" 
        in="merge" 
        in2="SourceGraphic" 
        result="inner-shadow"
      ></feComposite>
    </filter>
  </defs>
  <g filter="url(#editing-hole)">
    <g transform="translate(147.9451606273651, 113.02000045776367)">
      <path 
        d="M17.98-2.69L17.98-2.69L17.98-2.69Q20.29-3.07 22.43-4.10L22.43-4.10L22.43-4.10Q24.58-5.12 26.30-6.72L26.30-6.72L26.30-6.72Q26.43-6.78 26.82-7.17L26.82-7.17L26.82-7.17Q27.20-7.55 27.33-7.42L27.33-7.42L27.33-7.42Q27.46-7.30 27.26-7.04L27.26-7.04L27.26-7.04Q27.07-6.78 26.94-6.59L26.94-6.59L26.94-6.59Q25.66-4.74 23.58-3.55L23.58-3.55L23.58-3.55Q21.50-2.37 19.26-1.66L19.26-1.66L19.26-1.66Q17.41-1.15 15.30-1.31L15.30-1.31L15.30-1.31Q13.18-1.47 11.33-2.37L11.33-2.37L11.33-2.37Q10.75-2.62 10.62-2.78L10.62-2.78L10.62-2.78Q10.50-2.94 10.62-3.01L10.62-3.01L10.62-3.01Q10.75-3.07 11.04-3.07L11.04-3.07L11.04-3.07Q11.33-3.07 11.58-3.01L11.58-3.01L11.58-3.01Q12.29-2.88 13.22-2.78L13.22-2.78L13.22-2.78Q14.14-2.69 15.07-2.66L15.07-2.66L15.07-2.66Q16-2.62 16.77-2.62L16.77-2.62L16.77-2.62Q17.54-2.62 17.98-2.69ZM9.41-21.50L9.41-21.50L9.41-21.50Q9.09-19.26 9.09-17.12L9.09-17.12L9.09-17.12Q9.09-14.98 9.38-13.09L9.38-13.09L9.38-13.09Q9.66-11.20 10.27-9.73L10.27-9.73L10.27-9.73Q10.88-8.26 11.78-7.30L11.78-7.30L11.78-7.30Q12.80-6.27 14.30-5.73L14.30-5.73L14.30-5.73Q15.81-5.18 17.57-5.18L17.57-5.18L17.57-5.18Q19.33-5.18 21.28-5.70L21.28-5.70L21.28-5.70Q23.23-6.21 25.15-7.30L25.15-7.30L25.15-7.30Q25.54-7.55 25.66-7.42L25.66-7.42L25.66-7.42Q25.79-7.30 25.57-7.14L25.57-7.14L25.57-7.14Q25.34-6.98 25.15-6.85L25.15-6.85L25.15-6.85Q23.49-5.57 21.63-4.80L21.63-4.80L21.63-4.80Q19.78-4.03 17.89-3.84L17.89-3.84L17.89-3.84Q16-3.65 14.24-4.06L14.24-4.06L14.24-4.06Q12.48-4.48 11.07-5.63L11.07-5.63L11.07-5.63Q9.73-6.78 8.90-8.42L8.90-8.42L8.90-8.42Q8.06-10.05 7.65-12L7.65-12L7.65-12Q7.23-13.95 7.17-16.06L7.17-16.06L7.17-16.06Q7.10-18.18 7.30-20.22L7.30-20.22L7.30-20.22Q7.55-23.49 8.58-26.82L8.58-26.82L8.58-26.82Q9.60-30.14 11.30-32.96L11.30-32.96L11.30-32.96Q12.99-35.78 15.36-37.89L15.36-37.89L15.36-37.89Q17.73-40 20.67-40.83L20.67-40.83L20.67-40.83Q22.14-41.22 23.68-41.15L23.68-41.15L23.68-41.15Q25.22-41.09 26.53-40.58L26.53-40.58L26.53-40.58Q27.84-40.06 28.80-39.07L28.80-39.07L28.80-39.07Q29.76-38.08 30.08-36.67L30.08-36.67L30.08-36.67Q30.40-35.14 29.82-33.70L29.82-33.70L29.82-33.70Q29.25-32.26 28.22-31.20L28.22-31.20L28.22-31.20Q27.20-30.14 25.92-29.70L25.92-29.70L25.92-29.70Q24.64-29.25 23.49-29.70L23.49-29.70L23.49-29.70Q23.42-29.70 23.39-29.89L23.39-29.89L23.39-29.89Q23.36-30.08 23.62-30.02L23.62-30.02L23.62-30.02Q24.38-29.89 25.38-30.37L25.38-30.37L25.38-30.37Q26.37-30.85 27.17-31.68L27.17-31.68L27.17-31.68Q27.97-32.51 28.45-33.66L28.45-33.66L28.45-33.66Q28.93-34.82 28.74-36.03L28.74-36.03L28.74-36.03Q28.54-36.93 27.94-37.60L27.94-37.60L27.94-37.60Q27.33-38.27 26.37-38.69L26.37-38.69L26.37-38.69Q25.41-39.10 24.22-39.23L24.22-39.23L24.22-39.23Q23.04-39.36 21.76-39.10L21.76-39.10L21.76-39.10Q19.33-38.66 17.25-36.96L17.25-36.96L17.25-36.96Q15.17-35.26 13.57-32.83L13.57-32.83L13.57-32.83Q11.97-30.40 10.88-27.42L10.88-27.42L10.88-27.42Q9.79-24.45 9.41-21.50ZM14.46-0.32L14.46-0.32L14.46-0.32Q15.17-0.26 15.90-0.26L15.90-0.26L15.90-0.26Q16.64-0.26 16.64-0.06L16.64-0.06L16.64-0.06Q16.64 0 16.38 0.03L16.38 0.03L16.38 0.03Q16.13 0.06 15.84 0.06L15.84 0.06L15.84 0.06Q15.55 0.06 15.23 0.06L15.23 0.06L15.23 0.06Q14.91 0.06 14.85 0.06L14.85 0.06L14.85 0.06Q12.86 0.06 10.94-0.51L10.94-0.51L10.94-0.51Q9.02-1.09 7.39-2.14L7.39-2.14L7.39-2.14Q5.76-3.20 4.48-4.74L4.48-4.74L4.48-4.74Q3.20-6.27 2.56-8.26L2.56-8.26L2.56-8.26Q1.28-12.16 1.09-15.87L1.09-15.87L1.09-15.87Q0.90-19.58 1.41-23.17L1.41-23.17L1.41-23.17Q1.66-25.22 2.40-27.81L2.40-27.81L2.40-27.81Q3.14-30.40 4.38-33.09L4.38-33.09L4.38-33.09Q5.63-35.78 7.52-38.40L7.52-38.40L7.52-38.40Q9.41-41.02 12.03-43.20L12.03-43.20L12.03-43.20Q14.78-45.50 18.14-46.27L18.14-46.27L18.14-46.27Q21.50-47.04 24.58-46.53L24.58-46.53L24.58-46.53Q27.65-46.02 30.02-44.38L30.02-44.38L30.02-44.38Q32.38-42.75 33.15-40.26L33.15-40.26L33.15-40.26Q33.22-40.13 33.28-39.71L33.28-39.71L33.28-39.71Q33.34-39.30 33.22-39.17L33.22-39.17L33.22-39.17Q33.15-39.10 33.02-39.49L33.02-39.49L33.02-39.49Q32.90-39.87 32.77-40L32.77-40L32.77-40Q30.08-43.65 26.69-44.64L26.69-44.64L26.69-44.64Q23.30-45.63 19.97-44.83L19.97-44.83L19.97-44.83Q16.64-44.03 13.70-41.89L13.70-41.89L13.70-41.89Q10.75-39.74 9.02-37.12L9.02-37.12L9.02-37.12Q6.02-32.58 4.45-27.46L4.45-27.46L4.45-27.46Q2.88-22.34 3.01-16.90L3.01-16.90L3.01-16.90Q3.07-14.40 3.55-11.65L3.55-11.65L3.55-11.65Q4.03-8.90 5.44-6.40L5.44-6.40L5.44-6.40Q6.85-3.84 9.31-2.14L9.31-2.14L9.31-2.14Q11.78-0.45 14.46-0.32ZM5.25-24.38L5.25-24.38L5.25-24.38Q5.76-27.78 6.88-30.98L6.88-30.98L6.88-30.98Q8-34.18 9.82-36.83L9.82-36.83L9.82-36.83Q11.65-39.49 14.34-41.41L14.34-41.41L14.34-41.41Q17.02-43.33 20.67-44.10L20.67-44.10L20.67-44.10Q21.95-44.35 23.55-44.32L23.55-44.32L23.55-44.32Q25.15-44.29 26.75-43.74L26.75-43.74L26.75-43.74Q28.35-43.20 29.73-42.11L29.73-42.11L29.73-42.11Q31.10-41.02 32-39.10L32-39.10L32-39.10Q32.83-37.25 32.58-35.46L32.58-35.46L32.58-35.46Q32.32-33.66 31.49-32.22L31.49-32.22L31.49-32.22Q30.66-30.78 29.44-29.82L29.44-29.82L29.44-29.82Q28.22-28.86 27.07-28.74L27.07-28.74L27.07-28.74Q26.37-28.61 26.30-28.77L26.30-28.77L26.30-28.77Q26.24-28.93 27.01-29.18L27.01-29.18L27.01-29.18Q28.22-29.57 29.47-31.14L29.47-31.14L29.47-31.14Q30.72-32.70 30.98-35.14L30.98-35.14L30.98-35.14Q31.10-36.35 30.66-37.54L30.66-37.54L30.66-37.54Q30.21-38.72 29.38-39.62L29.38-39.62L29.38-39.62Q28.54-40.51 27.39-41.15L27.39-41.15L27.39-41.15Q26.24-41.79 24.96-41.98L24.96-41.98L24.96-41.98Q22.21-42.37 19.90-41.60L19.90-41.60L19.90-41.60Q17.60-40.83 15.90-39.65L15.90-39.65L15.90-39.65Q14.21-38.46 13.15-37.31L13.15-37.31L13.15-37.31Q12.10-36.16 11.84-35.78L11.84-35.78L11.84-35.78Q9.86-33.28 8.38-30.37L8.38-30.37L8.38-30.37Q6.91-27.46 5.95-24.26L5.95-24.26L5.95-24.26Q5.95-24.19 5.86-23.81L5.86-23.81L5.86-23.81Q5.76-23.42 5.66-23.01L5.66-23.01L5.66-23.01Q5.57-22.59 5.44-22.24L5.44-22.24L5.44-22.24Q5.31-21.89 5.25-21.89L5.25-21.89L5.25-21.89Q5.12-21.89 5.12-22.27L5.12-22.27L5.12-22.27Q5.12-22.66 5.12-23.07L5.12-23.07L5.12-23.07Q5.12-23.49 5.18-23.87L5.18-23.87L5.18-23.87Q5.25-24.26 5.25-24.38ZM44.22-33.34L44.22-33.34L44.22-33.34Q44.61-34.75 44.74-36.77L44.74-36.77L44.74-36.77Q44.86-38.78 44.74-40.80L44.74-40.80L44.74-40.80Q44.61-42.82 44.13-44.61L44.13-44.61L44.13-44.61Q43.65-46.40 42.69-47.36L42.69-47.36L42.69-47.36Q42.30-47.74 42.08-47.62L42.08-47.62L42.08-47.62Q41.86-47.49 42.18-46.98L42.18-46.98L42.18-46.98Q42.82-45.82 42.78-43.42L42.78-43.42L42.78-43.42Q42.75-41.02 42.37-38.21L42.37-38.21L42.37-38.21Q41.98-35.39 41.34-32.58L41.34-32.58L41.34-32.58Q40.70-29.76 40.06-27.65L40.06-27.65L40.06-27.65Q39.74-26.75 39.42-25.41L39.42-25.41L39.42-25.41Q39.10-24.06 38.75-22.69L38.75-22.69L38.75-22.69Q38.40-21.31 38.14-20L38.14-20L38.14-20Q37.89-18.69 37.76-17.79L37.76-17.79L37.76-17.79Q37.76-17.60 37.70-17.06L37.70-17.06L37.70-17.06Q37.63-16.51 37.82-16.38L37.82-16.38L37.82-16.38Q37.95-16.38 38.21-16.93L38.21-16.93L38.21-16.93Q38.46-17.47 38.53-17.60L38.53-17.60L38.53-17.60Q40.06-21.18 41.66-25.25L41.66-25.25L41.66-25.25Q43.26-29.31 44.22-33.34ZM42.75-17.73L42.75-17.73L42.75-17.73Q43.07-18.88 43.65-20.74L43.65-20.74L43.65-20.74Q44.22-22.59 44.80-24.80L44.80-24.80L44.80-24.80Q45.38-27.01 45.92-29.41L45.92-29.41L45.92-29.41Q46.46-31.81 46.75-34.08L46.75-34.08L46.75-34.08Q47.04-36.35 46.94-38.27L46.94-38.27L46.94-38.27Q46.85-40.19 46.27-41.41L46.27-41.41L46.27-41.41Q46.21-41.60 46.02-41.79L46.02-41.79L46.02-41.79Q45.82-41.98 45.82-41.47L45.82-41.47L45.82-41.47Q45.95-37.38 44.99-33.28L44.99-33.28L44.99-33.28Q44.03-29.18 42.94-25.86L42.94-25.86L42.94-25.86Q42.11-23.23 41.25-20.61L41.25-20.61L41.25-20.61Q40.38-17.98 39.78-15.39L39.78-15.39L39.78-15.39Q39.17-12.80 39.01-10.30L39.01-10.30L39.01-10.30Q38.85-7.81 39.49-5.50L39.49-5.50L39.49-5.50Q39.74-4.67 39.94-4.67L39.94-4.67L39.94-4.67Q40.13-4.74 40.13-5.50L40.13-5.50L40.13-5.50Q40.13-6.66 40.35-8.10L40.35-8.10L40.35-8.10Q40.58-9.54 40.96-11.14L40.96-11.14L40.96-11.14Q41.34-12.74 41.79-14.43L41.79-14.43L41.79-14.43Q42.24-16.13 42.75-17.73ZM41.54-0.19L41.54-0.19L41.54-0.19Q39.30-0.45 37.54-2.43L37.54-2.43L37.54-2.43Q35.78-4.42 35.20-7.30L35.20-7.30L35.20-7.30Q34.62-10.05 34.91-12.90L34.91-12.90L34.91-12.90Q35.20-15.74 35.90-18.24L35.90-18.24L35.90-18.24Q36.93-22.08 38.34-26.14L38.34-26.14L38.34-26.14Q39.74-30.21 40.74-34.18L40.74-34.18L40.74-34.18Q41.73-38.14 41.86-41.82L41.86-41.82L41.86-41.82Q41.98-45.50 40.58-48.58L40.58-48.58L40.58-48.58Q40.45-48.64 40.38-48.86L40.38-48.86L40.38-48.86Q40.32-49.09 40.19-49.02L40.19-49.02L40.19-49.02Q40-49.02 40.13-48.58L40.13-48.58L40.13-48.58Q40.64-45.63 40.19-42.21L40.19-42.21L40.19-42.21Q39.74-38.78 38.75-35.10L38.75-35.10L38.75-35.10Q37.76-31.42 36.51-27.52L36.51-27.52L36.51-27.52Q35.26-23.62 34.18-19.71L34.18-19.71L34.18-19.71Q33.34-16.83 33.06-13.60L33.06-13.60L33.06-13.60Q32.77-10.37 33.47-7.10L33.47-7.10L33.47-7.10Q33.86-5.44 34.66-4.10L34.66-4.10L34.66-4.10Q35.46-2.75 36.54-1.82L36.54-1.82L36.54-1.82Q37.63-0.90 38.91-0.38L38.91-0.38L38.91-0.38Q40.19 0.13 41.54 0.06L41.54 0.06L41.73 0.06L41.73 0.06Q41.79 0.06 41.92 0L41.92 0L41.92 0Q41.92-0.19 41.54-0.19ZM39.62-3.39L39.62-3.39L39.62-3.39Q38.46-4.74 37.76-6.85L37.76-6.85L37.76-6.85Q37.70-7.04 37.57-7.46L37.57-7.46L37.57-7.46Q37.44-7.87 37.31-8.29L37.31-8.29L37.31-8.29Q37.18-8.70 37.06-9.06L37.06-9.06L37.06-9.06Q36.93-9.41 36.86-9.41L36.86-9.41L36.86-9.41Q36.61-9.41 36.61-8.58L36.61-8.58L36.61-8.58Q36.61-7.74 36.80-6.66L36.80-6.66L36.80-6.66Q36.99-5.57 37.38-4.45L37.38-4.45L37.38-4.45Q37.76-3.33 38.27-2.69L38.27-2.69L38.27-2.69Q39.30-1.54 40.35-1.28L40.35-1.28L40.35-1.28Q41.41-1.02 42.50-1.02L42.50-1.02L42.50-1.02Q42.88-1.02 43.10-1.25L43.10-1.25L43.10-1.25Q43.33-1.47 42.75-1.60L42.75-1.60L42.75-1.60Q40.90-1.79 39.62-3.39ZM67.14-20.22L67.14-20.22L67.14-20.22Q66.37-17.86 65.31-15.68L65.31-15.68L65.31-15.68Q64.26-13.50 63.10-11.33L63.10-11.33L63.10-11.33Q62.98-11.20 62.72-10.72L62.72-10.72L62.72-10.72Q62.46-10.24 62.27-10.37L62.27-10.37L62.27-10.37Q62.14-10.37 62.18-10.75L62.18-10.75L62.18-10.75Q62.21-11.14 62.21-11.33L62.21-11.33L62.21-11.33Q62.27-11.84 62.50-12.80L62.50-12.80L62.50-12.80Q62.72-13.76 63.01-14.82L63.01-14.82L63.01-14.82Q63.30-15.87 63.58-16.86L63.58-16.86L63.58-16.86Q63.87-17.86 64.06-18.43L64.06-18.43L64.06-18.43Q65.15-21.89 65.47-24.58L65.47-24.58L65.47-24.58Q65.79-27.26 65.09-29.12L65.09-29.12L65.09-29.12Q64.96-29.44 65.09-29.44L65.09-29.44L65.09-29.44Q65.22-29.44 65.34-29.31L65.34-29.31L65.34-29.31Q65.47-29.18 65.54-29.12L65.54-29.12L65.54-29.12Q66.24-28.35 66.69-27.17L66.69-27.17L66.69-27.17Q67.14-25.98 67.33-24.74L67.33-24.74L67.33-24.74Q67.52-23.49 67.46-22.27L67.46-22.27L67.46-22.27Q67.39-21.06 67.14-20.22ZM68.86-24.83L68.86-24.83L68.86-24.83Q69.70-23.55 69.63-21.63L69.63-21.63L69.63-21.63Q69.57-19.71 69.15-17.66L69.15-17.66L69.15-17.66Q68.74-15.62 68.13-13.76L68.13-13.76L68.13-13.76Q67.52-11.90 67.20-10.82L67.20-10.82L67.20-10.82Q66.56-8.70 65.66-6.50L65.66-6.50L65.66-6.50Q64.77-4.29 64.06-2.69L64.06-2.69L64.06-2.69Q63.81-2.11 63.68-2.18L63.68-2.18L63.68-2.18Q63.49-2.24 63.46-2.46L63.46-2.46L63.46-2.46Q63.42-2.69 63.42-2.82L63.42-2.82L63.42-2.82Q63.42-6.27 64.42-9.47L64.42-9.47L64.42-9.47Q65.41-12.67 66.56-15.94L66.56-15.94L66.56-15.94Q67.26-18.05 67.84-20.13L67.84-20.13L67.84-20.13Q68.42-22.21 68.42-24.70L68.42-24.70L68.42-24.70Q68.42-25.15 68.54-25.15L68.54-25.15L68.54-25.15Q68.61-25.15 68.67-25.06L68.67-25.06L68.67-25.06Q68.74-24.96 68.86-24.83ZM56.06-4.74L56.06-4.74L56.06-4.74Q56.19-4.54 55.62-4.16L55.62-4.16L55.62-4.16Q55.04-3.78 54.85-3.71L54.85-3.71L54.85-3.71Q52.03-2.69 50.46-3.65L50.46-3.65L50.46-3.65Q48.90-4.61 48.22-6.53L48.22-6.53L48.22-6.53Q47.55-8.45 47.55-10.78L47.55-10.78L47.55-10.78Q47.55-13.12 47.81-14.98L47.81-14.98L47.81-14.98Q48-16.58 48.54-18.53L48.54-18.53L48.54-18.53Q49.09-20.48 49.86-22.37L49.86-22.37L49.86-22.37Q50.62-24.26 51.62-25.89L51.62-25.89L51.62-25.89Q52.61-27.52 53.76-28.42L53.76-28.42L53.76-28.42Q53.89-28.48 54.05-28.61L54.05-28.61L54.05-28.61Q54.21-28.74 54.34-28.74L54.34-28.74L54.34-28.74Q54.53-28.67 54.14-28.03L54.14-28.03L54.14-28.03Q53.76-27.39 53.22-26.24L53.22-26.24L53.22-26.24Q52.67-25.09 52.10-23.58L52.10-23.58L52.10-23.58Q51.52-22.08 50.98-20.42L50.98-20.42L50.98-20.42Q50.43-18.75 50.11-17.09L50.11-17.09L50.11-17.09Q49.79-15.42 49.66-13.89L49.66-13.89L49.66-13.89Q49.54-12.35 49.54-11.14L49.54-11.14L49.54-11.14Q49.54-9.92 49.60-9.09L49.60-9.09L49.60-9.09Q49.66-8.26 49.73-8L49.73-8L49.73-8Q50.18-6.02 51.42-5.09L51.42-5.09L51.42-5.09Q52.67-4.16 54.78-4.54L54.78-4.54L54.78-4.54Q54.85-4.54 55.42-4.67L55.42-4.67L55.42-4.67Q56-4.80 56.06-4.74ZM64.32 0.19L64.32 0.19L64.32 0.19Q64.58 0.45 64.58 0.58L64.58 0.58L64.58 0.58Q64.58 0.70 64.29 0.64L64.29 0.64L64.29 0.64Q64 0.58 63.87 0.51L63.87 0.51L63.87 0.51Q63.36 0.26 62.59-0.22L62.59-0.22L62.59-0.22Q61.82-0.70 61.44-1.92L61.44-1.92L61.44-1.92Q61.25-2.43 61.18-3.17L61.18-3.17L61.18-3.17Q61.12-3.90 61.12-4.54L61.12-4.54L61.12-4.54Q61.12-5.18 61.25-5.60L61.25-5.60L61.25-5.60Q61.38-6.02 61.57-5.95L61.57-5.95L61.57-5.95Q61.70-5.89 61.86-5.38L61.86-5.38L61.86-5.38Q62.02-4.86 62.14-4.29L62.14-4.29L62.14-4.29Q62.27-3.58 62.46-2.98L62.46-2.98L62.46-2.98Q62.66-2.37 62.91-1.73L62.91-1.73L62.91-1.73Q63.23-1.02 63.55-0.61L63.55-0.61L63.55-0.61Q63.87-0.19 64.32 0.19ZM58.43-3.33L58.43-3.33L58.43-3.33Q57.73-2.24 56.29-1.12L56.29-1.12L56.29-1.12Q54.85 0 52.42 0L52.42 0L52.42 0Q50.50 0 49.12-1.02L49.12-1.02L49.12-1.02Q47.74-2.05 46.88-3.58L46.88-3.58L46.88-3.58Q46.02-5.12 45.66-6.94L45.66-6.94L45.66-6.94Q45.31-8.77 45.31-10.43L45.31-10.43L45.31-10.43Q45.38-12.48 45.66-14.53L45.66-14.53L45.66-14.53Q45.95-16.58 46.43-18.37L46.43-18.37L46.43-18.37Q46.91-20.16 47.52-21.57L47.52-21.57L47.52-21.57Q48.13-22.98 48.77-23.87L48.77-23.87L48.77-23.87Q48.90-23.94 49.06-24.16L49.06-24.16L49.06-24.16Q49.22-24.38 49.34-24.26L49.34-24.26L49.34-24.26Q49.41-24.19 49.31-23.97L49.31-23.97L49.31-23.97Q49.22-23.74 49.15-23.62L49.15-23.62L49.15-23.62Q48.58-21.70 48.03-19.55L48.03-19.55L48.03-19.55Q47.49-17.41 47.17-15.23L47.17-15.23L47.17-15.23Q46.85-13.06 46.85-10.94L46.85-10.94L46.85-10.94Q46.85-8.83 47.23-7.04L47.23-7.04L47.23-7.04Q47.49-5.82 48.16-4.80L48.16-4.80L48.16-4.80Q48.83-3.78 49.63-3.07L49.63-3.07L49.63-3.07Q50.43-2.37 51.36-2.05L51.36-2.05L51.36-2.05Q52.29-1.73 53.18-1.86L53.18-1.86L53.18-1.86Q55.04-2.11 56-2.91L56-2.91L56-2.91Q56.96-3.71 57.38-4.83L57.38-4.83L57.38-4.83Q57.79-5.95 57.89-7.26L57.89-7.26L57.89-7.26Q57.98-8.58 58.18-9.92L58.18-9.92L58.18-9.92Q57.86-9.02 56.93-8.16L56.93-8.16L56.93-8.16Q56-7.30 54.94-6.82L54.94-6.82L54.94-6.82Q53.89-6.34 52.90-6.40L52.90-6.40L52.90-6.40Q51.90-6.46 51.39-7.55L51.39-7.55L51.39-7.55Q50.75-8.96 50.69-10.62L50.69-10.62L50.69-10.62Q50.62-12.29 50.75-14.27L50.75-14.27L50.75-14.27Q50.88-16.26 51.33-18.37L51.33-18.37L51.33-18.37Q51.78-20.48 52.54-22.43L52.54-22.43L52.54-22.43Q53.31-24.38 54.37-26.11L54.37-26.11L54.37-26.11Q55.42-27.84 56.77-29.18L56.77-29.18L57.02-29.44L57.02-29.44Q57.22-29.63 57.41-29.63L57.41-29.63L57.41-29.63Q57.41-29.63 57.15-28.99L57.15-28.99L57.15-28.99Q55.30-25.54 54.02-21.86L54.02-21.86L54.02-21.86Q52.74-18.18 52.48-14.40L52.48-14.40L52.48-14.40Q52.16-10.24 52.90-8.96L52.90-8.96L52.90-8.96Q53.63-7.68 54.72-8.22L54.72-8.22L54.72-8.22Q55.81-8.77 57.06-10.59L57.06-10.59L57.06-10.59Q58.30-12.42 59.07-14.53L59.07-14.53L59.07-14.53Q59.78-16.45 60.58-18.50L60.58-18.50L60.58-18.50Q61.38-20.54 62.05-22.62L62.05-22.62L62.05-22.62Q62.72-24.70 63.07-26.69L63.07-26.69L63.07-26.69Q63.42-28.67 63.23-30.40L63.23-30.40L63.23-30.40Q63.23-30.72 63.36-30.72L63.36-30.72L63.36-30.72Q63.42-30.72 63.42-30.66L63.42-30.66L63.42-30.66Q63.42-30.53 63.49-30.53L63.49-30.53L63.49-30.53Q63.55-30.46 63.55-30.40L63.55-30.40L63.55-30.40Q64.58-28.22 64.48-25.98L64.48-25.98L64.48-25.98Q64.38-23.74 63.71-21.44L63.71-21.44L63.71-21.44Q63.04-19.14 62.11-16.74L62.11-16.74L62.11-16.74Q61.18-14.34 60.54-11.90L60.54-11.90L60.54-11.90Q60.16-10.37 59.97-8.67L59.97-8.67L59.97-8.67Q59.78-6.98 59.90-5.31L59.90-5.31L59.90-5.31Q60.03-3.65 60.61-2.14L60.61-2.14L60.61-2.14Q61.18-0.64 62.27 0.38L62.27 0.38L62.27 0.38Q62.40 0.51 62.40 0.58L62.40 0.58L62.40 0.58Q62.40 0.70 62.24 0.67L62.24 0.67L62.24 0.67Q62.08 0.64 61.95 0.58L61.95 0.58L61.95 0.58Q60.74 0.13 59.84-0.90L59.84-0.90L59.84-0.90Q58.94-1.92 58.43-3.33ZM85.95-12.03L85.95-12.03L85.95-12.03Q85.12-10.50 84.10-8.74L84.10-8.74L84.10-8.74Q83.07-6.98 82.11-6.21L82.11-6.21L82.11-6.21Q81.15-5.44 80.77-5.70L80.77-5.70L80.77-5.70Q80.38-5.95 79.87-6.85L79.87-6.85L79.87-6.85Q79.36-7.62 79.36-7.62L79.36-7.62L79.36-7.62Q79.17-7.55 79.17-7.17L79.17-7.17L79.17-7.17Q79.17-6.78 79.30-6.46L79.30-6.46L79.30-6.46Q79.68-5.18 80.22-4.70L80.22-4.70L80.22-4.70Q80.77-4.22 81.79-4.54L81.79-4.54L81.79-4.54Q82.94-4.86 84.06-5.95L84.06-5.95L84.06-5.95Q85.18-7.04 86.02-8.13L86.02-8.13L86.02-8.13Q87.94-10.75 89.06-13.70L89.06-13.70L89.06-13.70Q90.18-16.64 90.30-19.71L90.30-19.71L90.30-19.71Q90.43-22.53 89.60-23.36L89.60-23.36L89.60-23.36Q88.77-24.19 87.52-23.90L87.52-23.90L87.52-23.90Q86.27-23.62 84.83-22.56L84.83-22.56L84.83-22.56Q83.39-21.50 82.24-20.54L82.24-20.54L82.24-20.54Q82.62-21.50 83.30-22.40L83.30-22.40L83.30-22.40Q83.97-23.30 84.83-23.97L84.83-23.97L84.83-23.97Q85.70-24.64 86.75-24.99L86.75-24.99L86.75-24.99Q87.81-25.34 88.90-25.22L88.90-25.22L88.90-25.22Q89.54-25.15 90.05-24.58L90.05-24.58L90.05-24.58Q90.56-24 90.88-23.14L90.88-23.14L90.88-23.14Q91.20-22.27 91.30-21.12L91.30-21.12L91.30-21.12Q91.39-19.97 91.26-18.75L91.26-18.75L91.26-18.75Q90.94-16.32 90.34-13.89L90.34-13.89L90.34-13.89Q89.73-11.46 88.77-9.41L88.77-9.41L88.77-9.41Q88.64-9.09 88.35-8.51L88.35-8.51L88.35-8.51Q88.06-7.94 88.19-7.81L88.19-7.81L88.19-7.81Q88.32-7.68 88.80-8.22L88.80-8.22L88.80-8.22Q89.28-8.77 89.54-9.02L89.54-9.02L89.54-9.02Q90.69-10.56 91.58-12.51L91.58-12.51L91.58-12.51Q92.48-14.46 92.96-16.51L92.96-16.51L92.96-16.51Q93.44-18.56 93.50-20.64L93.50-20.64L93.50-20.64Q93.57-22.72 93.12-24.58L93.12-24.58L93.12-24.58Q92.74-26.18 91.55-26.75L91.55-26.75L91.55-26.75Q90.37-27.33 88.96-27.14L88.96-27.14L88.96-27.14Q87.55-26.94 86.14-26.24L86.14-26.24L86.14-26.24Q84.74-25.54 83.84-24.70L83.84-24.70L83.84-24.70Q84.22-25.66 84.90-26.40L84.90-26.40L84.90-26.40Q85.57-27.14 86.43-27.68L86.43-27.68L86.43-27.68Q87.30-28.22 88.29-28.45L88.29-28.45L88.29-28.45Q89.28-28.67 90.30-28.54L90.30-28.54L90.30-28.54Q92.10-28.35 93.02-27.14L93.02-27.14L93.02-27.14Q93.95-25.92 94.30-24.35L94.30-24.35L94.30-24.35Q94.66-22.78 94.62-21.09L94.62-21.09L94.62-21.09Q94.59-19.39 94.46-18.24L94.46-18.24L94.46-18.24Q94.14-15.55 93.25-12.93L93.25-12.93L93.25-12.93Q92.35-10.30 91.01-8.06L91.01-8.06L91.01-8.06Q89.92-6.27 88.16-4.54L88.16-4.54L88.16-4.54Q86.40-2.82 84.35-1.79L84.35-1.79L84.35-1.79Q82.30-0.77 80.13-0.74L80.13-0.74L80.13-0.74Q77.95-0.70 76.03-2.30L76.03-2.30L76.03-2.30Q74.75-3.39 74.21-5.22L74.21-5.22L74.21-5.22Q73.66-7.04 73.47-8.70L73.47-8.70L73.47-8.70Q73.15-11.58 73.57-14.50L73.57-14.50L73.57-14.50Q73.98-17.41 74.82-19.90L74.82-19.90L74.82-19.90Q76.10-23.81 77.73-27.78L77.73-27.78L77.73-27.78Q79.36-31.74 80.54-35.58L80.54-35.58L80.54-35.58Q81.73-39.42 82.05-43.01L82.05-43.01L82.05-43.01Q82.37-46.59 81.02-49.79L81.02-49.79L81.02-49.79Q80.96-49.92 80.93-50.05L80.93-50.05L80.93-50.05Q80.90-50.18 80.83-50.18L80.83-50.18L80.83-50.18Q80.64-50.11 80.67-50.05L80.67-50.05L80.67-50.05Q80.70-49.98 80.70-49.92L80.70-49.92L80.70-49.92Q81.09-46.85 80.45-43.52L80.45-43.52L80.45-43.52Q79.81-40.19 78.62-36.61L78.62-36.61L78.62-36.61Q77.44-33.02 75.97-29.22L75.97-29.22L75.97-29.22Q74.50-25.41 73.15-21.38L73.15-21.38L73.15-21.38Q72.26-18.50 71.71-15.23L71.71-15.23L71.71-15.23Q71.17-11.97 71.68-8.58L71.68-8.58L71.68-8.58Q72.38-3.97 75.46-1.73L75.46-1.73L75.46-1.73Q78.53 0.51 83.14 0L83.14 0L83.14 0Q86.46-0.38 89.02-2.69L89.02-2.69L89.02-2.69Q91.58-4.99 93.31-8.26L93.31-8.26L93.31-8.26Q94.59-10.75 95.52-13.54L95.52-13.54L95.52-13.54Q96.45-16.32 96.64-19.20L96.64-19.20L96.64-19.20Q96.77-20.99 96.61-22.91L96.61-22.91L96.61-22.91Q96.45-24.83 95.78-26.46L95.78-26.46L95.78-26.46Q95.10-28.10 93.79-29.15L93.79-29.15L93.79-29.15Q92.48-30.21 90.30-30.34L90.30-30.34L90.30-30.34Q89.02-30.40 87.46-29.70L87.46-29.70L87.46-29.70Q85.89-28.99 84.99-28.03L84.99-28.03L84.99-28.03Q85.57-29.95 86.05-31.97L86.05-31.97L86.05-31.97Q86.53-33.98 86.78-35.84L86.78-35.84L86.78-35.84Q87.04-37.70 87.01-39.33L87.01-39.33L87.01-39.33Q86.98-40.96 86.53-42.11L86.53-42.11L86.53-42.11Q86.40-42.62 86.27-42.62L86.27-42.62L86.27-42.62Q86.21-42.62 86.21-42.11L86.21-42.11L86.21-42.11Q86.08-38.02 84.86-34.34L84.86-34.34L84.86-34.34Q83.65-30.66 82.43-27.33L82.43-27.33L82.43-27.33Q81.47-24.64 80.42-21.98L80.42-21.98L80.42-21.98Q79.36-19.33 78.62-16.70L78.62-16.70L78.62-16.70Q77.89-14.08 77.57-11.55L77.57-11.55L77.57-11.55Q77.25-9.02 77.70-6.66L77.70-6.66L77.70-6.66Q77.76-6.40 77.92-6.05L77.92-6.05L77.92-6.05Q78.08-5.70 78.21-5.70L78.21-5.70L78.21-5.70Q78.34-5.70 78.30-6.02L78.30-6.02L78.30-6.02Q78.27-6.34 78.34-6.66L78.34-6.66L78.34-6.66Q78.66-8.90 79.55-12.06L79.55-12.06L79.55-12.06Q80.45-15.23 81.66-18.43L81.66-18.43L81.66-18.43Q82.37-19.07 83.36-19.94L83.36-19.94L83.36-19.94Q84.35-20.80 85.34-21.50L85.34-21.50L85.34-21.50Q86.34-22.21 87.17-22.56L87.17-22.56L87.17-22.56Q88-22.91 88.38-22.59L88.38-22.59L88.38-22.59Q88.90-22.08 88.77-20.70L88.77-20.70L88.77-20.70Q88.64-19.33 88.16-17.66L88.16-17.66L88.16-17.66Q87.68-16 87.04-14.43L87.04-14.43L87.04-14.43Q86.40-12.86 85.95-12.03ZM84.10-35.01L84.10-35.01L84.10-35.01Q84.48-36.35 84.70-38.24L84.70-38.24L84.70-38.24Q84.93-40.13 84.86-42.02L84.86-42.02L84.86-42.02Q84.80-43.90 84.38-45.60L84.38-45.60L84.38-45.60Q83.97-47.30 83.14-48.32L83.14-48.32L83.14-48.32Q83.01-48.45 82.88-48.61L82.88-48.61L82.88-48.61Q82.75-48.77 82.62-48.77L82.62-48.77L82.62-48.77Q82.43-48.77 82.69-48.13L82.69-48.13L82.69-48.13Q83.26-46.85 83.07-44.32L83.07-44.32L83.07-44.32Q82.88-41.79 82.30-38.91L82.30-38.91L82.30-38.91Q81.73-36.03 80.96-33.28L80.96-33.28L80.96-33.28Q80.19-30.53 79.55-28.93L79.55-28.93L79.55-28.93Q79.17-28.03 78.75-26.75L78.75-26.75L78.75-26.75Q78.34-25.47 77.95-24.16L77.95-24.16L77.95-24.16Q77.57-22.85 77.22-21.60L77.22-21.60L77.22-21.60Q76.86-20.35 76.67-19.46L76.67-19.46L76.67-19.46Q76.67-19.14 76.58-18.56L76.58-18.56L76.58-18.56Q76.48-17.98 76.54-17.98L76.54-17.98L76.54-17.98Q76.86-17.86 77.09-18.43L77.09-18.43L77.09-18.43Q77.31-19.01 77.50-19.14L77.50-19.14L77.50-19.14Q79.30-22.78 81.06-26.85L81.06-26.85L81.06-26.85Q82.82-30.91 84.10-35.01ZM77.25-4.54L77.25-4.54L77.25-4.54Q77.82-3.58 78.72-2.98L78.72-2.98L78.72-2.98Q79.62-2.37 80.51-2.18L80.51-2.18L80.51-2.18Q80.83-2.11 81.22-2.02L81.22-2.02L81.22-2.02Q81.60-1.92 81.60-1.66L81.60-1.66L81.60-1.66Q81.54-1.47 81.02-1.34L81.02-1.34L81.02-1.34Q80.77-1.28 80.45-1.28L80.45-1.28L80.45-1.28Q79.36-1.34 78.30-1.66L78.30-1.66L78.30-1.66Q77.25-1.98 76.10-3.52L76.10-3.52L76.10-3.52Q75.33-4.54 74.98-5.82L74.98-5.82L74.98-5.82Q74.62-7.10 74.56-8.26L74.56-8.26L74.56-8.26Q74.50-9.41 74.66-10.18L74.66-10.18L74.66-10.18Q74.82-10.94 75.14-10.88L75.14-10.88L75.14-10.88Q75.20-10.88 75.33-10.53L75.33-10.53L75.33-10.53Q75.46-10.18 75.55-9.70L75.55-9.70L75.55-9.70Q75.65-9.22 75.74-8.80L75.74-8.80L75.74-8.80Q75.84-8.38 75.90-8.19L75.90-8.19L75.90-8.19Q76.16-7.10 76.35-6.40L76.35-6.40L76.35-6.40Q76.54-5.70 77.25-4.54ZM120.32-22.21L120.32-22.21L120.32-22.21Q120.32-19.01 119.46-15.52L119.46-15.52L119.46-15.52Q118.59-12.03 117.18-8.64L117.18-8.64L117.18-8.64Q115.78-5.25 113.95-2.21L113.95-2.21L113.95-2.21Q112.13 0.83 110.21 3.01L110.21 3.01L110.21 3.01Q109.50 3.78 109.38 3.71L109.38 3.71L109.38 3.71Q109.25 3.65 109.50 2.75L109.50 2.75L109.50 2.75Q109.89 1.73 110.50 0.45L110.50 0.45L110.50 0.45Q111.10-0.83 111.71-2.08L111.71-2.08L111.71-2.08Q112.32-3.33 112.93-4.48L112.93-4.48L112.93-4.48Q113.54-5.63 113.92-6.40L113.92-6.40L113.92-6.40Q114.37-7.36 114.94-8.93L114.94-8.93L114.94-8.93Q115.52-10.50 116.06-12.42L116.06-12.42L116.06-12.42Q116.61-14.34 117.12-16.45L117.12-16.45L117.12-16.45Q117.63-18.56 118.02-20.51L118.02-20.51L118.02-20.51Q118.40-22.46 118.62-24.10L118.62-24.10L118.62-24.10Q118.85-25.73 118.78-26.75L118.78-26.75L118.78-26.75Q118.72-27.90 118.82-28.26L118.82-28.26L118.82-28.26Q118.91-28.61 119.04-28.51L119.04-28.51L119.04-28.51Q119.17-28.42 119.33-28.10L119.33-28.10L119.33-28.10Q119.49-27.78 119.62-27.52L119.62-27.52L119.62-27.52Q120.06-26.24 120.19-24.64L120.19-24.64L120.19-24.64Q120.32-23.04 120.32-22.21ZM107.71-4.54L107.71-4.54L107.71-4.54Q107.26-4.03 106.50-3.58L106.50-3.58L106.50-3.58Q105.73-3.14 105.02-3.14L105.02-3.14L105.02-3.14Q103.49-3.14 102.50-4.03L102.50-4.03L102.50-4.03Q101.50-4.93 100.93-6.24L100.93-6.24L100.93-6.24Q100.35-7.55 100.13-9.02L100.13-9.02L100.13-9.02Q99.90-10.50 99.90-11.65L99.90-11.65L99.90-11.65Q99.90-13.38 100.26-15.65L100.26-15.65L100.26-15.65Q100.61-17.92 101.34-20.19L101.34-20.19L101.34-20.19Q102.08-22.46 103.14-24.48L103.14-24.48L103.14-24.48Q104.19-26.50 105.66-27.71L105.66-27.71L105.66-27.71Q106.05-27.97 106.37-28.19L106.37-28.19L106.37-28.19Q106.69-28.42 106.18-27.52L106.18-27.52L106.18-27.52Q105.79-26.82 105.44-26.30L105.44-26.30L105.44-26.30Q105.09-25.79 104.90-25.15L104.90-25.15L104.90-25.15Q103.87-23.30 103.26-21.25L103.26-21.25L103.26-21.25Q102.66-19.20 102.27-17.09L102.27-17.09L102.27-17.09Q101.70-14.27 101.70-11.46L101.70-11.46L101.70-11.46Q101.70-10.43 101.79-9.22L101.79-9.22L101.79-9.22Q101.89-8 102.27-6.91L102.27-6.91L102.27-6.91Q102.66-5.82 103.46-5.09L103.46-5.09L103.46-5.09Q104.26-4.35 105.66-4.35L105.66-4.35L105.66-4.35Q106.05-4.35 106.56-4.54L106.56-4.54L106.56-4.54Q107.07-4.74 107.39-4.93L107.39-4.93L107.39-4.93Q107.90-5.12 107.90-4.99L107.90-4.99L107.90-4.99Q107.90-4.86 107.71-4.54ZM121.98-21.12L121.98-21.12L121.98-21.12Q122.24-20.16 122.24-18.88L122.24-18.88L122.24-18.88Q122.24-16.26 121.47-13.09L121.47-13.09L121.47-13.09Q120.70-9.92 119.46-6.53L119.46-6.53L119.46-6.53Q118.21-3.14 116.51 0.32L116.51 0.32L116.51 0.32Q114.82 3.78 112.99 6.98L112.99 6.98L112.99 6.98Q111.17 10.18 109.25 12.96L109.25 12.96L109.25 12.96Q107.33 15.74 105.60 17.79L105.60 17.79L105.60 17.79Q105.54 17.86 105.38 18.05L105.38 18.05L105.38 18.05Q105.22 18.24 105.06 18.40L105.06 18.40L105.06 18.40Q104.90 18.56 104.77 18.62L104.77 18.62L104.77 18.62Q104.64 18.69 104.64 18.43L104.64 18.43L104.64 18.43Q104.64 18.30 105.44 16.74L105.44 16.74L105.44 16.74Q106.24 15.17 107.46 12.83L107.46 12.83L107.46 12.83Q108.67 10.50 110.11 7.78L110.11 7.78L110.11 7.78Q111.55 5.06 112.90 2.56L112.90 2.56L112.90 2.56Q114.24 0.06 115.23-1.86L115.23-1.86L115.23-1.86Q116.22-3.78 116.54-4.48L116.54-4.48L116.54-4.48Q118.40-8.58 119.71-12.70L119.71-12.70L119.71-12.70Q121.02-16.83 121.54-21.25L121.54-21.25L121.54-21.25Q121.60-21.76 121.63-21.79L121.63-21.79L121.63-21.79Q121.66-21.82 121.98-21.12ZM117.82-25.86L117.82-25.86L117.82-25.86Q117.82-22.27 116.83-18.59L116.83-18.59L116.83-18.59Q115.84-14.91 114.37-11.33L114.37-11.33L114.37-11.33Q112.90-7.74 111.14-4.38L111.14-4.38L111.14-4.38Q109.38-1.02 107.78 1.86L107.78 1.86L107.78 1.86Q104.90 7.23 102.91 12.77L102.91 12.77L102.91 12.77Q100.93 18.30 100.16 24.32L100.16 24.32L100.16 24.32Q100.03 25.02 99.97 24.90L99.97 24.90L99.97 24.90Q99.90 24.90 99.81 24.54L99.81 24.54L99.81 24.54Q99.71 24.19 99.65 23.78L99.65 23.78L99.65 23.78Q99.58 23.36 99.55 22.91L99.55 22.91L99.55 22.91Q99.52 22.46 99.52 22.14L99.52 22.14L99.52 22.14Q99.52 19.26 100.16 16.32L100.16 16.32L100.16 16.32Q100.80 13.38 101.82 10.56L101.82 10.56L101.82 10.56Q102.85 7.74 104.10 5.06L104.10 5.06L104.10 5.06Q105.34 2.37 106.62 0L106.62 0L104.90 0L104.90 0Q102.98 0 101.57-0.90L101.57-0.90L101.57-0.90Q100.16-1.79 99.26-3.26L99.26-3.26L99.26-3.26Q98.37-4.74 97.89-6.72L97.89-6.72L97.89-6.72Q97.41-8.70 97.41-10.88L97.41-10.88L97.41-10.88Q97.41-11.71 97.60-13.22L97.60-13.22L97.60-13.22Q97.79-14.72 98.18-16.35L98.18-16.35L98.18-16.35Q98.56-17.98 99.14-19.55L99.14-19.55L99.14-19.55Q99.71-21.12 100.42-22.08L100.42-22.08L100.42-22.08Q100.93-22.78 100.99-22.66L100.99-22.66L100.99-22.66Q101.06-22.53 100.86-21.82L100.86-21.82L100.86-21.82Q100.03-19.39 99.55-16.77L99.55-16.77L99.55-16.77Q99.07-14.14 99.07-11.58L99.07-11.58L99.07-11.58Q99.07-10.11 99.26-8.38L99.26-8.38L99.26-8.38Q99.46-6.66 100.06-5.22L100.06-5.22L100.06-5.22Q100.67-3.78 101.82-2.82L101.82-2.82L101.82-2.82Q102.98-1.86 104.96-1.86L104.96-1.86L104.96-1.86Q106.37-1.86 107.52-2.82L107.52-2.82L107.52-2.82Q108.67-3.78 109.60-5.18L109.60-5.18L109.60-5.18Q110.53-6.59 111.26-8.26L111.26-8.26L111.26-8.26Q112-9.92 112.58-11.33L112.58-11.33L112.58-11.33Q111.94-10.43 111.07-9.57L111.07-9.57L111.07-9.57Q110.21-8.70 109.25-8L109.25-8L109.25-8Q108.29-7.30 107.33-6.85L107.33-6.85L107.33-6.85Q106.37-6.40 105.47-6.40L105.47-6.40L105.47-6.40Q104.58-6.40 104.06-6.98L104.06-6.98L104.06-6.98Q103.55-7.55 103.26-8.42L103.26-8.42L103.26-8.42Q102.98-9.28 102.91-10.18L102.91-10.18L102.91-10.18Q102.85-11.07 102.85-11.78L102.85-11.78L102.85-11.78Q102.85-14.08 103.14-16.42L103.14-16.42L103.14-16.42Q103.42-18.75 104.06-21.02L104.06-21.02L104.06-21.02Q104.70-23.30 105.76-25.38L105.76-25.38L105.76-25.38Q106.82-27.46 108.35-29.18L108.35-29.18L108.35-29.18Q108.48-29.38 108.67-29.54L108.67-29.54L108.67-29.54Q108.86-29.70 109.02-29.76L109.02-29.76L109.02-29.76Q109.18-29.82 109.18-29.73L109.18-29.73L109.18-29.73Q109.18-29.63 108.93-29.18L108.93-29.18L108.93-29.18Q107.07-25.73 105.89-21.50L105.89-21.50L105.89-21.50Q104.70-17.28 104.70-13.31L104.70-13.31L104.70-13.31Q104.70-12.93 104.74-12.06L104.74-12.06L104.74-12.06Q104.77-11.20 104.93-10.30L104.93-10.30L104.93-10.30Q105.09-9.41 105.44-8.74L105.44-8.74L105.44-8.74Q105.79-8.06 106.37-8.06L106.37-8.06L106.37-8.06Q106.56-8.06 106.88-8.26L106.88-8.26L106.88-8.26Q109.57-9.60 111.42-11.97L111.42-11.97L111.42-11.97Q113.28-14.34 114.50-17.25L114.50-17.25L114.50-17.25Q115.71-20.16 116.26-23.26L116.26-23.26L116.26-23.26Q116.80-26.37 116.86-29.18L116.86-29.18L116.86-29.18Q116.86-30.21 116.99-30.27L116.99-30.27L116.99-30.27Q117.12-30.34 117.44-29.18L117.44-29.18L117.44-29.18Q117.82-27.33 117.82-25.86ZM105.60 12.03L105.60 12.03L105.60 12.03Q105.60 12.48 105.31 13.50L105.31 13.50L105.31 13.50Q105.02 14.53 104.64 15.68L104.64 15.68L104.64 15.68Q104.26 16.83 103.87 17.92L103.87 17.92L103.87 17.92Q103.49 19.01 103.30 19.58L103.30 19.58L103.30 19.58Q102.78 20.99 102.53 22.37L102.53 22.37L102.53 22.37Q102.27 23.74 101.95 25.22L101.95 25.22L101.95 25.22Q101.95 25.34 101.89 25.60L101.89 25.60L101.89 25.60Q101.82 25.86 101.63 25.86L101.63 25.86L101.63 25.86Q101.50 25.86 101.44 25.54L101.44 25.54L101.44 25.54Q101.38 25.22 101.38 25.09L101.38 25.09L101.38 25.09Q101.25 24.58 101.22 23.68L101.22 23.68L101.22 23.68Q101.18 22.78 101.25 22.27L101.25 22.27L101.25 22.27Q101.44 20.67 101.95 18.85L101.95 18.85L101.95 18.85Q102.46 17.02 103.07 15.46L103.07 15.46L103.07 15.46Q103.68 13.89 104.32 12.86L104.32 12.86L104.32 12.86Q104.96 11.84 105.41 11.84L105.41 11.84L105.41 11.84Q105.60 11.84 105.60 12.03ZM157.44-28.74L157.44-28.74L157.44-28.74Q157.44-25.79 156.90-22.50L156.90-22.50L156.90-22.50Q156.35-19.20 155.23-16L155.23-16L155.23-16Q154.11-12.80 152.45-9.92L152.45-9.92L152.45-9.92Q150.78-7.04 148.51-4.83L148.51-4.83L148.51-4.83Q146.24-2.62 143.36-1.31L143.36-1.31L143.36-1.31Q140.48 0 137.02 0L137.02 0L137.02 0Q133.82 0 131.49-1.89L131.49-1.89L131.49-1.89Q129.15-3.78 127.71-6.85L127.71-6.85L127.71-6.85Q126.27-9.92 125.73-13.89L125.73-13.89L125.73-13.89Q125.18-17.86 125.57-21.95L125.57-21.95L125.57-21.95Q125.95-26.05 127.20-30.02L127.20-30.02L127.20-30.02Q128.45-33.98 130.62-37.06L130.62-37.06L130.62-37.06Q132.80-40.13 135.87-42.02L135.87-42.02L135.87-42.02Q138.94-43.90 142.91-43.90L142.91-43.90L142.91-43.90Q146.05-43.90 148.16-42.50L148.16-42.50L148.16-42.50Q150.27-41.09 151.58-38.91L151.58-38.91L151.58-38.91Q152.90-36.74 153.47-34.08L153.47-34.08L153.47-34.08Q154.05-31.42 154.05-28.93L154.05-28.93L154.05-28.93Q154.05-25.92 153.54-23.07L153.54-23.07L153.54-23.07Q153.02-20.22 151.74-17.54L151.74-17.54L151.74-17.54Q151.36-16.64 151.33-16.93L151.33-16.93L151.33-16.93Q151.30-17.22 151.42-17.79L151.42-17.79L151.42-17.79Q151.87-20.10 152.22-22.37L152.22-22.37L152.22-22.37Q152.58-24.64 152.58-27.01L152.58-27.01L152.58-27.01Q152.58-29.25 152.13-31.87L152.13-31.87L152.13-31.87Q151.68-34.50 150.59-36.74L150.59-36.74L150.59-36.74Q149.50-38.98 147.58-40.48L147.58-40.48L147.58-40.48Q145.66-41.98 142.72-41.98L142.72-41.98L142.72-41.98Q140.22-41.98 138.05-41.02L138.05-41.02L138.05-41.02Q135.87-40.06 134.11-38.46L134.11-38.46L134.11-38.46Q132.35-36.86 131.01-34.72L131.01-34.72L131.01-34.72Q129.66-32.58 128.70-30.27L128.70-30.27L128.70-30.27Q127.94-28.35 127.42-25.44L127.42-25.44L127.42-25.44Q126.91-22.53 126.85-19.33L126.85-19.33L126.85-19.33Q126.78-16.13 127.23-12.86L127.23-12.86L127.23-12.86Q127.68-9.60 128.90-7.04L128.90-7.04L128.90-7.04Q130.11-4.48 132.10-2.85L132.10-2.85L132.10-2.85Q134.08-1.22 137.09-1.22L137.09-1.22L137.09-1.22Q140.22-1.22 143.04-2.98L143.04-2.98L143.04-2.98Q145.86-4.74 148.13-7.39L148.13-7.39L148.13-7.39Q150.40-10.05 152-13.09L152-13.09L152-13.09Q153.60-16.13 154.30-18.75L154.30-18.75L154.30-18.75Q154.94-21.06 155.30-23.90L155.30-23.90L155.30-23.90Q155.65-26.75 155.49-29.66L155.49-29.66L155.49-29.66Q155.33-32.58 154.59-35.33L154.59-35.33L154.59-35.33Q153.86-38.08 152.38-40.22L152.38-40.22L152.38-40.22Q150.91-42.37 148.64-43.68L148.64-43.68L148.64-43.68Q146.37-44.99 143.10-44.99L143.10-44.99L143.10-44.99Q138.24-44.99 134.72-42.56L134.72-42.56L134.72-42.56Q131.20-40.13 128.93-36.42L128.93-36.42L128.93-36.42Q126.66-32.70 125.57-28.22L125.57-28.22L125.57-28.22Q124.48-23.74 124.48-19.65L124.48-19.65L124.48-19.65Q124.48-17.73 124.74-15.78L124.74-15.78L124.74-15.78Q124.99-13.82 125.12-12.54L125.12-12.54L125.12-12.54Q125.18-12.03 125.02-12L125.02-12L125.02-12Q124.86-11.97 124.67-12.48L124.67-12.48L124.67-12.48Q124.42-13.31 124.22-14.43L124.22-14.43L124.22-14.43Q124.03-15.55 123.87-16.80L123.87-16.80L123.87-16.80Q123.71-18.05 123.62-19.30L123.62-19.30L123.62-19.30Q123.52-20.54 123.52-21.63L123.52-21.63L123.52-21.63Q123.52-26.11 124.70-30.62L124.70-30.62L124.70-30.62Q125.89-35.14 128.32-38.72L128.32-38.72L128.32-38.72Q130.75-42.30 134.50-44.58L134.50-44.58L134.50-44.58Q138.24-46.85 143.36-46.85L143.36-46.85L143.36-46.85Q147.20-46.85 149.89-45.12L149.89-45.12L149.89-45.12Q152.58-43.39 154.27-40.74L154.27-40.74L154.27-40.74Q155.97-38.08 156.70-34.88L156.70-34.88L156.70-34.88Q157.44-31.68 157.44-28.74ZM151.42-28.16L151.42-28.16L151.42-28.16Q151.42-25.41 150.78-22.37L150.78-22.37L150.78-22.37Q150.14-19.33 148.90-16.42L148.90-16.42L148.90-16.42Q147.65-13.50 145.86-10.98L145.86-10.98L145.86-10.98Q144.06-8.45 141.76-6.66L141.76-6.66L141.76-6.66Q140.67-5.82 139.42-5.25L139.42-5.25L139.42-5.25Q138.18-4.67 136.70-4.67L136.70-4.67L136.70-4.67Q135.42-4.67 134.56-5.22L134.56-5.22L134.56-5.22Q133.70-5.76 133.06-6.72L133.06-6.72L133.06-6.72Q132.54-7.42 132.74-7.42L132.74-7.42L132.74-7.42Q132.93-7.42 133.44-6.91L133.44-6.91L133.44-6.91Q134.02-6.40 134.59-6.02L134.59-6.02L134.59-6.02Q135.17-5.63 136.13-5.63L136.13-5.63L136.13-5.63Q137.92-5.63 139.55-6.88L139.55-6.88L139.55-6.88Q141.18-8.13 142.27-9.41L142.27-9.41L142.27-9.41Q143.94-11.20 145.22-13.41L145.22-13.41L145.22-13.41Q146.50-15.62 147.36-18.02L147.36-18.02L147.36-18.02Q148.22-20.42 148.67-22.88L148.67-22.88L148.67-22.88Q149.12-25.34 149.12-27.78L149.12-27.78L149.12-27.78Q149.12-29.38 148.83-31.30L148.83-31.30L148.83-31.30Q148.54-33.22 147.74-34.91L147.74-34.91L147.74-34.91Q146.94-36.61 145.57-37.76L145.57-37.76L145.57-37.76Q144.19-38.91 142.02-38.91L142.02-38.91L142.02-38.91Q139.65-38.91 137.79-37.89L137.79-37.89L137.79-37.89Q135.94-36.86 134.46-35.30L134.46-35.30L134.46-35.30Q132.99-33.73 131.81-31.78L131.81-31.78L131.81-31.78Q130.62-29.82 129.60-27.97L129.60-27.97L129.60-27.97Q129.41-27.58 129.31-27.52L129.31-27.52L129.31-27.52Q129.22-27.46 129.22-27.58L129.22-27.58L129.22-27.58Q129.15-27.71 129.22-27.97L129.22-27.97L129.22-27.97Q129.92-30.34 131.14-32.64L131.14-32.64L131.14-32.64Q132.35-34.94 134.05-36.74L134.05-36.74L134.05-36.74Q135.74-38.53 137.86-39.65L137.86-39.65L137.86-39.65Q139.97-40.77 142.46-40.77L142.46-40.77L142.46-40.77Q144.83-40.77 146.56-39.49L146.56-39.49L146.56-39.49Q148.29-38.21 149.34-36.32L149.34-36.32L149.34-36.32Q150.40-34.43 150.91-32.22L150.91-32.22L150.91-32.22Q151.42-30.02 151.42-28.16ZM139.84-3.14L139.84-3.14L139.84-3.14Q138.37-2.37 136.70-2.37L136.70-2.37L136.70-2.37Q134.40-2.37 132.74-3.65L132.74-3.65L132.74-3.65Q131.07-4.93 129.95-6.78L129.95-6.78L129.95-6.78Q128.83-8.64 128.32-10.82L128.32-10.82L128.32-10.82Q127.81-12.99 127.81-14.85L127.81-14.85L127.81-14.85Q127.81-15.23 127.87-16L127.87-16L127.87-16Q127.94-16.77 128.03-17.50L128.03-17.50L128.03-17.50Q128.13-18.24 128.29-18.82L128.29-18.82L128.29-18.82Q128.45-19.39 128.70-19.39L128.70-19.39L128.70-19.39Q128.96-19.39 128.93-18.40L128.93-18.40L128.93-18.40Q128.90-17.41 129.02-15.62L129.02-15.62L129.02-15.62Q129.09-14.21 129.60-12.10L129.60-12.10L129.60-12.10Q130.11-9.98 131.07-8.03L131.07-8.03L131.07-8.03Q132.03-6.08 133.44-4.67L133.44-4.67L133.44-4.67Q134.85-3.26 136.70-3.26L136.70-3.26L136.70-3.26Q138.30-3.26 139.58-3.52L139.58-3.52L139.58-3.52Q140.22-3.65 140.54-3.65L140.54-3.65L140.54-3.65Q140.86-3.65 139.84-3.14ZM168.26-21.31L168.26-21.31L168.26-21.31Q167.74-19.14 166.82-16.74L166.82-16.74L166.82-16.74Q165.89-14.34 164.74-12.29L164.74-12.29L164.74-12.29Q164.74-12.16 164.58-11.87L164.58-11.87L164.58-11.87Q164.42-11.58 164.16-11.58L164.16-11.58L164.16-11.58Q164.03-11.58 164-11.97L164-11.97L164-11.97Q163.97-12.35 164.03-12.48L164.03-12.48L164.03-12.48Q164.03-13.50 164.29-15.20L164.29-15.20L164.29-15.20Q164.54-16.90 164.93-17.98L164.93-17.98L164.93-17.98Q165.06-18.37 165.34-19.84L165.34-19.84L165.34-19.84Q165.63-21.31 165.86-23.14L165.86-23.14L165.86-23.14Q166.08-24.96 166.11-26.66L166.11-26.66L166.11-26.66Q166.14-28.35 165.70-29.18L165.70-29.18L165.70-29.44L165.70-29.44Q165.95-29.63 166.27-29.31L166.27-29.31L166.27-29.31Q167.10-28.61 167.58-27.58L167.58-27.58L167.58-27.58Q168.06-26.56 168.29-25.44L168.29-25.44L168.29-25.44Q168.51-24.32 168.48-23.23L168.48-23.23L168.48-23.23Q168.45-22.14 168.26-21.31ZM170.75-21.57L170.75-21.57L170.75-21.57Q171.46-22.46 172.10-22.85L172.10-22.85L172.10-22.85Q172.74-23.23 173.38-23.49L173.38-23.49L173.38-23.49Q173.44-23.49 173.70-23.55L173.70-23.55L173.70-23.55Q173.95-23.62 174.08-23.42L174.08-23.42L174.08-23.42Q174.21-23.23 174.02-22.98L174.02-22.98L174.02-22.98Q173.82-22.72 173.70-22.59L173.70-22.59L173.70-22.59Q173.25-22.14 172.70-21.60L172.70-21.60L172.70-21.60Q172.16-21.06 171.71-20.54L171.71-20.54L171.71-20.54Q171.07-19.84 170.69-18.91L170.69-18.91L170.69-18.91Q170.30-17.98 170.11-17.02L170.11-17.02L170.11-17.02Q171.20-18.18 172.19-19.20L172.19-19.20L172.19-19.20Q173.18-20.22 174.34-21.12L174.34-21.12L174.34-21.12Q175.81-22.21 176.90-23.94L176.90-23.94L176.90-23.94Q177.98-25.66 178.43-28.99L178.43-28.99L178.43-28.99Q178.56-29.31 178.75-29.38L178.75-29.38L178.75-29.38Q178.94-29.44 178.94-28.93L178.94-28.93L178.94-28.93Q179.14-25.22 178.18-23.04L178.18-23.04L178.18-23.04Q177.22-20.86 175.30-19.39L175.30-19.39L175.30-19.39Q174.27-18.62 173.25-17.73L173.25-17.73L173.25-17.73Q172.22-16.83 171.30-15.74L171.30-15.74L171.30-15.74Q170.37-14.66 169.60-13.18L169.60-13.18L169.60-13.18Q168.83-11.71 168.26-9.79L168.26-9.79L168.26-9.79Q167.81-8.32 167.36-7.01L167.36-7.01L167.36-7.01Q166.91-5.70 166.40-4.48L166.40-4.48L166.40-4.48Q166.27-4.03 166.02-4.03L166.02-4.03L166.02-4.03Q165.82-4.10 165.82-4.67L165.82-4.67L165.82-4.67Q165.50-7.74 166.24-10.78L166.24-10.78L166.24-10.78Q166.98-13.82 168-17.09L168-17.09L168-17.09Q168.45-18.69 169.06-20.29L169.06-20.29L169.06-20.29Q169.66-21.89 169.60-23.94L169.60-23.94L169.60-23.94Q169.60-24.64 170.18-25.41L170.18-25.41L170.18-25.41Q170.75-26.18 171.58-26.85L171.58-26.85L171.58-26.85Q172.42-27.52 173.31-28L173.31-28L173.31-28Q174.21-28.48 174.85-28.67L174.85-28.67L174.85-28.67Q175.42-28.86 175.42-28.61L175.42-28.61L175.42-28.61Q175.42-28.35 175.04-27.97L175.04-27.97L175.04-27.97Q173.70-26.75 172.32-25.09L172.32-25.09L172.32-25.09Q170.94-23.42 170.75-21.57ZM165.18-0.06L165.18-0.06L165.18-0.06Q165.12 0 165.09-0.03L165.09-0.03L165.09-0.03Q165.06-0.06 164.74-0.26L164.74-0.26L164.74-0.26Q162.82-1.66 161.73-3.33L161.73-3.33L161.73-3.33Q160.64-4.99 160.16-6.75L160.16-6.75L160.16-6.75Q159.68-8.51 159.74-10.27L159.74-10.27L159.74-10.27Q159.81-12.03 160.19-13.70L160.19-13.70L160.19-13.70Q160.70-15.94 161.44-18.14L161.44-18.14L161.44-18.14Q162.18-20.35 162.82-22.43L162.82-22.43L162.82-22.43Q163.46-24.51 163.78-26.53L163.78-26.53L163.78-26.53Q164.10-28.54 163.78-30.40L163.78-30.40L163.78-30.40Q163.78-30.53 163.97-30.59L163.97-30.59L163.97-30.59Q164.03-30.59 164.10-30.50L164.10-30.50L164.10-30.50Q164.16-30.40 164.22-30.34L164.22-30.34L164.22-30.34Q165.44-28.29 165.44-26.14L165.44-26.14L165.44-26.14Q165.44-24 164.86-21.79L164.86-21.79L164.86-21.79Q164.29-19.58 163.42-17.31L163.42-17.31L163.42-17.31Q162.56-15.04 162.05-12.74L162.05-12.74L162.05-12.74Q161.41-9.79 161.95-6.46L161.95-6.46L161.95-6.46Q162.50-3.14 164.93-0.51L164.93-0.51L164.93-0.51Q165.06-0.32 165.18-0.26L165.18-0.26L165.18-0.26Q165.31-0.19 165.18-0.06ZM167.10 0L167.10 0L167.10 0Q166.98 0 166.85-0.06L166.85-0.06L166.59-0.19L166.59-0.19Q165.70-0.77 164.99-1.44L164.99-1.44L164.99-1.44Q164.29-2.11 163.78-3.39L163.78-3.39L163.78-3.39Q163.58-3.84 163.46-4.58L163.46-4.58L163.46-4.58Q163.33-5.31 163.30-5.95L163.30-5.95L163.30-5.95Q163.26-6.59 163.36-7.04L163.36-7.04L163.36-7.04Q163.46-7.49 163.71-7.42L163.71-7.42L163.71-7.42Q163.90-7.42 164.13-6.91L164.13-6.91L164.13-6.91Q164.35-6.40 164.48-5.89L164.48-5.89L164.48-5.89Q164.61-5.18 164.77-4.54L164.77-4.54L164.77-4.54Q164.93-3.90 165.18-3.39L165.18-3.39L165.18-3.39Q165.89-1.79 167.04-0.32L167.04-0.32L167.04-0.32Q167.17 0 167.10 0ZM177.54-28.74L177.54-28.74L177.54-28.74Q177.54-27.39 176.77-26.37L176.77-26.37L176.77-26.37Q176-25.34 174.91-24.64L174.91-24.64L174.91-24.64Q174.72-24.51 174.66-24.67L174.66-24.67L174.66-24.67Q174.59-24.83 174.59-24.90L174.59-24.90L174.59-24.90Q174.59-25.28 174.91-25.82L174.91-25.82L174.91-25.82Q175.23-26.37 175.65-26.98L175.65-26.98L175.65-26.98Q176.06-27.58 176.45-28.22L176.45-28.22L176.45-28.22Q176.83-28.86 176.96-29.38L176.96-29.38L176.96-29.38Q177.15-29.70 177.34-29.38L177.34-29.38L177.34-29.38Q177.54-29.06 177.54-28.74ZM202.11-28.42L202.11-28.61L202.11-28.61Q201.98-28.67 201.82-28.42L201.82-28.42L201.82-28.42Q201.66-28.16 201.54-28.03L201.54-28.03L201.54-28.03Q200.58-26.82 199.81-25.02L199.81-25.02L199.81-25.02Q199.04-23.23 198.50-21.25L198.50-21.25L198.50-21.25Q197.95-19.26 197.60-17.28L197.60-17.28L197.60-17.28Q197.25-15.30 196.99-13.76L196.99-13.76L196.99-13.76Q196.67-11.58 196.45-9.63L196.45-9.63L196.45-9.63Q196.22-7.68 196.03-5.82L196.03-5.82L196.03-5.82Q195.84-3.97 195.71-2.08L195.71-2.08L195.71-2.08Q195.58-0.19 195.39 1.79L195.39 1.79L195.39 1.79Q195.46 1.86 195.46 2.14L195.46 2.14L195.46 2.14Q195.46 2.43 195.46 2.72L195.46 2.72L195.46 2.72Q195.46 3.01 195.46 3.23L195.46 3.23L195.46 3.23Q195.46 3.46 195.58 3.46L195.58 3.46L195.58 3.46Q195.65 3.46 195.78 3.23L195.78 3.23L195.78 3.23Q195.90 3.01 196.03 2.75L196.03 2.75L196.03 2.75Q196.16 2.50 196.22 2.24L196.22 2.24L196.22 2.24Q196.29 1.98 196.29 1.98L196.29 1.98L196.29 1.98Q196.99 0.45 197.50-1.60L197.50-1.60L197.50-1.60Q198.02-3.65 198.34-5.70L198.34-5.70L198.34-5.70Q198.40-6.21 198.59-7.81L198.59-7.81L198.59-7.81Q198.78-9.41 199.04-11.52L199.04-11.52L199.04-11.52Q199.30-13.63 199.65-16.10L199.65-16.10L199.65-16.10Q200-18.56 200.35-20.83L200.35-20.83L200.35-20.83Q200.70-23.10 201.12-24.96L201.12-24.96L201.12-24.96Q201.54-26.82 201.92-27.78L201.92-27.78L201.92-27.78Q201.98-28.03 202.05-28.16L202.05-28.16L202.05-28.16Q202.11-28.29 202.11-28.42L202.11-28.42ZM200-28.86L200-28.86L200-28.86Q200-28.93 199.55-28.93L199.55-28.93L199.55-28.93Q199.36-28.93 199.17-28.86L199.17-28.86L199.17-28.86Q196.74-28.61 194.69-27.55L194.69-27.55L194.69-27.55Q192.64-26.50 190.94-24.93L190.94-24.93L190.94-24.93Q189.25-23.36 187.94-21.38L187.94-21.38L187.94-21.38Q186.62-19.39 185.79-17.28L185.79-17.28L185.79-17.28Q184.90-15.10 184.45-12.67L184.45-12.67L184.45-12.67Q184-10.24 184.13-8.13L184.13-8.13L184.13-8.13Q184.32-5.38 186.56-7.62L186.56-7.62L186.56-7.62Q188.48-9.54 190.18-11.78L190.18-11.78L190.18-11.78Q191.87-14.02 193.38-16.51L193.38-16.51L193.38-16.51Q194.88-19.01 196.22-21.60L196.22-21.60L196.22-21.60Q197.57-24.19 198.91-26.82L198.91-26.82L198.91-26.82Q199.17-27.33 199.10-27.33L199.10-27.33L199.10-27.33Q198.98-27.46 198.82-27.33L198.82-27.33L198.82-27.33Q198.66-27.20 198.66-27.07L198.66-27.07L198.66-27.07Q195.20-22.66 192.22-18.62L192.22-18.62L192.22-18.62Q189.25-14.59 186.75-10.62L186.75-10.62L186.75-10.62Q186.43-10.30 186.34-10.43L186.34-10.43L186.34-10.43Q186.24-10.56 186.30-10.88L186.30-10.88L186.30-10.88Q186.43-12.35 186.78-13.92L186.78-13.92L186.78-13.92Q187.14-15.49 187.78-17.09L187.78-17.09L187.78-17.09Q189.31-20.99 192.19-24L192.19-24L192.19-24Q195.07-27.01 199.42-28.48L199.42-28.48L199.42-28.48Q200-28.74 200-28.86ZM196.54-29.31L196.54-29.31L196.54-29.31Q196.48-29.44 196.26-29.44L196.26-29.44L196.26-29.44Q196.03-29.44 195.84-29.44L195.84-29.44L195.84-29.44Q194.05-29.44 192.10-28.42L192.10-28.42L192.10-28.42Q190.14-27.39 188.35-25.82L188.35-25.82L188.35-25.82Q186.56-24.26 185.15-22.37L185.15-22.37L185.15-22.37Q183.74-20.48 183.04-18.75L183.04-18.75L183.04-18.75Q182.14-16.45 181.54-14.30L181.54-14.30L181.54-14.30Q180.93-12.16 180.86-9.98L180.86-9.98L180.86-9.98Q180.80-8.83 180.96-7.74L180.96-7.74L180.96-7.74Q181.12-6.66 181.57-5.38L181.57-5.38L181.57-5.38Q181.82-4.61 182.43-4.16L182.43-4.16L182.43-4.16Q183.04-3.71 183.71-3.58L183.71-3.58L183.71-3.58Q184.38-3.46 185.09-3.58L185.09-3.58L185.09-3.58Q185.79-3.71 186.30-4.10L186.30-4.10L186.30-4.10Q186.37-4.16 186.59-4.35L186.59-4.35L186.59-4.35Q186.82-4.54 187.04-4.77L187.04-4.77L187.04-4.77Q187.26-4.99 187.42-5.18L187.42-5.18L187.42-5.18Q187.58-5.38 187.52-5.50L187.52-5.50L187.52-5.50Q187.46-5.63 186.91-5.34L186.91-5.34L186.91-5.34Q186.37-5.06 185.98-4.99L185.98-4.99L185.98-4.99Q184.64-4.74 183.97-5.18L183.97-5.18L183.97-5.18Q183.30-5.63 183.01-6.50L183.01-6.50L183.01-6.50Q182.72-7.36 182.75-8.42L182.75-8.42L182.75-8.42Q182.78-9.47 182.91-10.50L182.91-10.50L182.91-10.50Q182.91-10.88 183.07-11.84L183.07-11.84L183.07-11.84Q183.23-12.80 183.62-14.18L183.62-14.18L183.62-14.18Q184-15.55 184.67-17.22L184.67-17.22L184.67-17.22Q185.34-18.88 186.30-20.54L186.30-20.54L186.30-20.54Q187.26-22.21 188.58-23.62L188.58-23.62L188.58-23.62Q189.89-25.02 191.23-26.11L191.23-26.11L191.23-26.11Q192.58-27.20 193.82-27.90L193.82-27.90L193.82-27.90Q195.07-28.61 195.97-28.86L195.97-28.86L195.97-28.86Q196.42-28.99 196.48-29.09L196.48-29.09L196.48-29.09Q196.54-29.18 196.54-29.31ZM204.29-29.76L204.29-30.02L204.29-30.02Q204.10-30.02 203.97-29.76L203.97-29.76L203.97-29.76Q203.90-29.63 203.84-29.44L203.84-29.44L203.84-29.44Q201.92-25.47 201.15-21.28L201.15-21.28L201.15-21.28Q200.38-17.09 200-12.74L200-12.74L200-12.74Q199.62-8.38 199.23-3.97L199.23-3.97L199.23-3.97Q198.85 0.45 197.70 4.86L197.70 4.86L197.70 4.86Q197.31 6.27 196.93 7.81L196.93 7.81L196.93 7.81Q196.54 9.34 195.90 10.82L195.90 10.82L195.90 10.82Q195.26 12.29 194.21 13.60L194.21 13.60L194.21 13.60Q193.15 14.91 191.36 15.81L191.36 15.81L191.36 15.81Q189.31 16.90 187.58 16.74L187.58 16.74L187.58 16.74Q185.86 16.58 184.38 15.81L184.38 15.81L184.38 15.81Q182.91 15.04 181.70 13.86L181.70 13.86L181.70 13.86Q180.48 12.67 179.58 11.71L179.58 11.71L179.58 11.71Q179.46 11.58 179.33 11.42L179.33 11.42L179.33 11.42Q179.20 11.26 179.14 11.33L179.14 11.33L179.14 11.33Q179.01 11.39 179.10 11.62L179.10 11.62L179.10 11.62Q179.20 11.84 179.26 11.97L179.26 11.97L179.26 11.97Q180.74 14.72 183.74 16.77L183.74 16.77L183.74 16.77Q184.45 17.28 185.47 17.66L185.47 17.66L185.47 17.66Q186.50 18.05 187.68 18.21L187.68 18.21L187.68 18.21Q188.86 18.37 190.11 18.14L190.11 18.14L190.11 18.14Q191.36 17.92 192.51 17.15L192.51 17.15L192.51 17.15Q194.62 15.74 195.87 14.18L195.87 14.18L195.87 14.18Q197.12 12.61 197.89 10.98L197.89 10.98L197.89 10.98Q198.66 9.34 199.07 7.62L199.07 7.62L199.07 7.62Q199.49 5.89 199.87 4.22L199.87 4.22L199.87 4.22Q200.96-0.13 201.38-4.45L201.38-4.45L201.38-4.45Q201.79-8.77 202.05-12.99L202.05-12.99L202.05-12.99Q202.30-17.22 202.69-21.34L202.69-21.34L202.69-21.34Q203.07-25.47 204.16-29.38L204.16-29.38L204.16-29.38Q204.29-29.63 204.29-29.76L204.29-29.76ZM196.74-17.79L196.74-17.79L196.74-17.79Q197.06-19.14 197.60-20.58L197.60-20.58L197.60-20.58Q198.14-22.02 198.46-23.42L198.46-23.42L198.46-23.42Q198.46-23.55 198.56-23.87L198.56-23.87L198.56-23.87Q198.66-24.19 198.59-24.19L198.59-24.19L198.59-24.19Q198.46-24.26 198.21-23.87L198.21-23.87L198.21-23.87Q197.95-23.49 197.95-23.42L197.95-23.42L197.95-23.42Q197.06-21.95 196.35-20.32L196.35-20.32L196.35-20.32Q195.65-18.69 195.07-17.34L195.07-17.34L195.07-17.34Q194.94-17.02 194.53-16.26L194.53-16.26L194.53-16.26Q194.11-15.49 193.70-14.62L193.70-14.62L193.70-14.62Q193.28-13.76 192.99-13.02L192.99-13.02L192.99-13.02Q192.70-12.29 192.90-12.16L192.90-12.16L192.90-12.16Q193.02-12.16 193.28-12.45L193.28-12.45L193.28-12.45Q193.54-12.74 193.66-12.86L193.66-12.86L193.66-12.86Q193.86-13.18 194.11-13.54L194.11-13.54L194.11-13.54Q194.37-13.89 194.62-14.21L194.62-14.21L194.62-14.21Q194.24-12.61 193.95-11.55L193.95-11.55L193.95-11.55Q193.66-10.50 193.34-9.66L193.34-9.66L193.34-9.66Q193.02-8.83 192.61-8.10L192.61-8.10L192.61-8.10Q192.19-7.36 191.49-6.40L191.49-6.40L191.49-6.40Q190.98-5.70 190.24-4.90L190.24-4.90L190.24-4.90Q189.50-4.10 188.58-3.42L188.58-3.42L188.58-3.42Q187.65-2.75 186.56-2.34L186.56-2.34L186.56-2.34Q185.47-1.92 184.26-1.92L184.26-1.92L184.26-1.92Q182.72-1.92 181.82-2.72L181.82-2.72L181.82-2.72Q180.93-3.52 180.48-4.70L180.48-4.70L180.48-4.70Q180.03-5.89 179.90-7.23L179.90-7.23L179.90-7.23Q179.78-8.58 179.84-9.73L179.84-9.73L179.84-9.73Q180.10-14.34 181.98-18.72L181.98-18.72L181.98-18.72Q183.87-23.10 187.26-26.56L187.26-26.56L187.26-26.56Q187.26-26.62 187.46-26.82L187.46-26.82L187.46-26.82Q187.65-27.01 187.65-27.07L187.65-27.07L187.65-27.07Q187.52-27.20 187.33-27.07L187.33-27.07L187.07-26.94L187.07-26.94Q185.92-26.24 184.67-25.02L184.67-25.02L184.67-25.02Q183.42-23.81 182.30-22.18L182.30-22.18L182.30-22.18Q181.18-20.54 180.26-18.56L180.26-18.56L180.26-18.56Q179.33-16.58 178.69-14.46L178.69-14.46L178.69-14.46Q178.37-13.38 178.21-11.87L178.21-11.87L178.21-11.87Q178.05-10.37 178.14-8.74L178.14-8.74L178.14-8.74Q178.24-7.10 178.59-5.47L178.59-5.47L178.59-5.47Q178.94-3.84 179.74-2.59L179.74-2.59L179.74-2.59Q180.54-1.34 181.79-0.61L181.79-0.61L181.79-0.61Q183.04 0.13 184.90 0L184.90 0L184.90 0Q186.75-0.13 187.87-0.64L187.87-0.64L187.87-0.64Q188.99-1.15 189.70-1.73L189.70-1.73L189.70-1.73Q190.59-2.43 191.30-3.20L191.30-3.20L191.30-3.20Q192-3.97 192.70-4.67L192.70-4.67L192.70-4.67Q192.32-2.43 191.97-0.86L191.97-0.86L191.97-0.86Q191.62 0.70 191.30 2.11L191.30 2.11L191.30 2.11Q190.85 4.03 190.46 5.79L190.46 5.79L190.46 5.79Q190.08 7.55 189.63 8.90L189.63 8.90L189.63 8.90Q189.18 10.24 188.61 11.10L188.61 11.10L188.61 11.10Q188.03 11.97 187.26 12.10L187.26 12.10L187.26 12.10Q186.37 12.10 186.37 12.29L186.37 12.29L186.37 12.29Q186.30 12.48 186.62 12.61L186.62 12.61L186.62 12.61Q186.94 12.74 187.26 12.80L187.26 12.80L187.26 12.80Q188.22 12.99 189.09 12.48L189.09 12.48L189.09 12.48Q189.95 11.97 190.62 10.98L190.62 10.98L190.62 10.98Q191.30 9.98 191.84 8.64L191.84 8.64L191.84 8.64Q192.38 7.30 192.77 5.89L192.77 5.89L192.77 5.89Q193.54 2.94 194.05 0.16L194.05 0.16L194.05 0.16Q194.56-2.62 195.01-5.70L195.01-5.70L195.01-5.70Q195.46-8.70 195.74-11.71L195.74-11.71L195.74-11.71Q196.03-14.72 196.74-17.79ZM189.57 13.95L189.57 13.95L189.57 13.95Q189.44 13.82 189.22 13.86L189.22 13.86L189.22 13.86Q188.99 13.89 188.93 13.89L188.93 13.89L188.93 13.89Q187.84 14.08 186.78 13.82L186.78 13.82L186.78 13.82Q185.73 13.57 184.64 13.12L184.64 13.12L184.64 13.12Q183.42 12.61 182.40 11.87L182.40 11.87L182.40 11.87Q181.38 11.14 180.10 10.30L180.10 10.30L180.10 10.30Q179.97 10.18 179.71 10.05L179.71 10.05L179.71 10.05Q179.46 9.92 179.46 10.05L179.46 10.05L179.46 10.05Q179.39 10.11 179.55 10.37L179.55 10.37L179.55 10.37Q179.71 10.62 179.84 10.75L179.84 10.75L179.84 10.75Q180.67 11.84 181.60 12.80L181.60 12.80L181.60 12.80Q182.53 13.76 184 14.34L184 14.34L184 14.34Q184.96 14.72 185.98 14.85L185.98 14.85L185.98 14.85Q187.01 14.98 187.87 14.88L187.87 14.88L187.87 14.88Q188.74 14.78 189.25 14.53L189.25 14.53L189.25 14.53Q189.76 14.27 189.57 13.95Z" 
        fill="#ccc"
      ></path>
    </g>
  </g>
  <style>
    text {
      font-size: 64px;
      font-family: Arial Black;
      dominant-baseline: central;
      text-anchor: middle;
    }
  </style>
</svg>
