<svg 
  width="535.5249877929688px" 
  height="142.91000366210938px" 
  xmlns="http://www.w3.org/2000/svg" 
  viewBox="-17.762493896484386 3.5449981689453125 535.5249877929688 142.91000366210938" 
  style="background: rgba(0, 0, 0, 0);" 
  preserveAspectRatio="xMidYMid"
>
  <defs>
    <filter 
      id="editing-hole" 
      x="-100%" 
      y="-100%" 
      width="300%" 
      height="300%"
    >
      <feFlood flood-color="#000" result="black"></feFlood>
      <feMorphology 
        operator="dilate" 
        radius="2" 
        in="SourceGraphic" 
        result="erode"
      ></feMorphology>
      <feGaussianBlur 
        in="erode" 
        stdDeviation="4" 
        result="blur"
      ></feGaussianBlur>
      <feOffset 
        in="blur" 
        dx="2" 
        dy="2" 
        result="offset"
      ></feOffset>
      <feComposite 
        operator="atop" 
        in="offset" 
        in2="black" 
        result="merge"
      ></feComposite>
      <feComposite 
        operator="in" 
        in="merge" 
        in2="SourceGraphic" 
        result="inner-shadow"
      ></feComposite>
    </filter>
  </defs>
  <g filter="url(#editing-hole)">
    <g transform="translate(60.40500354766846, 114.26812362670898)">
      <path 
        d="M6.56-38.38L6.56-38.38L6.56-38.38Q11.19-40 18.81-40L18.81-40L18.81-40Q32.75-40 37.88-33.13L37.88-33.13L37.88-33.13Q39.88-30.50 39.88-26.44L39.88-26.44L39.88-26.44Q39.94-25.88 39.94-25.31L39.94-25.31L39.94-25.31Q39.94-19.06 32.63-12.63L32.63-12.63L32.63-12.63Q25.94-6.56 16.13-2.88L16.13-2.88L16.13-2.88Q9.63-0.38 5.38-0.38L5.38-0.38L5.38-0.38Q3.63-0.38 2.38-0.88L2.38-0.88L2.38-39.88L3.25-39.88L3.25-39.88Q4.69-39.88 5.56-39.41L5.56-39.41L5.56-39.41Q6.44-38.94 6.56-38.38ZM35.69-25.94L35.69-25.94L35.69-25.94Q35.13-31.50 29.50-34.19L29.50-34.19L29.50-34.19Q25.31-36.19 19-36.19L19-36.19L17.88-36.13L17.88-36.13Q11.94-36 7.63-34.25L7.63-34.25L7.63-4.44L7.63-4.44Q12-4.44 18.56-7.63L18.56-7.63L18.56-7.63Q29.94-13.25 34.19-20.69L34.19-20.69L34.19-20.69Q35.69-23.31 35.69-25.94ZM55.94-4.38L55.94-4.38L55.94-4.38Q61.44-4.38 72.50-9.38L72.50-9.38L72.50-9.38Q73.19-9.38 73.63-8.91L73.63-8.91L73.63-8.91Q74.06-8.44 74.06-7.81L74.06-7.81L74.06-7.81Q71.56-3.56 64.50-1.19L64.50-1.19L64.50-1.19Q57.44 1.19 51.31-0.38L51.31-0.38L51.31-0.38Q44.38-2.19 42.88-8.19L42.88-8.19L42.88-8.19Q42.75-9.38 42.75-11.38L42.75-11.38L42.75-11.38Q42.75-13.38 43.78-16.66L43.78-16.66L43.78-16.66Q44.81-19.94 47.31-22.88L47.31-22.88L47.31-22.88Q49.81-25.81 53.19-27.50L53.19-27.50L53.19-27.50Q56.56-29.19 60.38-29.19L60.38-29.19L60.38-29.19Q64-29.19 68.50-26.69L68.50-26.69L68.50-26.69Q70.63-25.50 71.88-24L71.88-24L71.88-24Q73.13-22.50 73.13-20.94L73.13-20.94L73.13-20.94Q73.13-20.50 73.06-20.06L73.06-20.06L73.06-20.06Q72.94-16.25 69.38-15.25L69.38-15.25L69.38-15.25Q67.81-14.81 65.75-14.81L65.75-14.81L56.75-15.19L56.75-15.19Q52.25-15.19 49.88-13.25L49.88-13.25L49.88-13.25Q48.50-12.19 47.94-10.06L47.94-10.06L47.94-10.06Q49.50-4.38 55.94-4.38ZM67.09-23.69L67.09-23.69L67.09-23.69Q65.69-24.69 64.19-25.13L64.19-25.13L64.19-25.13Q62.69-25.56 61.69-25.56L61.69-25.56L61.69-25.56Q60.69-25.56 58.44-24.91L58.44-24.91L58.44-24.91Q56.19-24.25 54.44-23.44L54.44-23.44L54.44-23.44Q50.13-21.44 50.13-19.25L50.13-19.25L50.13-19.25Q55.13-18.81 57.63-18.81L57.63-18.81L57.63-18.81Q64.56-18.81 67-20L67-20L67-20Q68.50-20.63 68.50-21.56L68.50-21.56L68.50-21.56Q68.50-22.69 67.09-23.69ZM99.19-16.13L99.19-16.13L99.19-16.13Q106.06-16.13 106.06-12.63L106.06-12.63L106.06-12.63Q106.06-10 102.25-6.50L102.25-6.50L102.25-6.50Q96.56-1.31 86.94 1.81L86.94 1.81L86.94 1.81Q86.50 1.81 85.97 0.94L85.97 0.94L85.97 0.94Q85.44 0.06 85.16-0.41L85.16-0.41L85.16-0.41Q84.88-0.88 84.75-1L84.75-1L84.75-1Q91.94-3.38 96.56-6.75L96.56-6.75L96.56-6.75Q99.69-9 99.69-10.44L99.69-10.44L99.69-10.44Q99.69-11.88 96-11.88L96-11.88L96-11.88Q92.31-11.88 85.19-10.13L85.19-10.13L85.19-10.13Q81.94-10.25 79.56-12.44L79.56-12.44L79.56-12.44Q77.50-14.38 77.50-16.34L77.50-16.34L77.50-16.34Q77.50-18.31 78.63-19.97L78.63-19.97L78.63-19.97Q79.75-21.63 81.63-23.06L81.63-23.06L81.63-23.06Q83.50-24.50 86-25.69L86-25.69L86-25.69Q92.13-28.63 98.69-28.63L98.69-28.63L98.69-28.63Q100.63-28.63 102.44-28.25L102.44-28.25L102.44-28.25Q103.94-28.25 104.19-26.94L104.19-26.94L104.19-26.94Q104.44-25.63 104.44-22.63L104.44-22.63L104.44-22.63Q100.75-24.31 96.13-24.31L96.13-24.31L96.13-24.31Q90.38-24.31 86.63-22L86.63-22L86.63-22Q82.75-19.75 82.63-16.13L82.63-16.13L82.63-16.13Q82.63-14.38 85.19-14.38L85.19-14.38L89.75-14.88L89.75-14.88Q95.63-16.13 99.19-16.13ZM111.63-29.38L115.56-29.38L115.56-29.38Q116.38-17.69 116.94-2.31L116.94-2.31L116.94-2.31Q116.56-0.38 113.94-0.38L113.94-0.38L113.94-0.38Q113.25-0.38 112.53-0.66L112.53-0.66L112.53-0.66Q111.81-0.94 111.63-1.44L111.63-1.44L111.63-29.38ZM109.75-37.88L109.75-37.88L109.75-37.88Q109.75-40.06 112.31-40.06L112.31-40.06L112.31-40.06Q114-40.06 115.06-39.31L115.06-39.31L115.06-39.31Q115.25-38.63 115.25-37.97L115.25-37.97L115.25-37.97Q115.25-37.31 114.75-36.69L114.75-36.69L114.75-36.69Q114.25-36.06 113.25-36.06L113.25-36.06L113.25-36.06Q112.25-36.06 111.25-36.53L111.25-36.53L111.25-36.53Q110.25-37 109.75-37.88ZM137.69 26.75L137.69 26.75L136.81 26.69L136.81 26.69Q134.94 26.69 132.81 26.94L132.81 26.94L130.44 26.94L130.44 26.94Q126.69 26.94 124.56 25.50L124.56 25.50L124.56 25.50Q123.44 24.75 123.44 23.25L123.44 23.25L137.81 22.56L137.81 22.56Q144.44 22.38 144.44 15.44L144.44 15.44L144.44 15.44Q144.44 15.19 144.44 14.59L144.44 14.59L144.44 14.59Q144.44 14 144.44 12L144.44 12L144.75-8.13L144.75-8.13Q144.75-9.19 144.69-9.88L144.69-9.88L144.69-9.88Q134.56-0.44 125.19-0.44L125.19-0.44L125.19-0.44Q124.38-0.44 123.56-0.50L123.56-0.50L123.56-0.50Q119.38-0.50 119.38-4.19L119.38-4.19L119.38-4.19Q119.50-7.06 121.06-10.53L121.06-10.53L121.06-10.53Q122.63-14 125.09-17.22L125.09-17.22L125.09-17.22Q127.56-20.44 130.69-23L130.69-23L130.69-23Q135.50-26.94 140-26.94L140-26.94L140-26.94Q145.25-26.94 148.63-21.38L148.63-21.38L148.63-21.38Q149.63-6.50 149.63-0.25L149.63-0.25L149.63-0.25Q149.63 6 149.44 10L149.44 10L149.44 10Q149.25 14 148.59 17.31L148.59 17.31L148.59 17.31Q147.94 20.63 146.88 22.56L146.88 22.56L146.88 22.56Q145.81 24.50 144.38 25.38L144.38 25.38L144.38 25.38Q142 26.75 137.69 26.75ZM141.44-22.38L141.44-22.38L141.44-22.38Q140.69-22.63 139.34-22.63L139.34-22.63L139.34-22.63Q138-22.63 135.88-21.50L135.88-21.50L135.88-21.50Q133.75-20.38 131.81-18.59L131.81-18.59L131.81-18.59Q129.88-16.81 128.19-14.63L128.19-14.63L128.19-14.63Q124.06-9.25 124.06-6.06L124.06-6.06L124.06-6.06Q124.06-5.06 124.63-4.56L124.63-4.56L124.63-4.56Q125.06-4.31 125.72-4.31L125.72-4.31L125.72-4.31Q126.38-4.31 127.63-4.53L127.63-4.53L127.63-4.53Q128.88-4.75 131.03-5.66L131.03-5.66L131.03-5.66Q133.19-6.56 135.50-8L135.50-8L135.50-8Q137.81-9.44 139.69-11.19L139.69-11.19L139.69-11.19Q144.06-15.19 144.06-19L144.06-19L144.06-19Q144.06-21.31 141.44-22.38ZM176.94-9.88L177-13.69L177-13.69Q177-21.13 176.19-24.63L176.19-24.63L176.19-24.63Q176.69-25.56 174.69-25.56L174.69-25.56L174.69-25.56Q172.56-25.56 169.19-24.50L169.19-24.50L169.19-24.50Q165.81-23.44 163.69-22.38L163.69-22.38L163.69-22.38Q158.63-19.94 158.06-17.63L158.06-17.63L158.06-0.63L153.88-0.63L153.88-0.63Q153.06-2.75 153.06-12.56L153.06-12.56L153.06-12.56Q153.06-21.31 153.41-25.44L153.41-25.44L153.41-25.44Q153.75-29.56 153.94-30.13L153.94-30.13L153.94-30.13Q155.56-31.19 156.56-31.19L156.56-31.19L156.56-31.19Q158.13-31.19 158.13-27.50L158.13-27.50L158.13-27.50Q158.13-26.06 157.97-24.72L157.97-24.72L157.97-24.72Q157.81-23.38 157.81-22.88L157.81-22.88L157.81-22.88Q167.94-30.31 173.50-30.31L173.50-30.31L173.50-30.31Q179.81-30.31 180.69-20.13L180.69-20.13L180.69-20.13Q181.06-16.56 181.06-10.25L181.06-10.25L181-5.31L181-5.31Q181-2.56 181.13 0L181.13 0L181.13 0Q180.50 0.38 180.13 0.38L180.13 0.38L180.13 0.38Q179.94 0.31 179.31 0.19L179.31 0.19L179.31 0.19Q178.69 0.06 177.69 0L177.69 0L177.69 0Q177.06-2.50 177-5.09L177-5.09L177-5.09Q176.94-7.69 176.94-9.88L176.94-9.88ZM217.25-22.88L217.25-22.88L219-22.88L219-22.88Q220.06-22.88 221.03-22.69L221.03-22.69L221.03-22.69Q222-22.50 222-21.31L222-21.31L222-21.31Q222.44-18.81 219.06-18.88L219.06-18.88L219.06-18.88Q218.13-18.94 217.34-19L217.34-19L217.34-19Q216.56-19.06 216.06-19.03L216.06-19.03L216.06-19.03Q215.56-19 215.63-18.69L215.63-18.69L215.63-18.69Q216.25-16.88 216.97-14.63L216.97-14.63L216.97-14.63Q217.69-12.38 218.56-10.13L218.56-10.13L218.56-10.13Q220.81-4.56 222.81-2.13L222.81-2.13L222.81-2.13Q221.75-0.81 220.34 0.06L220.34 0.06L220.34 0.06Q218.94 0.94 218.84 0.94L218.84 0.94L218.84 0.94Q218.75 0.94 218.69 0.88L218.69 0.88L209.88-17.69L192.81-13.50L192.19-10.88L192.19-10.88Q190.38-3.69 188.13-0.88L188.13-0.88L188.13-0.88Q187.75-0.25 186.56-0.75L186.56-0.75L186.56-0.75Q184.56-1.50 184.56-2L184.56-2L184.56-2Q184.56-2.13 185.88-5.63L185.88-5.63L185.88-5.63Q187.19-9.13 188.53-12.72L188.53-12.72L188.53-12.72Q189.88-16.31 191.34-20.25L191.34-20.25L191.34-20.25Q192.81-24.19 194.13-27.75L194.13-27.75L194.13-27.75Q195.44-31.31 196.50-34.16L196.50-34.16L196.50-34.16Q197.56-37 198-38.28L198-38.28L198-38.28Q198.44-39.56 198.59-40.53L198.59-40.53L198.59-40.53Q198.75-41.50 199.06-42.19L199.06-42.19L199.06-42.19Q199.69-43.63 202.19-43.63L202.19-43.63L202.19-43.63Q204.88-42.13 206.34-39.72L206.34-39.72L206.34-39.72Q207.81-37.31 208.84-34.56L208.84-34.56L208.84-34.56Q209.88-31.81 210.88-29L210.88-29L210.88-29Q211.88-26.19 213.56-23.88L213.56-23.88L213.56-23.88Q214.13-23 215.25-22.94L215.25-22.94L215.25-22.94Q216.38-22.88 217.25-22.88ZM201.63-36.38L201.63-36.38L201.63-36.38Q201.13-32.56 199.38-28.56L199.38-28.56L199.38-28.56Q197.63-24.56 196.56-22.34L196.56-22.34L196.56-22.34Q195.50-20.13 194.75-18.25L194.75-18.25L194.75-18.25Q199-18.25 205.19-20.75L205.19-20.75L205.19-20.75Q206.75-21.44 208.19-22L208.19-22L208.19-22Q205.25-34.56 201.63-36.38ZM249.94-9.88L250-13.69L250-13.69Q250-21.13 249.19-24.63L249.19-24.63L249.19-24.63Q249.69-25.56 247.69-25.56L247.69-25.56L247.69-25.56Q245.56-25.56 242.19-24.50L242.19-24.50L242.19-24.50Q238.81-23.44 236.69-22.38L236.69-22.38L236.69-22.38Q231.63-19.94 231.06-17.63L231.06-17.63L231.06-0.63L226.88-0.63L226.88-0.63Q226.06-2.75 226.06-12.56L226.06-12.56L226.06-12.56Q226.06-21.31 226.41-25.44L226.41-25.44L226.41-25.44Q226.75-29.56 226.94-30.13L226.94-30.13L226.94-30.13Q228.56-31.19 229.56-31.19L229.56-31.19L229.56-31.19Q231.13-31.19 231.13-27.50L231.13-27.50L231.13-27.50Q231.13-26.06 230.97-24.72L230.97-24.72L230.97-24.72Q230.81-23.38 230.81-22.88L230.81-22.88L230.81-22.88Q240.94-30.31 246.50-30.31L246.50-30.31L246.50-30.31Q252.81-30.31 253.69-20.13L253.69-20.13L253.69-20.13Q254.06-16.56 254.06-10.25L254.06-10.25L254-5.31L254-5.31Q254-2.56 254.13 0L254.13 0L254.13 0Q253.50 0.38 253.13 0.38L253.13 0.38L253.13 0.38Q252.94 0.31 252.31 0.19L252.31 0.19L252.31 0.19Q251.69 0.06 250.69 0L250.69 0L250.69 0Q250.06-2.50 250-5.09L250-5.09L250-5.09Q249.94-7.69 249.94-9.88L249.94-9.88ZM287.19-50.19L287.19-50.19Q287.19-44.19 286.84-38.47L286.84-38.47L286.84-38.47Q286.50-32.75 286.22-27.28L286.22-27.28L286.22-27.28Q285.94-21.81 285.94-15.66L285.94-15.66L285.94-15.66Q285.94-9.50 286.81-2.63L286.81-2.63L286.81-2.63Q286.81-1.19 286.28-0.56L286.28-0.56L286.28-0.56Q285.75 0.06 284.50 0.06L284.50 0.06L284.50 0.06Q281.56 0.06 281.56-4.81L281.56-4.81L281.56-6.88L281.56-6.88Q272.69-0.25 266.56-0.25L266.56-0.25L266.56-0.25Q264.13-0.25 261.59-1.44L261.59-1.44L261.59-1.44Q259.06-2.63 256.81-6.25L256.81-6.25L256.81-6.25Q256.50-7.75 256.50-9.31L256.50-9.31L256.50-9.31Q256.50-10.88 257.09-13.09L257.09-13.09L257.09-13.09Q257.69-15.31 259.53-17.69L259.53-17.69L259.53-17.69Q261.38-20.06 264-21.88L264-21.88L264-21.88Q269.75-25.75 276.44-25.75L276.44-25.75L276.44-25.75Q279.31-25.75 281.94-24.88L281.94-24.88L281.94-24.88Q281.94-26 282.09-28.81L282.09-28.81L282.09-28.81Q282.25-31.63 282.44-34.75L282.44-34.75L282.44-34.75Q282.81-42.88 282.94-44.34L282.94-44.34L282.94-44.34Q283.06-45.81 283.28-46.84L283.28-46.84L283.28-46.84Q283.50-47.88 283.94-48.63L283.94-48.63L283.94-48.63Q284.88-50.19 287.19-50.19L287.19-50.19ZM261.06-9.81L261.06-9.81L261.06-9.81Q261.06-4.88 264.63-4.88L264.63-4.88L264.63-4.88Q265.19-4.88 265.88-5L265.88-5L265.88-5Q268.44-5 272.19-6.50L272.19-6.50L272.19-6.50Q279.31-9.31 280.88-11.38L280.88-11.38L280.88-19.69L280.88-19.69Q280.88-21.88 277.31-21.88L277.31-21.88L277.31-21.88Q276.88-21.94 276.16-21.94L276.16-21.94L276.16-21.94Q275.44-21.94 273.94-21.63L273.94-21.63L273.94-21.63Q272.44-21.31 270.56-20.50L270.56-20.50L270.56-20.50Q268.69-19.69 266.88-18.50L266.88-18.50L266.88-18.50Q263.06-15.94 261.63-12.50L261.63-12.50L261.63-12.50Q261.06-11.19 261.06-9.81ZM321.38-34.69L321.38-34.69L321.38-34.69Q317.31-38.69 312.38-38.69L312.38-38.69L312.38-38.69Q307.69-38.69 303.38-35.13L303.38-35.13L303.38-35.13Q297.94-30.63 295.88-23.50L295.88-23.50L295.88-23.50Q295.13-20.94 295.13-19.25L295.13-19.25L295.13-19.25Q295.13-17.56 295.25-16.63L295.25-16.63L295.25-16.63Q295.25-10.44 299.44-7.13L299.44-7.13L299.44-7.13Q303.38-4.06 309.50-4.06L309.50-4.06L309.50-4.06Q317.88-4.75 325.56-10.50L325.56-10.50L325.56-10.50Q327.69-12.13 330.06-13.63L330.06-13.63L330.06-13.63Q330.94-13.63 331.84-13.38L331.84-13.38L331.84-13.38Q332.75-13.13 332.75-11.94L332.75-11.94L332.75-11.94Q326.56-6.56 322.31-4.19L322.31-4.19L322.31-4.19Q314.44 0.06 308.06 0.06L308.06 0.06L308.06 0.06Q307.63 0.06 307.25 0.06L307.25 0.06L307.25 0.06Q300.31 0.06 295.38-4.25L295.38-4.25L295.38-4.25Q290.13-8.81 290.13-15.63L290.13-15.63L290.13-15.63Q290.13-20.75 291.97-25.44L291.97-25.44L291.97-25.44Q293.81-30.13 297.03-33.72L297.03-33.72L297.03-33.72Q300.25-37.31 304.66-39.44L304.66-39.44L304.66-39.44Q309.06-41.56 314.13-41.56L314.13-41.56L314.13-41.56Q318.44-41.56 319.75-40.38L319.75-40.38L319.75-40.38Q321.38-38.94 321.38-34.69ZM337.31-11.88L337.31-11.88L337.31-11.88Q337.31-19.25 343.69-23.75L343.69-23.75L343.69-23.75Q348.75-27.31 355.88-28.06L355.88-28.06L355.88-28.06Q356.25-28.06 357.63-28.06L357.63-28.06L357.63-28.06Q359-28.06 361.31-27.25L361.31-27.25L361.31-27.25Q366.44-25.50 368.31-21.06L368.31-21.06L368.31-21.06Q369.06-19.31 369.06-18.09L369.06-18.09L369.06-18.09Q369.06-16.88 369-16.38L369-16.38L369-16.38Q369-8.56 363.06-4.06L363.06-4.06L363.06-4.06Q357.56 0.06 349.31 0.06L349.31 0.06L349.31 0.06Q343.38 0.06 340.34-2.69L340.34-2.69L340.34-2.69Q337.31-5.44 337.31-11.88ZM341.63-10.38L341.63-10.38L341.63-10.38Q341.63-6.50 343.69-5.13L343.69-5.13L343.69-5.13Q345.25-4.13 348.94-4.13L348.94-4.13L348.94-4.13Q352.63-4.13 355.44-4.69L355.44-4.69L355.44-4.69Q358.25-5.25 360.44-6.63L360.44-6.63L360.44-6.63Q365.13-9.63 365.13-15.94L365.13-15.94L365.13-15.94Q365.13-19.69 363.13-22.06L363.13-22.06L363.13-22.06Q360.94-24.63 357.38-24.63L357.38-24.63L357.38-24.63Q354.94-24.19 352.47-23.69L352.47-23.69L352.47-23.69Q350-23.19 347.81-21.75L347.81-21.75L347.81-21.75Q343.06-18.69 341.63-10.38ZM372.94 0.06L372.94 0.06L372.94 0.06Q371.50-0.06 371.50-1.19L371.50-1.19L371.50-1.19Q371.50-2.56 373.06-3.75L373.06-3.75L373.06-3.75Q373.69-4.19 374.03-4.19L374.03-4.19L374.03-4.19Q374.38-4.19 374.56-4.13L374.56-4.13L374.56-4.13Q375.88-4.13 376.34-3.59L376.34-3.59L376.34-3.59Q376.81-3.06 376.81-2.19L376.81-2.19L376.81-2.19Q376.81-1.31 376.44-0.88L376.44-0.88L376.44-0.88Q376.06-0.44 375.50-0.25L375.50-0.25L375.50-0.25Q374.56 0.06 372.94 0.06Z" 
        fill="#ccc"
      ></path>
    </g>
  </g>
  <style>
    text {
      font-size: 64px;
      font-family: Arial Black;
      dominant-baseline: central;
      text-anchor: middle;
    }
  </style>
</svg>
