<svg 
  width="332.3749633789062px" 
  height="125.61254272460937px" 
  xmlns="http://www.w3.org/2000/svg"
  viewBox="83.81251831054689 12.193728637695315 332.3749633789062 125.61254272460937" 
  style="background: rgba(0, 0, 0, 0);" 
  preserveAspectRatio="xMidYMid"
>
  <defs>
    <filter 
      id="editing-hole" 
      x="-100%" 
      y="-100%" 
      width="300%" 
      height="300%"
    >
      <feFlood flood-color="#000" result="black"></feFlood>
      <feMorphology 
        operator="dilate" 
        radius="2" 
        in="SourceGraphic" 
        result="erode"
      ></feMorphology>
      <feGaussianBlur 
        in="erode" 
        stdDeviation="4" 
        result="blur"
      ></feGaussianBlur>
      <feOffset 
        in="blur" 
        dx="2" 
        dy="2" 
        result="offset"
      ></feOffset>
      <feComposite 
        operator="atop" 
        in="offset" 
        in2="black" 
        result="merge"
      ></feComposite>
      <feComposite 
        operator="in" 
        in="merge" 
        in2="SourceGraphic" 
        result="inner-shadow"
      ></feComposite>
    </filter>
  </defs>
  <g filter="url(#editing-hole)">
    <g transform="translate(140.65812301635742, 101.98500061035156)">
      <path 
        d="M18.50-16.13L11.06-16.13L10.31-12.94L10.31-12.94Q8.22-4.09 6.84-0.50L6.84-0.50L6.84-0.50Q4.19 6.34 0.03 8.16L0.03 8.16L0.03 8.16Q-1.69 8.91-3.45 8.91L-3.45 8.91L-3.45 8.91Q-5.22 8.91-5.94 8.23L-5.94 8.23L-5.94 8.23Q-6.66 7.56-6.66 6.61L-6.66 6.61L-6.66 6.61Q-6.66 5.66-6.03 4.97L-6.03 4.97L-6.03 4.97Q-5.41 4.28-4.45 4.28L-4.45 4.28L-4.45 4.28Q-3.50 4.28-2.88 4.72L-2.88 4.72L-2.88 4.72Q-2.25 5.16-2.25 5.92L-2.25 5.92L-2.25 5.92Q-2.25 6.69-2.69 7.38L-2.69 7.38L-2.69 7.38Q0.53 6.88 3.09-4.81L3.09-4.81L3.09-4.81Q3.50-6.66 4.02-9.20L4.02-9.20L4.02-9.20Q4.53-11.75 4.81-12.94L4.81-12.94L5.56-16.13L-0.31-16.13L0.19-18.19L6-18.19L6-18.19Q9.72-33.28 14.72-39.25L14.72-39.25L14.72-39.25Q18.84-44.16 24.69-44.16L24.69-44.16L24.69-44.16Q27.31-44.16 29.11-43.09L29.11-43.09L29.11-43.09Q30.91-42.03 30.91-39.56L30.91-39.56L30.91-39.56Q30.91-38.13 29.92-37.30L29.92-37.30L29.92-37.30Q28.94-36.47 27.61-36.47L27.61-36.47L27.61-36.47Q26.28-36.47 25.36-37.23L25.36-37.23L25.36-37.23Q24.44-38 24.44-39.22L24.44-39.22L24.44-39.22Q24.44-40.44 25.28-41.59L25.28-41.59L25.28-41.59Q23.75-42.13 22.88-42.13L22.88-42.13L22.88-42.13Q22-42.13 20.80-41.27L20.80-41.27L20.80-41.27Q19.59-40.41 18.66-38.97L18.66-38.97L18.66-38.97Q15-33.34 11.53-18.19L11.53-18.19L19-18.19L18.50-16.13ZM23.30 0.50L23.30 0.50L23.30 0.50Q21.97 0.50 21.22-0.31L21.22-0.31L21.22-0.31Q20.47-1.13 20.47-2.55L20.47-2.55L20.47-2.55Q20.47-3.97 21.20-6.42L21.20-6.42L21.20-6.42Q21.94-8.88 22.67-10.88L22.67-10.88L22.67-10.88Q23.41-12.88 23.41-13.55L23.41-13.55L23.41-13.55Q23.41-14.22 22.97-14.22L22.97-14.22L22.97-14.22Q21.88-14.22 19.44-9.91L19.44-9.91L17.34-11.13L17.34-11.13Q21.94-18.88 25.78-18.88L25.78-18.88L25.78-18.88Q28.41-18.88 28.41-15.56L28.41-15.56L28.41-15.56Q28.41-14.59 27.78-12.47L27.78-12.47L25.53-6.03L25.53-6.03Q25.19-5.13 25.19-4.39L25.19-4.39L25.19-4.39Q25.19-3.66 25.75-3.66L25.75-3.66L25.75-3.66Q26.81-3.66 29.66-7.59L29.66-7.59L30.97-6.38L30.97-6.38Q29.28-3.25 26.95-1.38L26.95-1.38L26.95-1.38Q24.63 0.50 23.30 0.50ZM32.19-28.11L32.19-28.11L32.19-28.11Q32.19-26.84 31.34-25.81L31.34-25.81L31.34-25.81Q30.50-24.78 29.06-24.78L29.06-24.78L29.06-24.78Q27.63-24.78 26.91-25.64L26.91-25.64L26.91-25.64Q26.19-26.50 26.19-27.81L26.19-27.81L26.19-27.81Q26.19-29.13 27.08-30.14L27.08-30.14L27.08-30.14Q27.97-31.16 29.38-31.16L29.38-31.16L29.38-31.16Q30.78-31.16 31.48-30.27L31.48-30.27L31.48-30.27Q32.19-29.38 32.19-28.11ZM41.34-3L41.34-3L41.34-3Q44-3 46.72-4.88L46.72-4.88L46.72-4.88Q49.44-6.75 51.06-9.27L51.06-9.27L51.06-9.27Q52.69-11.78 52.69-13.75L52.69-13.75L52.69-13.75Q52.50-13.50 51.33-13.50L51.33-13.50L51.33-13.50Q50.16-13.50 49.44-14.27L49.44-14.27L49.44-14.27Q48.72-15.03 48.72-16.11L48.72-16.11L48.72-16.11Q48.72-17.19 49.53-18.03L49.53-18.03L49.53-18.03Q50.34-18.88 51.78-18.88L51.78-18.88L51.78-18.88Q55.75-18.88 55.75-14.53L55.75-14.53L55.75-14.53Q55.75-12.56 54.53-10.03L54.53-10.03L54.53-10.03Q53.31-7.50 51.20-5.13L51.20-5.13L51.20-5.13Q49.09-2.75 45.77-1.13L45.77-1.13L45.77-1.13Q42.44 0.50 38.73 0.50L38.73 0.50L38.73 0.50Q35.03 0.50 35.03-3.09L35.03-3.09L35.03-3.09Q35.03-5.13 36.20-8.61L36.20-8.61L36.20-8.61Q37.38-12.09 37.38-13.06L37.38-13.06L37.38-13.06Q37.38-14.03 36.81-14.03L36.81-14.03L36.81-14.03Q35.97-14.03 33.47-9.97L33.47-9.97L31.44-11.13L31.44-11.13Q36.03-18.88 39.88-18.88L39.88-18.88L39.88-18.88Q40.91-18.88 41.67-18.11L41.67-18.11L41.67-18.11Q42.44-17.34 42.44-15.61L42.44-15.61L42.44-15.61Q42.44-13.88 41.19-9.22L41.19-9.22L41.19-9.22Q39.94-4.56 39.94-4.28L39.94-4.28L39.94-4.28Q39.94-3 41.34-3ZM64.28-6.09L62.94-6.16L62.94-6.16Q63.13-2.56 67.78-2.56L67.78-2.56L67.78-2.56Q69.50-2.56 71.36-3.55L71.36-3.55L71.36-3.55Q73.22-4.53 74.38-5.88L74.38-5.88L75.72-5L75.72-5Q73.13-0.66 67.44 0.31L67.44 0.31L67.44 0.31Q66.19 0.50 65.03 0.50L65.03 0.50L65.03 0.50Q61.66 0.50 59.41-1.73L59.41-1.73L59.41-1.73Q57.16-3.97 57.16-7.19L57.16-7.19L57.16-7.19Q57.16-10.41 59.13-13.14L59.13-13.14L59.13-13.14Q61.09-15.88 64.05-17.38L64.05-17.38L64.05-17.38Q67-18.88 69.88-18.88L69.88-18.88L69.88-18.88Q72.75-18.88 74.86-17.56L74.86-17.56L74.86-17.56Q76.97-16.25 77.02-14.03L77.02-14.03L77.02-14.03Q77.06-11.81 75.72-10.20L75.72-10.20L75.72-10.20Q74.38-8.59 72.31-7.75L72.31-7.75L72.31-7.75Q68.22-6.09 64.28-6.09L64.28-6.09ZM62.75-7.88L62.75-7.88L62.75-7.88Q66.22-8 68.33-8.98L68.33-8.98L68.33-8.98Q70.44-9.97 71.27-11.23L71.27-11.23L71.27-11.23Q72.09-12.50 72.09-13.89L72.09-13.89L72.09-13.89Q72.09-15.28 71.38-15.95L71.38-15.95L71.38-15.95Q70.66-16.63 69.84-16.63L69.84-16.63L69.84-16.63Q67.84-16.63 66.17-15.23L66.17-15.23L66.17-15.23Q64.50-13.84 63.63-11.86L63.63-11.86L63.63-11.86Q62.75-9.88 62.75-7.88ZM97.75-16.13L90.31-16.13L89.56-12.94L89.56-12.94Q87.47-4.09 86.09-0.50L86.09-0.50L86.09-0.50Q83.44 6.34 79.28 8.16L79.28 8.16L79.28 8.16Q77.56 8.91 75.80 8.91L75.80 8.91L75.80 8.91Q74.03 8.91 73.31 8.23L73.31 8.23L73.31 8.23Q72.59 7.56 72.59 6.61L72.59 6.61L72.59 6.61Q72.59 5.66 73.22 4.97L73.22 4.97L73.22 4.97Q73.84 4.28 74.80 4.28L74.80 4.28L74.80 4.28Q75.75 4.28 76.38 4.72L76.38 4.72L76.38 4.72Q77 5.16 77 5.92L77 5.92L77 5.92Q77 6.69 76.56 7.38L76.56 7.38L76.56 7.38Q79.78 6.88 82.34-4.81L82.34-4.81L82.34-4.81Q82.75-6.66 83.27-9.20L83.27-9.20L83.27-9.20Q83.78-11.75 84.06-12.94L84.06-12.94L84.81-16.13L78.94-16.13L79.44-18.19L85.25-18.19L85.25-18.19Q88.97-33.28 93.97-39.25L93.97-39.25L93.97-39.25Q98.09-44.16 103.94-44.16L103.94-44.16L103.94-44.16Q106.56-44.16 108.36-43.09L108.36-43.09L108.36-43.09Q110.16-42.03 110.16-39.56L110.16-39.56L110.16-39.56Q110.16-38.13 109.17-37.30L109.17-37.30L109.17-37.30Q108.19-36.47 106.86-36.47L106.86-36.47L106.86-36.47Q105.53-36.47 104.61-37.23L104.61-37.23L104.61-37.23Q103.69-38 103.69-39.22L103.69-39.22L103.69-39.22Q103.69-40.44 104.53-41.59L104.53-41.59L104.53-41.59Q103-42.13 102.13-42.13L102.13-42.13L102.13-42.13Q101.25-42.13 100.05-41.27L100.05-41.27L100.05-41.27Q98.84-40.41 97.91-38.97L97.91-38.97L97.91-38.97Q94.25-33.34 90.78-18.19L90.78-18.19L98.25-18.19L97.75-16.13ZM117.19-18.19L121.66-18.19L121.66-18.19Q117.47-7.03 117.47-4.66L117.47-4.66L117.47-4.66Q117.47-3.66 117.97-3.66L117.97-3.66L117.97-3.66Q119.34-3.66 121.97-7.66L121.97-7.66L123.31-6.38L123.31-6.38Q121.66-3.41 119.39-1.45L119.39-1.45L119.39-1.45Q117.13 0.50 115.72 0.50L115.72 0.50L115.72 0.50Q112.81 0.50 112.81-2.44L112.81-2.44L112.81-2.44Q112.81-4.72 113.88-8L113.88-8L113.88-8Q114.94-11.28 114.94-11.31L114.94-11.31L114.94-11.31Q114.78-11.03 114.19-10.02L114.19-10.02L114.19-10.02Q113.59-9 113.31-8.50L113.31-8.50L113.31-8.50Q113.03-8 112.39-6.98L112.39-6.98L112.39-6.98Q111.75-5.97 111.33-5.39L111.33-5.39L111.33-5.39Q110.91-4.81 110.20-3.91L110.20-3.91L110.20-3.91Q109.50-3 108.95-2.47L108.95-2.47L108.95-2.47Q108.41-1.94 107.66-1.30L107.66-1.30L107.66-1.30Q106.91-0.66 106.22-0.31L106.22-0.31L106.22-0.31Q104.66 0.50 103.16 0.50L103.16 0.50L103.16 0.50Q99.44 0.50 99.44-3.59L99.44-3.59L99.44-3.59Q99.44-5.47 100.78-9.42L100.78-9.42L100.78-9.42Q102.13-13.38 102.13-14.08L102.13-14.08L102.13-14.08Q102.13-14.78 101.69-14.78L101.69-14.78L101.69-14.78Q100.44-14.78 98.22-10.81L98.22-10.81L96.19-12.03L96.19-12.03Q100.47-18.88 104.44-18.88L104.44-18.88L104.44-18.88Q105.75-18.88 106.53-18.14L106.53-18.14L106.53-18.14Q107.31-17.41 107.27-15.89L107.27-15.89L107.27-15.89Q107.22-14.38 105.73-10.48L105.73-10.48L105.73-10.48Q104.25-6.59 104.25-4.53L104.25-4.53L104.25-4.53Q104.25-3.41 105.28-3.41L105.28-3.41L105.28-3.41Q106.47-3.41 108.11-4.92L108.11-4.92L108.11-4.92Q109.75-6.44 111.28-8.63L111.28-8.63L111.28-8.63Q113.72-12.06 116.34-16.69L116.34-16.69L117.19-18.19ZM136.59-41.56L136.59-41.56L141.66-41.56L141.66-41.56Q140.31-39.25 137.53-31.30L137.53-31.30L137.53-31.30Q134.75-23.34 132.45-15.30L132.45-15.30L132.45-15.30Q130.16-7.25 130.16-5.45L130.16-5.45L130.16-5.45Q130.16-3.66 130.59-3.66L130.59-3.66L130.59-3.66Q131.91-3.66 134.69-7.63L134.69-7.63L136-6.38L136-6.38Q134.63-4 133.03-2.38L133.03-2.38L133.03-2.38Q130.22 0.50 128.47 0.50L128.47 0.50L128.47 0.50Q125.28 0.50 125.28-3.34L125.28-3.34L125.28-3.34Q125.28-9.06 129.08-21.38L129.08-21.38L129.08-21.38Q132.88-33.69 136.59-41.56ZM160.44-12.34L159.53-12.69L159.53-12.69Q154.94-15.09 150.78-15.09L150.78-15.09L150.78-15.09Q146.63-15.09 144.03-12.95L144.03-12.95L144.03-12.95Q141.44-10.81 141.44-7.94L141.44-7.94L141.44-7.94Q141.44-5.06 143.98-3.02L143.98-3.02L143.98-3.02Q146.53-0.97 150.67-0.97L150.67-0.97L150.67-0.97Q154.81-0.97 157.67-1.94L157.67-1.94L157.67-1.94Q160.53-2.91 162.42-4.64L162.42-4.64L162.42-4.64Q164.31-6.38 165.70-8.66L165.70-8.66L165.70-8.66Q167.09-10.94 168.02-13.66L168.02-13.66L168.02-13.66Q168.94-16.38 169.69-19.20L169.69-19.20L169.69-19.20Q170.44-22.03 171.23-24.98L171.23-24.98L171.23-24.98Q172.03-27.94 172.94-30.56L172.94-30.56L172.94-30.56Q174.97-36.47 178.75-39.75L178.75-39.75L178.75-39.75Q172.75-41.28 166.13-41.28L166.13-41.28L166.13-41.28Q162.38-41.28 159.06-39.23L159.06-39.23L159.06-39.23Q155.75-37.19 153.77-33.72L153.77-33.72L153.77-33.72Q151.78-30.25 151.78-26.06L151.78-26.06L151.78-26.06Q151.78-21.88 154.14-19L154.14-19L154.14-19Q156.50-16.13 160.88-13.94L160.88-13.94L160.44-12.34ZM141.66-1.06L141.66-1.06Q139.44-2.03 138.03-3.83L138.03-3.83L138.03-3.83Q136.63-5.63 136.63-7.95L136.63-7.95L136.63-7.95Q136.63-10.28 137.78-12.13L137.78-12.13L137.78-12.13Q138.94-13.97 140.78-15.03L140.78-15.03L140.78-15.03Q144.63-17.22 149.16-17.22L149.16-17.22L149.16-17.22Q151.50-17.22 153.47-16.56L153.47-16.56L153.47-16.56Q149.22-21.91 149.22-26.38L149.22-26.38L149.22-26.38Q149.22-32.84 153.75-37.72L153.75-37.72L153.75-37.72Q158.16-42.44 164.16-44.19L164.16-44.19L164.16-44.19Q167.19-45.06 170.09-45.06L170.09-45.06L170.09-45.06Q173-45.06 178.50-43.81L178.50-43.81L178.50-43.81Q184-42.56 185.78-42.56L185.78-42.56L185.78-42.56Q187.56-42.56 188.28-42.97L188.28-42.97L188.28-42.97Q189.25-43.50 190.56-45L190.56-45L192.94-45L192.94-45Q192.53-43.31 191.28-42.09L191.28-42.09L191.28-42.09Q190.03-40.88 188.41-40.31L188.41-40.31L188.41-40.31Q185.38-39.28 182.66-39.28L182.66-39.28L182.66-39.28Q178.75-39.28 177.41-29.91L177.41-29.91L177.41-29.91Q177.06-27.44 176.72-22.88L176.72-22.88L176.72-22.88Q176.38-18.31 175.14-14.78L175.14-14.78L175.14-14.78Q173.91-11.25 171.98-8.75L171.98-8.75L171.98-8.75Q170.06-6.25 167.64-4.36L167.64-4.36L167.64-4.36Q165.22-2.47 162.38-1.34L162.38-1.34L162.38-1.34Q156.84 0.84 150.66 0.84L150.66 0.84L150.66 0.84Q145.97 0.84 141.66-1.06L141.66-1.06ZM213.28-9.41L213.28-9.41L214.78-8L214.78-8Q207.69 1.22 197.69 1.22L197.69 1.22L197.69 1.22Q191.16 1.22 186.66-3L186.66-3L186.66-3Q184.47-5.03 183.20-8.19L183.20-8.19L183.20-8.19Q181.94-11.34 181.94-15.41L181.94-15.41L181.94-15.41Q181.94-19.47 183.47-23.86L183.47-23.86L183.47-23.86Q185-28.25 187.72-32L187.72-32L187.72-32Q190.44-35.75 193.94-38.70L193.94-38.70L193.94-38.70Q197.44-41.66 201.66-43.36L201.66-43.36L201.66-43.36Q205.88-45.06 210.53-45.06L210.53-45.06L210.53-45.06Q215.19-45.06 218.59-42.09L218.59-42.09L218.59-42.09Q222-39.13 222-33.78L222-33.78L222-33.78Q222-30.63 220.55-27.14L220.55-27.14L220.55-27.14Q219.09-23.66 216.80-20.83L216.80-20.83L216.80-20.83Q214.50-18 211.38-16.16L211.38-16.16L211.38-16.16Q208.25-14.31 205.16-14.31L205.16-14.31L205.16-14.31Q202.06-14.31 200.25-16.31L200.25-16.31L200.25-16.31Q198.44-18.31 198.44-20.97L198.44-20.97L198.44-20.97Q198.44-25.53 202.23-29.80L202.23-29.80L202.23-29.80Q206.03-34.06 212-36.09L212-36.09L212.72-34.44L212.72-34.44Q209.72-33.44 207.06-31.09L207.06-31.09L207.06-31.09Q204.41-28.75 202.92-26.08L202.92-26.08L202.92-26.08Q201.44-23.41 201.44-21.44L201.44-21.44L201.44-21.44Q201.44-17.34 206-17.34L206-17.34L206-17.34Q209.19-17.34 212.39-20.16L212.39-20.16L212.39-20.16Q215.59-22.97 217.52-26.77L217.52-26.77L217.52-26.77Q219.44-30.56 219.44-34.08L219.44-34.08L219.44-34.08Q219.44-37.59 217.06-39.83L217.06-39.83L217.06-39.83Q214.69-42.06 210.75-42.06L210.75-42.06L210.75-42.06Q206.81-42.06 202.66-39.69L202.66-39.69L202.66-39.69Q198.50-37.31 195.30-33.59L195.30-33.59L195.30-33.59Q192.09-29.88 190.05-25.05L190.05-25.05L190.05-25.05Q188-20.22 188-15.56L188-15.56L188-15.56Q188-8.03 193.03-4.50L193.03-4.50L193.03-4.50Q195.97-2.44 199.70-2.44L199.70-2.44L199.70-2.44Q203.44-2.44 207.06-4.27L207.06-4.27L207.06-4.27Q210.69-6.09 213.28-9.41Z" 
        fill="#ccc"
      ></path>
    </g>
  </g>
  <style>
    text {
      font-size: 64px;
      font-family: Arial Black;
      dominant-baseline: central;
      text-anchor: middle;
    }
  </style>
</svg>
