<svg 
  width="412.2324951171875px" 
  height="128.50250549316405px" 
  xmlns="http://www.w3.org/2000/svg" 
  viewBox="43.883752441406244 10.748747253417974 412.2324951171875 128.50250549316405" 
  style="background: rgba(0, 0, 0, 0);" 
  preserveAspectRatio="xMidYMid"
>
  <defs>
    <filter 
      id="editing-hole" 
      x="-100%" 
      y="-100%" 
      width="300%" 
      height="300%"
    >
      <feFlood 
        flood-color="#000" 
        result="black"
      ></feFlood>
      <feMorphology 
        operator="dilate" 
        radius="2" 
        in="SourceGraphic" 
        result="erode"
      ></feMorphology>
      <feGaussianBlur 
        in="erode" 
        stdDeviation="4" 
        result="blur">
      </feGaussianBlur>
      <feOffset 
        in="blur" 
        dx="2" 
        dy="2" 
        result="offset"
      ></feOffset>
      <feComposite 
        operator="atop" 
        in="offset" 
        in2="black" 
        result="merge"
      ></feComposite>
      <feComposite 
        operator="in" 
        in="merge" 
        in2="SourceGraphic" 
        result="inner-shadow"
      ></feComposite>
    </filter>
  </defs>
  <g filter="url(#editing-hole)">
    <g transform="translate(105.89000296592712, 100.31500053405762)">
      <path 
        d="M26.53-18.59L26.53-18.59L26.50-27.16L26.50-27.16Q26.50-28.91 25.94-29.53L25.94-29.53L25.94-29.53Q24.91-30.69 22.13-30.69L22.13-30.69L17.19-30.69L17.19-30.69Q13.31-30.69 12.94-28.50L12.94-28.50L12.94-28.50Q12.84-27.88 12.84-27.16L12.84-27.16L12.81-17.78L12.81-17.78Q12.81-5.66 14.06-2.59L14.06-2.59L14.06-2.59Q14.56-1.41 15.63 0L15.63 0L3.91 0L3.91 0Q4.91-2.38 5.08-3.97L5.08-3.97L5.08-3.97Q5.25-5.56 5.44-7.91L5.44-7.91L5.44-7.91Q5.78-12.81 5.78-19.13L5.78-19.13L5.78-19.13Q5.78-25.44 5.75-27.83L5.75-27.83L5.75-27.83Q5.72-30.22 5.69-32.50L5.69-32.50L5.69-32.50Q5.47-41.97 5.09-43.86L5.09-43.86L5.09-43.86Q4.72-45.75 4.47-46.41L4.47-46.41L3.91-47.81L15.63-47.81L15.63-47.81Q13.38-45.31 13.13-41.06L13.13-41.06L13.13-41.06Q13.03-39.78 13.03-38.38L13.03-38.38L13.03-38.38Q13.03-36.97 13.30-36.17L13.30-36.17L13.30-36.17Q13.56-35.38 14.19-35L14.19-35L14.19-35Q15.03-34.44 18.16-34.44L18.16-34.44L21.13-34.44L21.13-34.44Q24.31-34.44 25.06-34.91L25.06-34.91L25.06-34.91Q26.31-35.72 26.31-38.44L26.31-38.44L26.31-38.44Q26.31-45.09 23.69-47.81L23.69-47.81L35.41-47.81L35.41-47.81Q34.47-45.75 34.27-44L34.27-44L34.27-44Q34.06-42.25 33.97-40.64L33.97-40.64L33.97-40.64Q33.88-39.03 33.78-36.91L33.78-36.91L33.78-36.91Q33.69-34.78 33.63-32.50L33.63-32.50L33.63-32.50Q33.53-27.19 33.53-22.88L33.53-22.88L33.53-22.88Q33.53-5.34 34.84-1.41L34.84-1.41L34.84-1.41Q35.06-0.75 35.41 0L35.41 0L23.69 0L23.69 0Q25.25-2.09 25.59-3.61L25.59-3.61L25.59-3.61Q25.94-5.13 26.13-7.19L26.13-7.19L26.13-7.19Q26.53-11.16 26.53-18.59ZM64.31-10.63L64.31-10.63L64.31-10.63Q65.44-9.88 65.44-8.02L65.44-8.02L65.44-8.02Q65.44-6.16 64.94-4.75L64.94-4.75L64.94-4.75Q64.44-3.34 63.19-2.13L63.19-2.13L63.19-2.13Q60.38 0.63 54.63 0.63L54.63 0.63L54.63 0.63Q47.94 0.63 44.44-4.31L44.44-4.31L44.44-4.31Q41.34-8.72 41.34-16.22L41.34-16.22L41.34-16.22Q41.34-23.78 45.53-28.09L45.53-28.09L45.53-28.09Q49.50-32.19 56.28-32.19L56.28-32.19L56.28-32.19Q61-32.19 63.66-29.44L63.66-29.44L63.66-29.44Q65.75-27.25 65.75-24.39L65.75-24.39L65.75-24.39Q65.75-21.53 64.64-19.23L64.64-19.23L64.64-19.23Q63.53-16.94 61.38-15.28L61.38-15.28L61.38-15.28Q56.94-11.84 48.97-11.66L48.97-11.66L48.97-11.66Q49.63-5.38 52.91-3.25L52.91-3.25L52.91-3.25Q54.09-2.50 56.06-2.50L56.06-2.50L56.06-2.50Q58.03-2.50 60.25-4.56L60.25-4.56L60.25-4.56Q62.47-6.63 64.31-10.63ZM48.78-15.59L48.78-14.63L48.78-14.63Q58.66-15.28 58.66-24.19L58.66-24.19L58.66-24.19Q58.66-27.53 56.66-28.69L56.66-28.69L56.66-28.69Q55.97-29.06 54.84-29.06L54.84-29.06L54.84-29.06Q53.72-29.06 52.58-28.38L52.58-28.38L52.58-28.38Q51.44-27.69 50.59-26.13L50.59-26.13L50.59-26.13Q48.78-22.72 48.78-15.59L48.78-15.59ZM95.56-16.69L95.56-16.69L95.47-10.69L95.47-10.69Q95.47-5.09 96.50-3.06L96.50-3.06L96.50-3.06Q97.13-1.84 97.97-1.19L97.97-1.19L99.44 0L90.38 0L89.41-3.63L89.41-3.63Q85.88 0.63 79.34 0.63L79.34 0.63L79.34 0.63Q75.63 0.63 73.34-1.88L73.34-1.88L73.34-1.88Q71.34-4.13 71.34-7.19L71.34-7.19L71.34-7.19Q71.34-10.25 72.80-12.53L72.80-12.53L72.80-12.53Q74.25-14.81 76.63-16.31L76.63-16.31L76.63-16.31Q81.31-19.22 88.41-19.34L88.41-19.34L88.41-19.69L88.41-19.69Q88.41-27.28 86.06-28.59L86.06-28.59L86.06-28.59Q85.22-29.06 83.89-29.06L83.89-29.06L83.89-29.06Q82.56-29.06 81.25-28.19L81.25-28.19L81.25-28.19Q79.94-27.31 78.88-25.94L78.88-25.94L78.88-25.94Q76.75-23.16 75.84-19.38L75.84-19.38L75.84-19.38Q73.06-21.03 73.06-25.72L73.06-25.72L73.06-25.72Q73.06-27.63 73.56-30L73.56-30L73.56-30Q74.75-30 75.81-30.34L75.81-30.34L78.22-31.09L78.22-31.09Q81.75-32.19 85.13-32.19L85.13-32.19L85.13-32.19Q88.50-32.19 90.52-31.19L90.52-31.19L90.52-31.19Q92.53-30.19 93.66-28.22L93.66-28.22L93.66-28.22Q95.56-24.88 95.56-16.69ZM78.09-6.56L78.09-6.56Q78.09-4.63 78.98-3.56L78.98-3.56L78.98-3.56Q79.88-2.50 81.22-2.50L81.22-2.50L81.22-2.50Q82.56-2.50 83.81-3.20L83.81-3.20L83.81-3.20Q85.06-3.91 86.06-5.13L86.06-5.13L86.06-5.13Q88.41-7.91 88.41-11.66L88.41-11.66L88.41-16.28L88.41-16.28Q84.03-15.88 81.19-13.38L81.19-13.38L81.19-13.38Q78.09-10.69 78.09-6.56L78.09-6.56ZM112.78-22.50L112.75-14.31L112.75-14.31Q112.75-4.19 113.97 0L113.97 0L104.75 0L104.75 0Q105.63-3.03 105.84-7.16L105.84-7.16L105.84-7.16Q106.31-17.13 106.31-22.63L106.31-22.63L106.31-22.63Q106.31-28.13 106.28-30.02L106.28-30.02L106.28-30.02Q106.25-31.91 106.22-33.81L106.22-33.81L106.22-33.81Q106.03-40.59 105.58-42.36L105.58-42.36L105.58-42.36Q105.13-44.13 104.73-44.92L104.73-44.92L104.73-44.92Q104.34-45.72 103.84-46.38L103.84-46.38L102.81-47.81L114.22-47.81L114.22-47.81Q113.34-44.66 113.20-41.77L113.20-41.77L113.20-41.77Q113.06-38.88 112.98-36.66L112.98-36.66L112.98-36.66Q112.91-34.44 112.84-32.03L112.84-32.03L112.84-32.03Q112.78-28.03 112.78-22.50L112.78-22.50ZM130.84-44.06L130.84-44.06L130.84-44.06Q130.19-41.66 130.19-38.30L130.19-38.30L130.19-38.30Q130.19-34.94 130.33-34L130.33-34L130.33-34Q130.47-33.06 130.78-32.50L130.78-32.50L130.78-32.50Q131.38-31.56 133.09-31.56L133.09-31.56L141.47-31.56L141.47-31.56Q141.47-29.81 140.63-28.88L140.63-28.88L140.63-28.88Q139.09-27.19 136.88-27.19L136.88-27.19L136.88-27.19Q135.78-27.19 134.94-27.50L134.94-27.50L134.94-27.50Q133.41-28.13 132.56-28.13L132.56-28.13L132.56-28.13Q131.72-28.13 131.19-27.80L131.19-27.80L131.19-27.80Q130.66-27.47 130.34-26.84L130.34-26.84L130.34-26.84Q129.78-25.72 129.78-21.94L129.78-21.94L129.78-21.94Q129.78-18.16 130.02-14.19L130.02-14.19L130.02-14.19Q130.25-10.22 131.19-7.55L131.19-7.55L131.19-7.55Q132.13-4.88 134.03-3.53L134.03-3.53L134.03-3.53Q135.94-2.19 139.28-2.19L139.28-2.19L139.28-2.19Q139.28-1.22 137.97 0.13L137.97 0.13L137.97 0.13Q137.63 0.50 137.38 0.63L137.38 0.63L137.38 0.63Q131.84 0.63 129.09-0.69L129.09-0.69L129.09-0.69Q125.94-2.25 124.59-6.25L124.59-6.25L124.59-6.25Q123.25-10.31 123.25-18.28L123.25-18.28L123.25-18.28Q123.25-25.25 122.88-26.52L122.88-26.52L122.88-26.52Q122.50-27.78 122.19-28.19L122.19-28.19L122.19-28.19Q121.81-28.66 120.38-29.34L120.38-29.34L120.38-29.34Q122.31-30.81 124.22-34.81L124.22-34.81L125.78-38.09L125.78-38.09Q127.44-41.84 128.61-42.95L128.61-42.95L128.61-42.95Q129.78-44.06 130.84-44.06ZM172.34 0L163.13 0L163.13 0Q164.56-4.94 164.56-16.97L164.56-16.97L164.56-16.97Q164.56-22 164.03-23.67L164.03-23.67L164.03-23.67Q163.50-25.34 162.70-26.11L162.70-26.11L162.70-26.11Q161.91-26.88 160.58-26.88L160.58-26.88L160.58-26.88Q159.25-26.88 158.17-26.38L158.17-26.38L158.17-26.38Q157.09-25.88 156.25-25.06L156.25-25.06L156.25-25.06Q154.66-23.56 153.66-21.06L153.66-21.06L153.66-15.09L153.66-15.09Q153.66-6.31 154-4.22L154-4.22L154-4.22Q154.41-1.47 154.84 0L154.84 0L145.63 0L145.63 0Q146.38-2.63 146.63-6.97L146.63-6.97L146.63-6.97Q147.19-17.84 147.19-22.98L147.19-22.98L147.19-22.98Q147.19-28.13 147.16-30.02L147.16-30.02L147.16-30.02Q147.13-31.91 147.06-33.78L147.06-33.78L147.06-33.78Q146.91-40.59 146.45-42.33L146.45-42.33L146.45-42.33Q146-44.06 145.61-44.86L145.61-44.86L145.61-44.86Q145.22-45.66 144.75-46.31L144.75-46.31L143.69-47.78L155.09-47.78L155.09-47.78Q154.22-44.63 154.08-41.91L154.08-41.91L154.08-41.91Q153.94-39.19 153.88-37.48L153.88-37.48L153.88-37.48Q153.81-35.78 153.75-33.91L153.75-33.91L153.75-33.91Q153.66-29.53 153.66-26.19L153.66-26.19L153.66-26.19Q156.13-30.34 160.19-31.69L160.19-31.69L160.19-31.69Q161.63-32.19 163.41-32.19L163.41-32.19L163.41-32.19Q165.19-32.19 166.64-31.42L166.64-31.42L166.64-31.42Q168.09-30.66 169.06-29.25L169.06-29.25L169.06-29.25Q171.06-26.41 171.06-21.47L171.06-21.47L171.06-18.13L171.06-18.13Q171.06-8.56 171.33-6.14L171.33-6.14L171.33-6.14Q171.59-3.72 171.69-2.94L171.69-2.94L171.69-2.94Q171.91-1.56 172.34 0L172.34 0ZM196.44-45L196.44-45L196.44-45Q191.47-45 191.47-41.31L191.47-41.31L191.47-41.31Q191.47-38.09 194.03-36.19L194.03-36.19L194.03-36.19Q196.50-34.38 200.56-34.38L200.56-34.38L218.78-34.38L218.78-34.38Q221.53-33.91 221.53-28.72L221.53-28.72L221.53-28.72Q221.53-25.97 220.56-24.16L220.56-24.16L220.56-24.16Q218.81-28.06 217.84-29.41L217.84-29.41L217.84-29.41Q216.06-31.88 214.19-31.88L214.19-31.88L214.19-31.88Q212.53-31.88 212.16-30.88L212.16-30.88L212.16-30.88Q211.69-29.66 211.69-26.75L211.69-26.75L211.69-23.16L211.69-23.16Q211.69-21.25 211.78-18.16L211.78-18.16L211.91-12.69L211.91-12.69Q211.97-10.28 212.03-7.47L212.03-7.47L212.03-7.47Q212.13-2.81 213.16 0L213.16 0L213.16 0Q212.75 0.03 212.34 0.03L212.34 0.03L211.59 0.03L211.59 0.03Q202.66 0.03 196.03-3.94L196.03-3.94L196.03-3.94Q190.09-7.44 186.84-13.38L186.84-13.38L186.84-13.38Q183.81-18.84 183.81-24.72L183.81-24.72L183.81-24.72Q183.81-29.75 187.22-32.31L187.22-32.31L187.22-32.31Q188.19-33.06 189.22-33.44L189.22-33.44L189.22-33.44Q185.78-35.75 184.56-39.53L184.56-39.53L184.56-39.53Q184.13-40.88 184.13-42.28L184.13-42.28L184.13-42.28Q184.13-43.69 184.55-44.78L184.55-44.78L184.55-44.78Q184.97-45.88 185.94-46.69L185.94-46.69L185.94-46.69Q188.03-48.44 192.28-48.44L192.28-48.44L192.28-48.44Q193.84-48.44 195.72-48.22L195.72-48.22L195.72-48.22Q199.16-47.81 200.34-47.81L200.34-47.81L200.34-47.81Q203.38-47.81 203.78-50L203.78-50L203.78-50Q204.84-49.53 205.66-46.50L205.66-46.50L205.66-46.50Q206.38-43.88 206.38-41.59L206.38-41.59L206.38-41.59Q206.38-37.66 204.88-36.25L204.88-36.25L204.88-36.25Q204.44-39.53 202.34-42.06L202.34-42.06L202.34-42.06Q199.84-45 196.44-45ZM205.06-13.88L205.03-16.06L205-18.63L205-24.31L205-24.31Q205-28.91 204.42-29.75L204.42-29.75L204.42-29.75Q203.84-30.59 202.98-30.77L202.98-30.77L202.98-30.77Q202.13-30.94 200.66-30.94L200.66-30.94L197.16-30.94L197.16-30.94Q191.81-30.94 191.81-25.80L191.81-25.80L191.81-25.80Q191.81-20.66 192.92-16.84L192.92-16.84L192.92-16.84Q194.03-13.03 195.69-10.47L195.69-10.47L195.69-10.47Q197.34-7.91 199.25-6.61L199.25-6.61L199.25-6.61Q201.16-5.31 202.66-5.31L202.66-5.31L202.66-5.31Q204.16-5.31 204.61-6.38L204.61-6.38L204.61-6.38Q205.06-7.44 205.06-9.19L205.06-9.19L205.06-13.88ZM251.16-50L251.16-50L251.16-50Q252.06-48.72 252.06-46.08L252.06-46.08L252.06-46.08Q252.06-43.44 251.89-41.80L251.89-41.80L251.89-41.80Q251.72-40.16 251.38-38.63L251.38-38.63L251.38-38.63Q250.63-35.19 249.28-33.44L249.28-33.44L249.28-33.44Q248.13-39.47 246.28-42.06L246.28-42.06L246.28-42.06Q244.34-44.69 241.23-44.69L241.23-44.69L241.23-44.69Q238.13-44.69 236.38-43.50L236.38-43.50L236.38-43.50Q234.63-42.31 233.69-40.38L233.69-40.38L233.69-40.38Q232.13-37.16 232.13-30.89L232.13-30.89L232.13-30.89Q232.13-24.63 233.55-19.42L233.55-19.42L233.55-19.42Q234.97-14.22 237.59-10.47L237.59-10.47L237.59-10.47Q243.13-2.50 252-2.50L252-2.50L252-2.50Q251.88-1.09 250.53-0.06L250.53-0.06L250.53-0.06Q250.13 0.25 249.66 0.31L249.66 0.31L249.66 0.31Q238.31 0.31 231.16-8.03L231.16-8.03L231.16-8.03Q223.56-16.91 223.56-32.22L223.56-32.22L223.56-32.22Q223.56-40.22 228.25-44.25L228.25-44.25L228.25-44.25Q232.41-47.81 239.63-47.81L239.63-47.81L244.84-47.75L244.84-47.75Q248.53-47.75 250.03-48.81L250.03-48.81L250.03-48.81Q250.66-49.28 251.16-50ZM271.16-29.06L271.16-29.06Q268.34-29.06 267.11-26.25L267.11-26.25L267.11-26.25Q265.88-23.44 265.88-16.78L265.88-16.78L265.88-16.78Q265.88-2.50 271.16-2.50L271.16-2.50L271.16-2.50Q273.97-2.50 275.20-6.31L275.20-6.31L275.20-6.31Q276.44-10.13 276.44-16.78L276.44-16.78L276.44-16.78Q276.44-23.44 275.20-26.25L275.20-26.25L275.20-26.25Q273.97-29.06 271.16-29.06L271.16-29.06ZM258-17.97L258-17.97Q258-32.19 271.16-32.19L271.16-32.19L271.16-32.19Q284.31-32.19 284.31-17.97L284.31-17.97L284.31-17.97Q284.31-9.34 280.69-4.31L280.69-4.31L280.69-4.31Q277.16 0.63 271.16 0.63L271.16 0.63L271.16 0.63Q265.16 0.63 261.63-4.31L261.63-4.31L261.63-4.31Q258-9.34 258-17.97L258-17.97Z" 
        fill="#ccc"
      ></path>
    </g>
  </g>
  <style>
    text {
      font-size: 64px;
      font-family: Arial Black;
      dominant-baseline: central;
      text-anchor: middle;
    }
  </style>
</svg>
