<svg 
  width="318.34999999999997px" 
  height="124.67750549316406px" 
  xmlns="http://www.w3.org/2000/svg" 
  viewBox="90.82500000000002 12.661247253417969 318.34999999999997 124.67750549316406" 
  style="background: rgba(0, 0, 0, 0);" 
  preserveAspectRatio="xMidYMid"
>
  <defs>
    <filter 
      id="editing-hole" 
      x="-100%" 
      y="-100%" 
      width="300%" 
      height="300%"
    >
      <feFlood 
        flood-color="#000000" 
        result="black"
      ></feFlood>
      <feMorphology 
        operator="dilate" 
        radius="2" 
        in="SourceGraphic" 
        result="erode"
      ></feMorphology>
      <feGaussianBlur 
        in="erode" 
        stdDeviation="4" 
        result="blur"
      ></feGaussianBlur>
      <feOffset 
        in="blur" 
        dx="2" 
        dy="2" 
        result="offset"
      ></feOffset>
      <feComposite 
        operator="atop" 
        in="offset" 
        in2="black"
        result="merge"
      ></feComposite>
      <feComposite 
        operator="in" 
        in="merge" 
        in2="SourceGraphic" 
        result="inner-shadow"
      ></feComposite>
    </filter>
  </defs>
  <g filter="url(#editing-hole)">
    <g transform="translate(140.30999755859375, 105.93999862670898)">
      <path
        d="M12.50-34.38L12.50-12.81L12.50-12.81Q12.50-8.63 14.75-6.03L14.75-6.03L14.75-6.03Q17.53-2.81 22.03-2.81L22.03-2.81L22.03-2.81Q26.53-2.81 29.31-6.03L29.31-6.03L29.31-6.03Q31.56-8.63 31.56-12.81L31.56-12.81L31.56-34.38L31.56-34.38Q31.56-38.56 29.31-41.16L29.31-41.16L29.31-41.16Q26.53-44.38 22.03-44.38L22.03-44.38L22.03-44.38Q17.53-44.38 14.75-41.16L14.75-41.16L14.75-41.16Q12.50-38.56 12.50-34.38L12.50-34.38ZM6.25-15L6.25-15L6.25-32.19L6.25-32.19Q6.25-38.97 10.47-43.28L10.47-43.28L10.47-43.28Q14.91-47.81 22.03-47.81L22.03-47.81L22.03-47.81Q29.16-47.81 33.59-43.28L33.59-43.28L33.59-43.28Q37.81-39 37.81-32.19L37.81-32.19L37.81-15L37.81-15Q37.81-8.22 33.59-3.91L33.59-3.91L33.59-3.91Q29.16 0.63 22.03 0.63L22.03 0.63L22.03 0.63Q14.91 0.63 10.47-3.91L10.47-3.91L10.47-3.91Q6.25-8.22 6.25-15ZM49.06 1.25L48.75 1.25L48.75-22.50L48.75-22.50Q48.75-27.66 52.63-31.47L52.63-31.47L52.63-31.47Q56.25-35 61.72-35L61.72-35L65.94-35L65.94-34.69L64.44-31.56L61.72-31.56L61.72-31.56Q58.91-31.56 56.95-29.89L56.95-29.89L56.95-29.89Q55-28.22 55-24.63L55-24.63L55-1.56L49.06 1.25ZM77.50-24.63L77.50-9.75L77.50-9.75Q77.50-6.16 79.45-4.48L79.45-4.48L79.45-4.48Q81.41-2.81 84.22-2.81L84.22-2.81L84.22-2.81Q87.03-2.81 88.98-4.48L88.98-4.48L88.98-4.48Q90.94-6.16 90.94-9.75L90.94-9.75L90.94-24.63L90.94-24.63Q90.94-28.22 88.98-29.89L88.98-29.89L88.98-29.89Q87.03-31.56 84.22-31.56L84.22-31.56L84.22-31.56Q81.41-31.56 79.45-29.89L79.45-29.89L79.45-29.89Q77.50-28.22 77.50-24.63L77.50-24.63ZM71.25-11.88L71.25-11.88L71.25-22.50L71.25-22.50Q71.25-27.66 75.13-31.47L75.13-31.47L75.13-31.47Q78.75-35 84.22-35L84.22-35L84.22-35Q89.69-35 93.31-31.47L93.31-31.47L93.31-31.47Q97.19-27.69 97.19-22.50L97.19-22.50L97.19 0.94L97.19 0.94Q97.19 6.09 93.31 9.91L93.31 9.91L93.31 9.91Q89.69 13.44 84.22 13.44L84.22 13.44L74.59 13.44L74.59 13.13L76.09 10L84.22 10L84.22 10Q87.03 10 89 8.31L89 8.31L89 8.31Q90.94 6.69 90.94 3.06L90.94 3.06L90.94-2.03L90.94-2.03Q88.56 0.63 84.22 0.63L84.22 0.63L84.22 0.63Q78.81 0.63 75.13-2.91L75.13-2.91L75.13-2.91Q71.25-6.66 71.25-11.88ZM115.31-24.34L115.31-3.44L124.22-3.44L124.22-3.44Q128.94-3.44 131.72-6.41L131.72-6.41L131.72-6.41Q133.75-8.56 133.75-14.28L133.75-14.28L133.75-14.28Q133.75-18.91 131.59-21.47L131.59-21.47L131.59-21.47Q129.19-24.34 124.22-24.34L124.22-24.34L115.31-24.34ZM115.31-43.75L115.31-27.78L124.22-27.78L124.22-27.78Q127.34-27.78 129.25-29.81L129.25-29.81L129.25-29.81Q130.94-31.63 130.94-35.69L130.94-35.69L130.94-35.69Q130.94-40.38 128.91-42.16L128.91-42.16L128.91-42.16Q127.09-43.75 124.22-43.75L124.22-43.75L115.31-43.75ZM124.22 0L109.06 0L109.06-45.63L112.38-47.19L124.22-47.19L124.22-47.19Q129.50-47.19 133-44.31L133-44.31L133-44.31Q137.16-40.94 137.16-35.66L137.16-35.66L137.16-35.66Q137.16-30.28 132.41-26.72L132.41-26.72L132.41-26.72Q133.94-26.06 135.44-24.75L135.44-24.75L135.44-24.75Q140-20.59 140-14.44L140-14.44L140-14.44Q140-8.25 136-4.28L136-4.28L136-4.28Q131.72 0 124.22 0L124.22 0ZM178.06 0L151.88 0L151.88-45.63L157.81-48.44L158.13-48.44L158.13-3.44L179.53-3.44L179.53-3.13L178.06 0ZM197.34 0L182.19 0L182.19-45.63L185.50-47.19L197.34-47.19L197.34-47.19Q204.47-47.19 208.91-42.66L208.91-42.66L208.91-42.66Q213.13-38.38 213.13-31.56L213.13-31.56L213.13-15.63L213.13-15.63Q213.13-8.84 208.91-4.53L208.91-4.53L208.91-4.53Q204.47 0 197.34 0L197.34 0ZM188.44-43.75L188.44-3.44L197.34-3.44L197.34-3.44Q201.63-3.44 204.63-6.66L204.63-6.66L204.63-6.66Q206.88-9.06 206.88-13.44L206.88-13.44L206.88-33.75L206.88-33.75Q206.88-37.91 204.63-40.53L204.63-40.53L204.63-40.53Q201.84-43.75 197.34-43.75L197.34-43.75L188.44-43.75Z" 
        fill="#515151"
      ></path>
    </g>
  </g>
  <style>
    text {
      font-size: 64px;
      font-family: Arial Black;
      dominant-baseline: central;
      text-anchor: middle;
    }
  </style>
</svg>
