<svg 
  width="416.6100341796875px" 
  height="164.96750183105468px" 
  xmlns="http://www.w3.org/2000/svg" 
  viewBox="41.694982910156256 -7.483750915527338 416.6100341796875 164.96750183105468" 
  style="background: rgba(0, 0, 0, 0);" 
  preserveAspectRatio="xMidYMid"
>
  <defs>
    <filter 
      id="editing-hole" 
      x="-100%" 
      y="-100%" 
      width="300%" 
      height="300%"
    >
      <feFlood flood-color="#000" result="black"></feFlood>
      <feMorphology 
        operator="dilate" 
        radius="2" 
        in="SourceGraphic" 
        result="erode"
      ></feMorphology>
      <feGaussianBlur 
        in="erode" 
        stdDeviation="4" 
        result="blur"
      ></feGaussianBlur>
      <feOffset 
        in="blur" 
        dx="2" 
        dy="2" 
        result="offset"
      ></feOffset>
      <feComposite 
        operator="atop" 
        in="offset" 
        in2="black" 
        result="merge"
      ></feComposite>
      <feComposite 
        operator="in" 
        in="merge" 
        in2="SourceGraphic" 
        result="inner-shadow"
      ></feComposite>
    </filter>
  </defs>
  <g filter="url(#editing-hole)">
    <g transform="translate(104.22000122070312, 100.10029411315918)">
      <path 
        d="M28.50-35.69L28.50-35.69L28.50-35.69Q27.94-34.31 27.53-33.19L27.53-33.19L27.53-33.19Q27.13-32.06 26.81-31.19L26.81-31.19L26.81-31.19Q26.50-30.19 26.25-29.44L26.25-29.44L26.25-29.44Q26-28.56 25.69-27.44L25.69-27.44L25.69-27.44Q25.38-26.44 24.91-24.97L24.91-24.97L24.91-24.97Q24.44-23.50 23.81-21.50L23.81-21.50L23.81-21.50Q23.31-24.50 22-26.28L22-26.28L22-26.28Q20.69-28.06 19.31-29.06L19.31-29.06L19.31-29.06Q17.69-30.19 15.81-30.69L15.81-30.69L15.81-30.69Q12.44-31.25 10.94-30.56L10.94-30.56L10.94-30.56Q9.44-29.88 8.94-28.81L8.94-28.81L8.94-28.81Q8.69-28.38 8.41-27.72L8.41-27.72L8.41-27.72Q8.13-27.06 7.97-26.38L7.97-26.38L7.97-26.38Q7.81-25.69 7.88-25L7.88-25L7.88-25Q7.94-24.31 8.44-23.88L8.44-23.88L8.44-23.88Q8.75-23.56 10.06-23.03L10.06-23.03L10.06-23.03Q11.38-22.50 13.22-21.84L13.22-21.84L13.22-21.84Q15.06-21.19 17.16-20.44L17.16-20.44L17.16-20.44Q19.25-19.69 21.13-18.94L21.13-18.94L21.13-18.94Q23-18.19 24.38-17.44L24.38-17.44L24.38-17.44Q25.75-16.69 26.19-16.06L26.19-16.06L26.19-16.06Q26.56-15.44 27.03-14.41L27.03-14.41L27.03-14.41Q27.50-13.38 27.72-12.16L27.72-12.16L27.72-12.16Q27.94-10.94 27.84-9.66L27.84-9.66L27.84-9.66Q27.75-8.38 27.13-7.13L27.13-7.13L27.13-7.13Q26.50-5.88 25.16-4.81L25.16-4.81L25.16-4.81Q23.81-3.75 21.56-3.06L21.56-3.06L21.56-3.06Q18.94-2.25 16.50-2.63L16.50-2.63L16.50-2.63Q14.06-3 12.03-3.75L12.03-3.75L12.03-3.75Q10-4.50 8.50-5.22L8.50-5.22L8.50-5.22Q7-5.94 6.38-5.81L6.38-5.81L6.38-5.81Q5.69-5.69 4.81-5.13L4.81-5.13L4.81-5.13Q3.94-4.56 3.16-3.97L3.16-3.97L3.16-3.97Q2.38-3.38 1.81-2.91L1.81-2.91L1.81-2.91Q1.25-2.44 1.25-2.56L1.25-2.56L1.25-2.56Q1.25-2.69 1.47-3.31L1.47-3.31L1.47-3.31Q1.69-3.94 1.97-4.84L1.97-4.84L1.97-4.84Q2.25-5.75 2.53-6.84L2.53-6.84L2.53-6.84Q2.81-7.94 2.94-8.94L2.94-8.94L2.94-8.94Q3.06-9.75 3.25-10.94L3.25-10.94L3.25-10.94Q3.38-12 3.59-13.53L3.59-13.53L3.59-13.53Q3.81-15.06 4.13-17.25L4.13-17.25L4.13-17.25Q4.44-15.63 5.03-14.44L5.03-14.44L5.03-14.44Q5.63-13.25 6.19-12.38L6.19-12.38L6.19-12.38Q6.88-11.38 7.50-10.69L7.50-10.69L7.50-10.69Q8.44-9.81 9.72-9.06L9.72-9.06L9.72-9.06Q11-8.31 12.31-7.78L12.31-7.78L12.31-7.78Q13.63-7.25 14.81-7.13L14.81-7.13L14.81-7.13Q16-7 16.81-7.38L16.81-7.38L16.81-7.38Q17.63-7.75 18.22-8.75L18.22-8.75L18.22-8.75Q18.81-9.75 19.06-10.94L19.06-10.94L19.06-10.94Q19.31-12.13 19.25-13.22L19.25-13.22L19.25-13.22Q19.19-14.31 18.69-15L18.69-15L18.69-15Q18.31-15.44 16.97-16.13L16.97-16.13L16.97-16.13Q15.63-16.81 13.78-17.63L13.78-17.63L13.78-17.63Q11.94-18.44 9.91-19.31L9.91-19.31L9.91-19.31Q7.88-20.19 6.09-21.09L6.09-21.09L6.09-21.09Q4.31-22 3.16-22.84L3.16-22.84L3.16-22.84Q2-23.69 1.88-24.38L1.88-24.38L1.88-24.38Q1.75-25.38 1.69-26.59L1.69-26.59L1.69-26.59Q1.63-27.81 1.84-29.03L1.84-29.03L1.84-29.03Q2.06-30.25 2.72-31.38L2.72-31.38L2.72-31.38Q3.38-32.50 4.69-33.25L4.69-33.25L4.69-33.25Q5.56-33.75 7-34L7-34L7-34Q8.44-34.25 10.19-34.28L10.19-34.28L10.19-34.28Q11.94-34.31 13.81-34.16L13.81-34.16L13.81-34.16Q15.69-34 17.41-33.78L17.41-33.78L17.41-33.78Q19.13-33.56 20.53-33.25L20.53-33.25L20.53-33.25Q21.94-32.94 22.69-32.69L22.69-32.69L22.69-32.69Q23.56-32.38 24.56-32.63L24.56-32.63L24.56-32.63Q25.44-32.81 26.44-33.44L26.44-33.44L26.44-33.44Q27.44-34.06 28.50-35.69ZM31.06-28.75L31.06-28.75L31.06-28.75Q32.69-28.44 33.91-28.28L33.91-28.28L33.91-28.28Q35.13-28.13 36-28L36-28L36-28Q37-27.88 37.75-27.81L37.75-27.81L37.75-27.81Q38.50-27.75 39.50-27.69L39.50-27.69L39.50-27.69Q41.19-27.63 44.25-27.69L44.25-27.69L44.25-27.69Q42.44-27.81 41.41-26.78L41.41-26.78L41.41-26.78Q40.38-25.75 39.88-24.44L39.88-24.44L39.88-24.44Q39.25-22.88 39.19-20.81L39.19-20.81L39.19-20.81Q39.06-18.06 39.34-15.84L39.34-15.84L39.34-15.84Q39.63-13.63 40.41-12.09L40.41-12.09L40.41-12.09Q41.19-10.56 42.50-9.84L42.50-9.84L42.50-9.84Q43.81-9.13 45.88-9.44L45.88-9.44L45.88-9.44Q47.94-9.75 49.03-10.91L49.03-10.91L49.03-10.91Q50.13-12.06 50.63-13.78L50.63-13.78L50.63-13.78Q51.13-15.50 51.22-17.69L51.22-17.69L51.22-17.69Q51.31-19.88 51.38-22.25L51.38-22.25L51.38-22.25Q51.38-24.63 51.34-25.66L51.34-25.66L51.34-25.66Q51.31-26.69 51.25-27L51.25-27L51.25-27Q51.19-27.31 51.06-27.28L51.06-27.28L51.06-27.28Q50.94-27.25 50.75-27.56L50.75-27.56L50.75-27.56Q50.63-27.81 50.38-28.06L50.38-28.06L50.38-28.06Q50.19-28.31 49.88-28.66L49.88-28.66L49.88-28.66Q49.56-29 49.19-29.38L49.19-29.38L49.19-29.38Q50.81-29.31 52.09-29.28L52.09-29.28L52.09-29.28Q53.38-29.25 54.25-29.19L54.25-29.19L54.25-29.19Q55.25-29.13 56-29.06L56-29.06L56-29.06Q56.69-29 57.81-28.88L57.81-28.88L57.81-28.88Q58.75-28.75 60.25-28.63L60.25-28.63L60.25-28.63Q61.75-28.50 63.81-28.25L63.81-28.25L63.81-28.25Q62.38-27.94 61.50-27.31L61.50-27.31L61.50-27.31Q60.63-26.69 60.13-26.06L60.13-26.06L60.13-26.06Q59.56-25.38 59.31-24.56L59.31-24.56L59.31-24.56Q59.13-23.50 59.31-21.31L59.31-21.31L59.31-21.31Q59.44-19.38 59.94-16L59.94-16L59.94-16Q60.44-12.63 61.50-7.13L61.50-7.13L56.56-4.19L55.56-12.50L55.56-12.50Q53.75-9.44 51.72-7.78L51.72-7.78L51.72-7.78Q49.69-6.13 47.94-5.38L47.94-5.38L47.94-5.38Q45.88-4.50 43.94-4.38L43.94-4.38L43.94-4.38Q41.38-4.38 39.53-4.72L39.53-4.72L39.53-4.72Q37.69-5.06 36.38-5.63L36.38-5.63L36.38-5.63Q35.06-6.19 34.28-6.91L34.28-6.91L34.28-6.91Q33.50-7.63 33.13-8.38L33.13-8.38L33.13-8.38Q32.25-9.94 32.19-12.41L32.19-12.41L32.19-12.41Q32.13-14.88 32.38-17.34L32.38-17.34L32.38-17.34Q32.63-19.81 32.94-21.88L32.94-21.88L32.94-21.88Q33.25-23.94 33.13-24.69L33.13-24.69L33.13-24.69Q33-25.25 32.75-25.94L32.75-25.94L32.75-25.94Q32.50-26.50 32.13-27.22L32.13-27.22L32.13-27.22Q31.75-27.94 31.06-28.75ZM66.69-6.88L66.69-6.88L66.69-6.88Q67.13-8.94 67.34-10.53L67.34-10.53L67.34-10.53Q67.56-12.13 67.69-13.19L67.69-13.19L67.69-13.19Q67.81-14.44 67.81-15.31L67.81-15.31L67.81-15.31Q67.75-16.38 67.72-17.84L67.72-17.84L67.72-17.84Q67.69-19.31 67.59-20.78L67.59-20.78L67.59-20.78Q67.50-22.25 67.38-23.41L67.38-23.41L67.38-23.41Q67.25-24.56 67.06-25.06L67.06-25.06L67.06-25.06Q66.81-25.56 66.38-26.13L66.38-26.13L66.38-26.13Q65.50-27.19 63.81-28.19L63.81-28.19L63.81-28.19Q65.25-28.50 66.28-28.72L66.28-28.72L66.28-28.72Q67.31-28.94 68-29.13L68-29.13L68-29.13Q68.75-29.38 69.31-29.56L69.31-29.56L69.31-29.56Q69.81-29.75 70.50-29.94L70.50-29.94L70.50-29.94Q71.06-30.06 71.88-30.25L71.88-30.25L71.88-30.25Q72.69-30.44 73.75-30.69L73.75-30.69L73.56-25L73.56-25Q75.56-27.38 77.63-28.56L77.63-28.56L77.63-28.56Q79.69-29.75 81.50-30.25L81.50-30.25L81.50-30.25Q83.56-30.88 85.56-30.88L85.56-30.88L85.56-30.88Q88.06-30.75 90.22-30.06L90.22-30.06L90.22-30.06Q92.38-29.38 93.97-28.47L93.97-28.47L93.97-28.47Q95.56-27.56 96.56-26.56L96.56-26.56L96.56-26.56Q97.56-25.56 97.75-24.81L97.75-24.81L97.75-24.81Q98.50-22.38 98.13-20.34L98.13-20.34L98.13-20.34Q97.75-18.31 97.16-16.41L97.16-16.41L97.16-16.41Q96.56-14.50 96.16-12.63L96.16-12.63L96.16-12.63Q95.75-10.75 96.44-8.56L96.44-8.56L96.44-8.56Q96.69-8 96.94-7.44L96.94-7.44L96.94-7.44Q97.19-6.94 97.56-6.44L97.56-6.44L97.56-6.44Q97.94-5.94 98.44-5.63L98.44-5.63L98.44-5.63Q97.75-5.69 97.06-5.72L97.06-5.72L97.06-5.72Q96.38-5.75 95.81-5.81L95.81-5.81L95.81-5.81Q95.13-5.88 94.56-5.94L94.56-5.94L94.56-5.94Q93.94-6 92.88-6L92.88-6L92.88-6Q91.06-6 87.25-5.81L87.25-5.81L87.25-5.81Q87.81-7.13 88.16-8.03L88.16-8.03L88.16-8.03Q88.50-8.94 88.75-9.50L88.75-9.50L88.75-9.50Q89-10.19 89.13-10.56L89.13-10.56L89.13-10.56Q89.88-12.38 90.03-14.69L90.03-14.69L90.03-14.69Q90.19-17 89.69-19.38L89.69-19.38L89.69-19.38Q89.50-20.19 89.06-21.31L89.06-21.31L89.06-21.31Q88.63-22.44 87.91-23.50L87.91-23.50L87.91-23.50Q87.19-24.56 86.22-25.31L86.22-25.31L86.22-25.31Q85.25-26.06 84-26.19L84-26.19L84-26.19Q82.75-26.31 81.22-25.56L81.22-25.56L81.22-25.56Q79.69-24.81 77.94-22.81L77.94-22.81L77.94-22.81Q76.63-21.13 75.88-18.69L75.88-18.69L75.88-18.69Q75.19-16.63 74.94-13.53L74.94-13.53L74.94-13.53Q74.69-10.44 75.69-6.31L75.69-6.31L75.69-6.31Q74.81-6.44 74.06-6.47L74.06-6.47L74.06-6.47Q73.31-6.50 72.81-6.56L72.81-6.56L72.81-6.56Q72.19-6.63 71.69-6.69L71.69-6.69L71.69-6.69Q71.13-6.69 70.44-6.75L70.44-6.75L70.44-6.75Q69.81-6.75 68.88-6.78L68.88-6.78L68.88-6.78Q67.94-6.81 66.69-6.88ZM126.69-24L126.69-24L126.69-24Q127.94-23.94 129.13-23.97L129.13-23.97L129.13-23.97Q130.31-24 131.25-24.06L131.25-24.06L131.25-24.06Q132.31-24.13 133.25-24.25L133.25-24.25L135.69-24.44L135.69-24.44Q136.94-24.50 138.75-24.56L138.75-24.56L138.75-24.56Q140.56-24.63 143.13-24.69L143.13-24.69L143.13-24.69Q141.75-24.19 140.78-23.56L140.78-23.56L140.78-23.56Q139.81-22.94 139.19-22.44L139.19-22.44L139.19-22.44Q138.50-21.81 138-21.25L138-21.25L138-21.25Q137.44-20.50 136.84-19.34L136.84-19.34L136.84-19.34Q136.25-18.19 135.56-16.94L135.56-16.94L135.56-16.94Q134.88-15.69 134.09-14.41L134.09-14.41L134.09-14.41Q133.31-13.13 132.38-12.13L132.38-12.13L132.38-12.13Q131.81-11.50 131.19-10.81L131.19-10.81L131.19-10.81Q130.69-10.19 130-9.44L130-9.44L130-9.44Q129.31-8.69 128.63-8L128.63-8L128.63-8Q130.19-6.25 131.47-5.06L131.47-5.06L131.47-5.06Q132.75-3.88 133.63-3.19L133.63-3.19L133.63-3.19Q134.69-2.31 135.44-1.81L135.44-1.81L135.44-1.81Q136.19-1.31 137.19-0.81L137.19-0.81L137.19-0.81Q138-0.38 139.13 0.13L139.13 0.13L139.13 0.13Q140.25 0.63 141.63 1.13L141.63 1.13L141.63 1.13Q134.69 1.63 130.88 1.84L130.88 1.84L130.88 1.84Q127.06 2.06 125.31 2.19L125.31 2.19L125.31 2.19Q123.25 2.38 122.81 2.38L122.81 2.38L122.81 2.38Q122.69 2.44 123.06 2.16L123.06 2.16L123.06 2.16Q123.44 1.88 123.94 1.41L123.94 1.41L123.94 1.41Q124.44 0.94 124.88 0.34L124.88 0.34L124.88 0.34Q125.31-0.25 125.31-0.88L125.31-0.88L125.31-0.88Q125.31-1.38 125.25-1.94L125.25-1.94L125.25-1.94Q125.19-2.44 125.06-3.06L125.06-3.06L125.06-3.06Q124.94-3.69 124.63-4.38L124.63-4.38L124.63-4.38Q123.38-2.38 121.50-1.38L121.50-1.38L121.50-1.38Q119.63-0.38 117.88 0.06L117.88 0.06L117.88 0.06Q115.81 0.56 113.69 0.50L113.69 0.50L113.69 0.50Q107.94 0.13 105.78-2.44L105.78-2.44L105.78-2.44Q103.63-5 103.94-9.94L103.94-9.94L103.94-9.94Q104.19-11.88 105.13-14.19L105.13-14.19L105.13-14.19Q105.94-16.19 107.53-18.75L107.53-18.75L107.53-18.75Q109.13-21.31 112.06-24.31L112.06-24.31L112.06-24.31Q108.94-27.94 107.41-30.84L107.41-30.84L107.41-30.84Q105.88-33.75 105.25-35.81L105.25-35.81L105.25-35.81Q104.56-38.25 104.69-40.06L104.69-40.06L104.69-40.06Q105.13-42.88 106.34-44.25L106.34-44.25L106.34-44.25Q107.56-45.63 109.16-46.13L109.16-46.13L109.16-46.13Q110.75-46.63 112.56-46.63L112.56-46.63L112.56-46.63Q114.38-46.63 115.94-46.75L115.94-46.75L115.94-46.75Q117.50-46.88 119.53-46.72L119.53-46.72L119.53-46.72Q121.56-46.56 123.44-46.09L123.44-46.09L123.44-46.09Q125.31-45.63 126.75-44.78L126.75-44.78L126.75-44.78Q128.19-43.94 128.63-42.69L128.63-42.69L128.63-42.69Q129.06-41.44 129.25-40.28L129.25-40.28L129.25-40.28Q129.44-39.13 129.16-37.88L129.16-37.88L129.16-37.88Q128.88-36.63 127.94-35.22L127.94-35.22L127.94-35.22Q127-33.81 125.25-32.13L125.25-32.13L125.25-32.13Q123.94-30.69 122.63-29.38L122.63-29.38L122.63-29.38Q121.50-28.25 120.13-27L120.13-27L120.13-27Q118.75-25.75 117.50-24.81L117.50-24.81L117.50-24.81Q118.13-23.63 118.81-22.53L118.81-22.53L118.81-22.53Q119.50-21.44 120.06-20.56L120.06-20.56L120.06-20.56Q120.75-19.50 121.38-18.56L121.38-18.56L121.38-18.56Q122.13-17.31 122.97-16.13L122.97-16.13L122.97-16.13Q123.81-14.94 124.53-14.06L124.53-14.06L124.53-14.06Q125.25-13.19 125.75-12.69L125.75-12.69L125.75-12.69Q126.25-12.19 126.38-12.31L126.38-12.31L126.38-12.31Q126.44-12.44 126.97-13.50L126.97-13.50L126.97-13.50Q127.50-14.56 128.16-15.91L128.16-15.91L128.16-15.91Q128.81-17.25 129.34-18.56L129.34-18.56L129.34-18.56Q129.88-19.88 130-20.50L130-20.50L130-20.50Q129.94-21 129.63-21.63L129.63-21.63L129.63-21.63Q129.31-22.13 128.66-22.72L128.66-22.72L128.66-22.72Q128-23.31 126.69-24ZM114.56-29.31L114.56-29.31L114.56-29.31Q117.69-32.88 119.13-35.06L119.13-35.06L119.13-35.06Q120.56-37.25 121.06-38.50L121.06-38.50L121.06-38.50Q121.69-39.94 121.38-40.63L121.38-40.63L121.38-40.63Q120.81-41.31 119.63-41.88L119.63-41.88L119.63-41.88Q118.44-42.44 117.06-42.47L117.06-42.47L117.06-42.47Q115.69-42.50 114.28-41.91L114.28-41.91L114.28-41.91Q112.88-41.31 111.88-39.63L111.88-39.63L111.88-39.63Q111.50-38.81 111.63-37.38L111.63-37.38L111.63-37.38Q111.75-36.13 112.34-34.19L112.34-34.19L112.34-34.19Q112.94-32.25 114.56-29.31ZM113.31-9.75L113.31-9.75L113.31-9.75Q114.13-8.56 115.31-8.13L115.31-8.13L115.31-8.13Q116.38-7.69 118.03-7.94L118.03-7.94L118.03-7.94Q119.69-8.19 122.06-9.81L122.06-9.81L122.06-9.81Q121.13-11.06 120.44-12.09L120.44-12.09L120.44-12.09Q119.75-13.13 119.25-13.81L119.25-13.81L119.25-13.81Q118.69-14.63 118.31-15.19L118.31-15.19L118.31-15.19Q117.94-15.75 117.38-16.56L117.38-16.56L117.38-16.56Q116.88-17.25 116.19-18.25L116.19-18.25L116.19-18.25Q115.50-19.25 114.56-20.63L114.56-20.63L114.56-20.63Q112.56-18.25 112.03-15.59L112.03-15.59L112.03-15.59Q111.50-12.94 113.31-9.75ZM166.50-35.69L166.50-35.69L166.50-35.69Q165.94-34.31 165.53-33.19L165.53-33.19L165.53-33.19Q165.13-32.06 164.81-31.19L164.81-31.19L164.81-31.19Q164.50-30.19 164.25-29.44L164.25-29.44L164.25-29.44Q164-28.56 163.69-27.44L163.69-27.44L163.69-27.44Q163.38-26.44 162.91-24.97L162.91-24.97L162.91-24.97Q162.44-23.50 161.81-21.50L161.81-21.50L161.81-21.50Q161.31-24.50 160-26.28L160-26.28L160-26.28Q158.69-28.06 157.31-29.06L157.31-29.06L157.31-29.06Q155.69-30.19 153.81-30.69L153.81-30.69L153.81-30.69Q150.44-31.25 148.94-30.56L148.94-30.56L148.94-30.56Q147.44-29.88 146.94-28.81L146.94-28.81L146.94-28.81Q146.69-28.38 146.41-27.72L146.41-27.72L146.41-27.72Q146.13-27.06 145.97-26.38L145.97-26.38L145.97-26.38Q145.81-25.69 145.88-25L145.88-25L145.88-25Q145.94-24.31 146.44-23.88L146.44-23.88L146.44-23.88Q146.75-23.56 148.06-23.03L148.06-23.03L148.06-23.03Q149.38-22.50 151.22-21.84L151.22-21.84L151.22-21.84Q153.06-21.19 155.16-20.44L155.16-20.44L155.16-20.44Q157.25-19.69 159.13-18.94L159.13-18.94L159.13-18.94Q161-18.19 162.38-17.44L162.38-17.44L162.38-17.44Q163.75-16.69 164.19-16.06L164.19-16.06L164.19-16.06Q164.56-15.44 165.03-14.41L165.03-14.41L165.03-14.41Q165.50-13.38 165.72-12.16L165.72-12.16L165.72-12.16Q165.94-10.94 165.84-9.66L165.84-9.66L165.84-9.66Q165.75-8.38 165.13-7.13L165.13-7.13L165.13-7.13Q164.50-5.88 163.16-4.81L163.16-4.81L163.16-4.81Q161.81-3.75 159.56-3.06L159.56-3.06L159.56-3.06Q156.94-2.25 154.50-2.63L154.50-2.63L154.50-2.63Q152.06-3 150.03-3.75L150.03-3.75L150.03-3.75Q148-4.50 146.50-5.22L146.50-5.22L146.50-5.22Q145-5.94 144.38-5.81L144.38-5.81L144.38-5.81Q143.69-5.69 142.81-5.13L142.81-5.13L142.81-5.13Q141.94-4.56 141.16-3.97L141.16-3.97L141.16-3.97Q140.38-3.38 139.81-2.91L139.81-2.91L139.81-2.91Q139.25-2.44 139.25-2.56L139.25-2.56L139.25-2.56Q139.25-2.69 139.47-3.31L139.47-3.31L139.47-3.31Q139.69-3.94 139.97-4.84L139.97-4.84L139.97-4.84Q140.25-5.75 140.53-6.84L140.53-6.84L140.53-6.84Q140.81-7.94 140.94-8.94L140.94-8.94L140.94-8.94Q141.06-9.75 141.25-10.94L141.25-10.94L141.25-10.94Q141.38-12 141.59-13.53L141.59-13.53L141.59-13.53Q141.81-15.06 142.13-17.25L142.13-17.25L142.13-17.25Q142.44-15.63 143.03-14.44L143.03-14.44L143.03-14.44Q143.63-13.25 144.19-12.38L144.19-12.38L144.19-12.38Q144.88-11.38 145.50-10.69L145.50-10.69L145.50-10.69Q146.44-9.81 147.72-9.06L147.72-9.06L147.72-9.06Q149-8.31 150.31-7.78L150.31-7.78L150.31-7.78Q151.63-7.25 152.81-7.13L152.81-7.13L152.81-7.13Q154-7 154.81-7.38L154.81-7.38L154.81-7.38Q155.63-7.75 156.22-8.75L156.22-8.75L156.22-8.75Q156.81-9.75 157.06-10.94L157.06-10.94L157.06-10.94Q157.31-12.13 157.25-13.22L157.25-13.22L157.25-13.22Q157.19-14.31 156.69-15L156.69-15L156.69-15Q156.31-15.44 154.97-16.13L154.97-16.13L154.97-16.13Q153.63-16.81 151.78-17.63L151.78-17.63L151.78-17.63Q149.94-18.44 147.91-19.31L147.91-19.31L147.91-19.31Q145.88-20.19 144.09-21.09L144.09-21.09L144.09-21.09Q142.31-22 141.16-22.84L141.16-22.84L141.16-22.84Q140-23.69 139.88-24.38L139.88-24.38L139.88-24.38Q139.75-25.38 139.69-26.59L139.69-26.59L139.69-26.59Q139.63-27.81 139.84-29.03L139.84-29.03L139.84-29.03Q140.06-30.25 140.72-31.38L140.72-31.38L140.72-31.38Q141.38-32.50 142.69-33.25L142.69-33.25L142.69-33.25Q143.56-33.75 145-34L145-34L145-34Q146.44-34.25 148.19-34.28L148.19-34.28L148.19-34.28Q149.94-34.31 151.81-34.16L151.81-34.16L151.81-34.16Q153.69-34 155.41-33.78L155.41-33.78L155.41-33.78Q157.13-33.56 158.53-33.25L158.53-33.25L158.53-33.25Q159.94-32.94 160.69-32.69L160.69-32.69L160.69-32.69Q161.56-32.38 162.56-32.63L162.56-32.63L162.56-32.63Q163.44-32.81 164.44-33.44L164.44-33.44L164.44-33.44Q165.44-34.06 166.50-35.69ZM168.44-47.38L168.44-47.38L168.44-47.38Q169.88-47.13 171.06-47.03L171.06-47.03L171.06-47.03Q172.25-46.94 173.06-46.88L173.06-46.88L173.06-46.88Q174-46.81 174.69-46.81L174.69-46.81L174.69-46.81Q175.63-46.88 176.88-47L176.88-47L176.88-47Q177.94-47.13 179.47-47.31L179.47-47.31L179.47-47.31Q181-47.50 183-47.81L183-47.81L183-47.81Q182.06-47.31 181.44-46.84L181.44-46.84L181.44-46.84Q180.81-46.38 180.44-45.88L180.44-45.88L180.44-45.88Q180-45.31 179.75-44.81L179.75-44.81L179.75-44.81Q179.44-44 179.06-41.44L179.06-41.44L179.06-41.44Q178.69-39.25 178.16-34.94L178.16-34.94L178.16-34.94Q177.63-30.63 176.81-23.25L176.81-23.25L176.81-23.25Q179.06-25.50 181.09-26.66L181.09-26.66L181.09-26.66Q183.13-27.81 184.69-28.31L184.69-28.31L184.69-28.31Q186.50-28.88 188.06-28.88L188.06-28.88L188.06-28.88Q190-28.69 192.03-27.66L192.03-27.66L192.03-27.66Q194.06-26.63 195.84-25.25L195.84-25.25L195.84-25.25Q197.63-23.88 198.97-22.31L198.97-22.31L198.97-22.31Q200.31-20.75 200.88-19.56L200.88-19.56L200.88-19.56Q201.25-18.75 201.25-17.47L201.25-17.47L201.25-17.47Q201.25-16.19 201-14.69L201-14.69L201-14.69Q200.75-13.19 200.31-11.63L200.31-11.63L200.31-11.63Q199.88-10.06 199.47-8.69L199.47-8.69L199.47-8.69Q199.06-7.31 198.75-6.28L198.75-6.28L198.75-6.28Q198.44-5.25 198.38-4.81L198.38-4.81L198.38-4.81Q198.25-3.88 198.50-3L198.50-3L198.50-3Q198.69-2.25 199.25-1.41L199.25-1.41L199.25-1.41Q199.81-0.56 200.94 0L200.94 0L200.94 0Q200.06-0.13 199.09-0.22L199.09-0.22L199.09-0.22Q198.13-0.31 197.25-0.38L197.25-0.38L197.25-0.38Q196.25-0.44 195.25-0.44L195.25-0.44L193-0.44L193-0.44Q191.94-0.44 190.56-0.41L190.56-0.41L190.56-0.41Q189.19-0.38 187.56-0.31L187.56-0.31L187.56-0.31Q188.44-0.63 189.06-1.16L189.06-1.16L189.06-1.16Q189.69-1.69 190.13-2.19L190.13-2.19L190.13-2.19Q190.63-2.75 191-3.38L191-3.38L191-3.38Q191.25-3.88 191.63-5.28L191.63-5.28L191.63-5.28Q192-6.69 192.31-8.53L192.31-8.53L192.31-8.53Q192.63-10.38 192.78-12.44L192.78-12.44L192.78-12.44Q192.94-14.50 192.84-16.41L192.84-16.41L192.84-16.41Q192.75-18.31 192.28-19.81L192.28-19.81L192.28-19.81Q191.81-21.31 190.88-22L190.88-22L190.88-22Q188.06-24.13 185.78-24.09L185.78-24.09L185.78-24.09Q183.50-24.06 181.44-22.25L181.44-22.25L181.44-22.25Q180.69-21.56 180-20.88L180-20.88L180-20.88Q179.38-20.25 178.63-19.41L178.63-19.41L178.63-19.41Q177.88-18.56 177.25-17.69L177.25-17.69L177.25-17.69Q177.25-16.75 177.31-15.63L177.31-15.63L177.31-15.63Q177.38-14.50 177.44-13.44L177.44-13.44L177.44-13.44Q177.50-12.25 177.63-11.06L177.63-11.06L177.63-11.06Q177.75-9.25 178-7.50L178-7.50L178-7.50Q178.19-6 178.50-4.22L178.50-4.22L178.50-4.22Q178.81-2.44 179.31-1L179.31-1L179.31-1Q178.50-1.13 177.63-1.09L177.63-1.09L177.63-1.09Q176.75-1.06 175.94-1.06L175.94-1.06L175.94-1.06Q175-1 174.13-1L174.13-1L174.13-1Q173.31-0.94 172.44-0.81L172.44-0.81L172.44-0.81Q171.69-0.69 170.81-0.59L170.81-0.59L170.81-0.59Q169.94-0.50 169.13-0.31L169.13-0.31L169.13-0.31Q169.88-1.75 170.38-3.16L170.38-3.16L170.38-3.16Q170.88-4.56 171.19-5.63L171.19-5.63L171.19-5.63Q171.56-6.88 171.81-8.06L171.81-8.06L171.81-8.06Q172-9 172.09-11.66L172.09-11.66L172.09-11.66Q172.19-14.31 172.25-17.78L172.25-17.78L172.25-17.78Q172.31-21.25 172.31-25.13L172.31-25.13L172.31-25.13Q172.31-29 172.25-32.50L172.25-32.50L172.25-32.50Q172.19-36 172.03-38.63L172.03-38.63L172.03-38.63Q171.88-41.25 171.69-42.25L171.69-42.25L171.69-42.25Q171.44-43.25 171-44.25L171-44.25L171-44.25Q170.63-45.13 170-45.97L170-45.97L170-45.97Q169.38-46.81 168.44-47.38ZM204.38-27.94L204.38-27.94L215.88-27.81L215.88-27.81Q214.88-24 214.41-21.31L214.41-21.31L214.41-21.31Q213.94-18.63 213.81-16.81L213.81-16.81L213.81-16.81Q213.56-14.75 213.69-13.31L213.69-13.31L213.69-13.31Q213.88-12 214.31-10.50L214.31-10.50L214.31-10.50Q214.69-9.25 215.44-7.63L215.44-7.63L215.44-7.63Q216.19-6 217.44-4.38L217.44-4.38L217.44-4.38Q216.69-4.63 215.81-4.75L215.81-4.75L215.81-4.75Q214.94-4.88 214.19-4.94L214.19-4.94L214.19-4.94Q213.31-5 212.44-4.94L212.44-4.94L212.44-4.94Q211.56-4.88 210.50-4.75L210.50-4.75L210.50-4.75Q209.63-4.63 208.38-4.44L208.38-4.44L208.38-4.44Q207.13-4.25 205.75-3.94L205.75-3.94L205.75-3.94Q206.69-6.75 207.22-8.81L207.22-8.81L207.22-8.81Q207.75-10.88 208-12.25L208-12.25L208-12.25Q208.25-13.88 208.31-14.88L208.31-14.88L208.31-14.88Q208.31-16.13 208.31-17.72L208.31-17.72L208.31-17.72Q208.31-19.31 208.31-20.81L208.31-20.81L208.31-20.81Q208.31-22.31 208.25-23.47L208.25-23.47L208.25-23.47Q208.19-24.63 208-24.94L208-24.94L207.38-25.56L207.38-25.56Q207-25.88 206.28-26.47L206.28-26.47L206.28-26.47Q205.56-27.06 204.38-27.94ZM208.81-37.56L208.81-37.56L208.81-37.56Q210.13-38.25 211.47-37.94L211.47-37.94L211.47-37.94Q212.81-37.63 213.56-36.75L213.56-36.75L213.56-36.75Q214.31-35.88 214.09-34.69L214.09-34.69L214.09-34.69Q213.88-33.50 212.06-32.38L212.06-32.38L212.06-32.38Q210.25-31.31 208.88-31.63L208.88-31.63L208.88-31.63Q207.50-31.94 206.94-32.94L206.94-32.94L206.94-32.94Q206.38-33.94 206.75-35.28L206.75-35.28L206.75-35.28Q207.13-36.63 208.81-37.56ZM221.63-6.88L221.63-6.88L221.63-6.88Q222.06-8.94 222.28-10.53L222.28-10.53L222.28-10.53Q222.50-12.13 222.63-13.19L222.63-13.19L222.63-13.19Q222.75-14.44 222.75-15.31L222.75-15.31L222.75-15.31Q222.69-16.38 222.66-17.84L222.66-17.84L222.66-17.84Q222.63-19.31 222.53-20.78L222.53-20.78L222.53-20.78Q222.44-22.25 222.31-23.41L222.31-23.41L222.31-23.41Q222.19-24.56 222-25.06L222-25.06L222-25.06Q221.75-25.56 221.31-26.13L221.31-26.13L221.31-26.13Q220.44-27.19 218.75-28.19L218.75-28.19L218.75-28.19Q220.19-28.50 221.22-28.72L221.22-28.72L221.22-28.72Q222.25-28.94 222.94-29.13L222.94-29.13L222.94-29.13Q223.69-29.38 224.25-29.56L224.25-29.56L224.25-29.56Q224.75-29.75 225.44-29.94L225.44-29.94L225.44-29.94Q226-30.06 226.81-30.25L226.81-30.25L226.81-30.25Q227.63-30.44 228.69-30.69L228.69-30.69L228.50-25L228.50-25Q230.50-27.38 232.56-28.56L232.56-28.56L232.56-28.56Q234.63-29.75 236.44-30.25L236.44-30.25L236.44-30.25Q238.50-30.88 240.50-30.88L240.50-30.88L240.50-30.88Q243-30.75 245.16-30.06L245.16-30.06L245.16-30.06Q247.31-29.38 248.91-28.47L248.91-28.47L248.91-28.47Q250.50-27.56 251.50-26.56L251.50-26.56L251.50-26.56Q252.50-25.56 252.69-24.81L252.69-24.81L252.69-24.81Q253.44-22.38 253.06-20.34L253.06-20.34L253.06-20.34Q252.69-18.31 252.09-16.41L252.09-16.41L252.09-16.41Q251.50-14.50 251.09-12.63L251.09-12.63L251.09-12.63Q250.69-10.75 251.38-8.56L251.38-8.56L251.38-8.56Q251.63-8 251.88-7.44L251.88-7.44L251.88-7.44Q252.13-6.94 252.50-6.44L252.50-6.44L252.50-6.44Q252.88-5.94 253.38-5.63L253.38-5.63L253.38-5.63Q252.69-5.69 252-5.72L252-5.72L252-5.72Q251.31-5.75 250.75-5.81L250.75-5.81L250.75-5.81Q250.06-5.88 249.50-5.94L249.50-5.94L249.50-5.94Q248.88-6 247.81-6L247.81-6L247.81-6Q246-6 242.19-5.81L242.19-5.81L242.19-5.81Q242.75-7.13 243.09-8.03L243.09-8.03L243.09-8.03Q243.44-8.94 243.69-9.50L243.69-9.50L243.69-9.50Q243.94-10.19 244.06-10.56L244.06-10.56L244.06-10.56Q244.81-12.38 244.97-14.69L244.97-14.69L244.97-14.69Q245.13-17 244.63-19.38L244.63-19.38L244.63-19.38Q244.44-20.19 244-21.31L244-21.31L244-21.31Q243.56-22.44 242.84-23.50L242.84-23.50L242.84-23.50Q242.13-24.56 241.16-25.31L241.16-25.31L241.16-25.31Q240.19-26.06 238.94-26.19L238.94-26.19L238.94-26.19Q237.69-26.31 236.16-25.56L236.16-25.56L236.16-25.56Q234.63-24.81 232.88-22.81L232.88-22.81L232.88-22.81Q231.56-21.13 230.81-18.69L230.81-18.69L230.81-18.69Q230.13-16.63 229.88-13.53L229.88-13.53L229.88-13.53Q229.63-10.44 230.63-6.31L230.63-6.31L230.63-6.31Q229.75-6.44 229-6.47L229-6.47L229-6.47Q228.25-6.50 227.75-6.56L227.75-6.56L227.75-6.56Q227.13-6.63 226.63-6.69L226.63-6.69L226.63-6.69Q226.06-6.69 225.38-6.75L225.38-6.75L225.38-6.75Q224.75-6.75 223.81-6.78L223.81-6.78L223.81-6.78Q222.88-6.81 221.63-6.88ZM273.44-10.06L273.44-10.06L273.44-10.06Q275.19-10.06 276.69-10.44L276.69-10.44L276.69-10.44Q277.94-10.75 279.09-11.47L279.09-11.47L279.09-11.47Q280.25-12.19 280.63-13.63L280.63-13.63L280.63-13.63Q281.88-13.38 282.75-13.22L282.75-13.22L282.75-13.22Q283.63-13.06 284.25-12.94L284.25-12.94L284.25-12.94Q284.94-12.75 285.44-12.69L285.44-12.69L285.44-12.69Q285.94-12.56 286.63-12.44L286.63-12.44L286.63-12.44Q287.25-12.31 288.16-12.16L288.16-12.16L288.16-12.16Q289.06-12 290.31-11.75L290.31-11.75L290.31-11.75Q289.38-11.88 288.41-11.56L288.41-11.56L288.41-11.56Q287.44-11.25 286.56-10.88L286.56-10.88L286.56-10.88Q285.56-10.44 284.69-9.81L284.69-9.81L284.69-9.81Q284.13-9.44 283.41-8.69L283.41-8.69L283.41-8.69Q282.69-7.94 281.38-7.25L281.38-7.25L281.38-7.25Q280.06-6.56 277.91-6.09L277.91-6.09L277.91-6.09Q275.75-5.63 272.38-5.75L272.38-5.75L272.38-5.75Q268.31-5.88 265.56-7.22L265.56-7.22L265.56-7.22Q262.81-8.56 261.13-10.53L261.13-10.53L261.13-10.53Q259.44-12.50 258.69-14.81L258.69-14.81L258.69-14.81Q257.94-17.13 257.88-19.13L257.88-19.13L257.88-19.13Q257.81-21.13 259.06-23.31L259.06-23.31L259.06-23.31Q260.31-25.50 262.59-27.31L262.59-27.31L262.59-27.31Q264.88-29.13 268.13-30.28L268.13-30.28L268.13-30.28Q271.38-31.44 275.25-31.44L275.25-31.44L275.25-31.44Q277.50-31.44 279.41-30.91L279.41-30.91L279.41-30.91Q281.31-30.38 282.91-29.50L282.91-29.50L282.91-29.50Q284.50-28.63 285.69-27.53L285.69-27.53L285.69-27.53Q286.88-26.44 287.69-25.31L287.69-25.31L287.69-25.31Q288.50-24.13 289.06-22.81L289.06-22.81L289.06-22.81Q289.56-21.69 289.88-20.25L289.88-20.25L289.88-20.25Q290.19-18.81 290.06-17.31L290.06-17.31L290.06-17.31Q285.31-17.19 282.41-17.13L282.41-17.13L282.41-17.13Q279.50-17.06 277.88-17.06L277.88-17.06L275.06-17.06L272.94-17.06L272.94-17.06Q271.81-17.06 270-17L270-17L270-17Q268.19-16.94 265.56-16.81L265.56-16.81L265.56-16.81Q265.88-14.31 267.16-12.97L267.16-12.97L267.16-12.97Q268.44-11.63 269.88-10.94L269.88-10.94L269.88-10.94Q271.50-10.19 273.44-10.06ZM267.81-21.31L267.81-21.31L267.81-21.31Q269.81-21.19 271.16-21.13L271.16-21.13L271.16-21.13Q272.50-21.06 273.38-21L273.38-21L273.38-21Q274.31-20.94 274.88-20.94L274.88-20.94L276.44-20.94L276.44-20.94Q278-20.94 282.25-21.13L282.25-21.13L282.25-21.13Q282.06-23.88 281.09-25.31L281.09-25.31L281.09-25.31Q280.13-26.75 279.06-27.44L279.06-27.44L279.06-27.44Q277.81-28.19 276.31-28.31L276.31-28.31L276.31-28.31Q272.25-28.25 270.28-26.63L270.28-26.63L270.28-26.63Q268.31-25 267.81-21.31Z" 
        fill="#ccc"
      ></path>
    </g>
  </g>
  <style>
    text {
      font-size: 64px;
      font-family: Arial Black;
      dominant-baseline: central;
      text-anchor: middle;
    }
  </style>
</svg>
