<svg 
  width="404.6462890625px" 
  height="129.4799591064453px" 
  xmlns="http://www.w3.org/2000/svg" 
  viewBox="47.676855468750006 10.260020446777347 404.6462890625 129.4799591064453" 
  style="background: rgba(0, 0, 0, 0);" 
  preserveAspectRatio="xMidYMid"
>
  <defs>
    <filter 
      id="editing-hole" 
      x="-100%" 
      y="-100%" 
      width="300%" 
      height="300%"
    >
      <feFlood 
        flood-color="#000" 
        result="black"
      ></feFlood>
      <feMorphology 
        operator="dilate" 
        radius="2" 
        in="SourceGraphic" 
        result="erode"
      ></feMorphology>
      <feGaussianBlur 
        in="erode" 
        stdDeviation="4" 
        result="blur"
      ></feGaussianBlur>
      <feOffset 
        in="blur" 
        dx="2" 
        dy="2" 
        result="offset"
      ></feOffset>
      <feComposite 
        operator="atop" 
        in="offset" 
        in2="black" 
        result="merge"
      ></feComposite>
      <feComposite 
        operator="in" 
        in="merge" 
        in2="SourceGraphic" 
        result="inner-shadow"
      ></feComposite>
    </filter>
  </defs>
  <g filter="url(#editing-hole)">
    <g transform="translate(104.30533027648926, 102.7750015258789)">
      <path 
        d="M41.09-37.12L41.09-37.12Q41.15-36.86 41.15-36.54L41.15-36.54L41.15-36.54Q41.15-36.29 40.99-36.13L40.99-36.13L40.99-36.13Q40.83-35.97 40.64-35.90L40.64-35.90L40.64-35.90Q40.45-35.84 40.38-35.78L40.38-35.78L40.38-35.78Q38.98-35.33 38.08-35.33L38.08-35.33L38.08-35.33Q37.44-35.33 36.61-35.65L36.61-35.65L36.61-35.65Q35.97-36.22 35.07-36.48L35.07-36.48L35.07-36.48Q34.18-36.74 31.36-36.93L31.36-36.93L31.36-36.93Q29.50-36.74 28.10-36.74L28.10-36.74L28.10-36.74Q27.65-34.37 26.62-32.51L26.62-32.51L26.62-32.51Q26.37-31.30 25.92-30.34L25.92-30.34L25.92-30.34Q25.47-29.06 25.54-28.86L25.54-28.86L25.54-28.86Q25.34-28.61 24.32-25.63L24.32-25.63L24.32-25.63Q23.30-22.66 22.40-19.84L22.40-19.84L22.40-19.84Q21.76-17.86 21.44-16.96L21.44-16.96L21.44-16.96Q21.12-16.32 20.64-14.94L20.64-14.94L20.64-14.94Q20.16-13.57 19.97-12.99L19.97-12.99L18.37-8.58L18.37-8.58Q17.86-7.62 17.12-5.54L17.12-5.54L17.12-5.54Q16.38-3.46 15.94-1.79L15.94-1.79L15.30 0.45L15.30 0.45Q14.98 1.60 14.75 2.18L14.75 2.18L14.75 2.18Q14.53 2.75 14.40 2.82L14.40 2.82L14.40 2.82Q14.27 2.88 13.76 2.82L13.76 2.82L13.76 2.82Q13.25 2.82 12.64 2.02L12.64 2.02L12.64 2.02Q12.03 1.22 12.03 0.45L12.03 0.45L12.03 0.45Q12.03-0.96 13.02-4.29L13.02-4.29L13.02-4.29Q14.02-7.62 14.91-9.60L14.91-9.60L14.91-9.60Q15.17-10.75 15.39-11.46L15.39-11.46L15.39-11.46Q15.62-12.16 15.68-12.48L15.68-12.48L15.68-12.48Q15.87-12.74 16.29-13.86L16.29-13.86L16.29-13.86Q16.70-14.98 16.96-15.94L16.96-15.94L16.96-15.94Q17.15-17.09 20.93-28.80L20.93-28.80L21.38-30.14L21.38-30.14Q21.95-31.10 22.46-32.58L22.46-32.58L22.46-32.58Q22.98-32.90 22.98-33.92L22.98-33.92L22.98-33.92Q22.98-34.11 23.20-34.43L23.20-34.43L23.20-34.43Q23.42-34.75 23.42-34.88L23.42-34.88L23.42-34.88Q23.55-35.01 23.71-35.49L23.71-35.49L23.71-35.49Q23.87-35.97 24.13-36.22L24.13-36.22L24.13-36.29L23.10-36.22L19.97-35.90L18.56-35.78L18.56-35.78Q14.85-35.46 14.27-35.33L14.27-35.33L14.27-35.33Q12.35-35.20 11.55-35.52L11.55-35.52L11.55-35.52Q10.75-35.84 11.01-36.80L11.01-36.80L11.01-36.80Q11.20-37.57 11.81-37.95L11.81-37.95L11.81-37.95Q12.42-38.34 13.70-38.53L13.70-38.53L13.70-38.53Q14.27-38.66 15.94-38.91L15.94-38.91L17.66-39.23L19.84-39.49L19.84-39.49Q23.55-40.06 27.71-40.26L27.71-40.26L27.71-40.26Q29.44-40.32 30.62-40.42L30.62-40.42L30.62-40.42Q31.81-40.51 32.19-40.58L32.19-40.58L32.19-40.58Q33.09-40.51 35.10-40.26L35.10-40.26L35.10-40.26Q37.12-40 38.02-39.68L38.02-39.68L38.02-39.68Q39.42-39.36 40.10-38.78L40.10-38.78L40.10-38.78Q40.77-38.21 41.09-37.12L41.09-37.12ZM41.22-2.24L41.22-2.24Q39.62-0.83 37.38-0.83L37.38-0.83L37.38-0.83Q35.78-0.83 34.34-1.60L34.34-1.60L34.34-1.60Q32.90-2.37 31.94-3.71L31.94-3.71L31.94-3.71Q31.10-4.74 30.72-6.02L30.72-6.02L30.72-6.02Q30.34-7.30 30.34-9.15L30.34-9.15L30.34-9.15Q30.34-9.79 30.46-11.71L30.46-11.71L30.46-11.71Q30.66-14.08 32.03-16.64L32.03-16.64L32.03-16.64Q33.41-19.20 35.46-21.22L35.46-21.22L35.46-21.22Q37.50-23.23 39.49-24L39.49-24L39.49-24Q40.51-24.64 41.34-24.64L41.34-24.64L41.34-24.64Q41.79-24.64 42.24-24.58L42.24-24.58L42.24-24.58Q42.69-24.51 43.20-24.45L43.20-24.45L43.20-24.45Q44.61-24.26 45.34-23.90L45.34-23.90L45.34-23.90Q46.08-23.55 46.59-22.85L46.59-22.85L46.59-22.85Q48.19-21.25 48.19-19.14L48.19-19.14L48.19-19.14Q47.94-17.60 46.21-15.62L46.21-15.62L46.21-15.62Q44.48-13.63 42.05-12.42L42.05-12.42L42.05-12.42Q40.90-12.03 39.42-12.03L39.42-12.03L39.42-12.03Q37.44-12.03 36.22-12.86L36.22-12.86L36.22-12.86Q35.65-13.06 35.33-13.06L35.33-13.06L35.33-13.06Q34.75-13.06 34.46-12.29L34.46-12.29L34.46-12.29Q34.18-11.52 33.92-9.47L33.92-9.47L33.92-9.47Q33.86-9.02 33.86-8.19L33.86-8.19L33.86-8.19Q33.86-4.93 36.03-4.61L36.03-4.61L36.03-4.61Q37.50-4.29 38.14-4.29L38.14-4.29L38.14-4.29Q38.91-4.29 39.87-4.80L39.87-4.80L41.09-5.50L41.09-5.50Q41.47-5.70 41.79-6.02L41.79-6.02L41.79-6.02Q42.11-6.34 42.37-6.59L42.37-6.59L42.37-6.59Q42.50-6.72 42.75-7.01L42.75-7.01L42.75-7.01Q43.01-7.30 43.23-7.39L43.23-7.39L43.23-7.39Q43.46-7.49 43.65-7.49L43.65-7.49L43.65-7.49Q43.90-7.49 44.22-7.20L44.22-7.20L44.22-7.20Q44.54-6.91 44.74-6.78L44.74-6.78L44.74-6.78Q45.31-6.78 44.99-5.98L44.99-5.98L44.99-5.98Q44.67-5.18 43.62-4.13L43.62-4.13L43.62-4.13Q42.56-3.07 41.22-2.24L41.22-2.24ZM41.15-15.81L41.15-15.81Q42.24-16.26 43.36-17.41L43.36-17.41L43.36-17.41Q44.48-18.56 44.48-19.33L44.48-19.33L44.48-19.33Q44.48-20.10 43.90-20.61L43.90-20.61L43.90-20.61Q43.33-21.12 42.30-21.12L42.30-21.12L42.30-21.12Q41.54-21.12 41.15-20.99L41.15-20.99L41.15-20.99Q40.26-20.74 39.04-19.62L39.04-19.62L39.04-19.62Q37.82-18.50 36.93-17.34L36.93-17.34L36.93-17.34Q36.03-16.19 36.22-16L36.22-16L36.22-16Q36.54-15.42 38.72-15.42L38.72-15.42L38.72-15.42Q40.19-15.42 41.15-15.81L41.15-15.81ZM57.73-0.70L57.73-0.70Q56.83-0.58 56.38-0.58L56.38-0.58L56.38-0.58Q54.02-0.58 52.48-2.05L52.48-2.05L52.48-2.05Q50.94-3.52 50.94-6.14L50.94-6.14L50.94-6.14Q50.69-8.96 52.19-13.12L52.19-13.12L52.19-13.12Q53.70-17.28 56-20.10L56-20.10L56-20.10Q57.60-21.95 58.75-23.10L58.75-23.10L58.75-23.10Q59.90-24.26 60.86-24.64L60.86-24.64L60.86-24.64Q62.21-25.22 63.87-25.22L63.87-25.22L63.87-25.22Q65.02-24.96 66.14-24.26L66.14-24.26L66.14-24.26Q67.26-23.55 67.26-22.85L67.26-22.85L67.58-22.53L67.58-22.53Q67.97-22.53 68.29-21.60L68.29-21.60L68.29-21.60Q68.61-20.67 68.61-19.58L68.61-19.58L68.61-19.58Q68.61-18.69 68.29-18.05L68.29-18.05L68.29-18.05Q68.03-16.83 67.42-15.94L67.42-15.94L67.42-15.94Q66.82-15.04 66.24-15.04L66.24-15.04L66.24-15.04Q65.54-15.04 65.54-14.66L65.54-14.66L65.54-14.66Q65.54-14.40 65.28-14.40L65.28-14.40L65.28-14.40Q64.96-14.40 64.51-14.78L64.51-14.78L64.51-14.78Q64.06-15.17 63.87-15.68L63.87-15.68L63.87-15.68Q63.87-15.87 64.13-16.77L64.13-16.77L64.13-16.77Q64.38-17.66 64.64-18.75L64.64-18.75L64.64-18.75Q64.83-19.52 64.83-20.10L64.83-20.10L64.83-20.10Q64.83-21.38 63.87-21.38L63.87-21.38L63.87-21.38Q63.36-21.38 62.85-21.12L62.85-21.12L62.85-21.12Q60.29-19.71 58.30-16.64L58.30-16.64L58.30-16.64Q56.32-13.57 54.98-8.19L54.98-8.19L54.98-8.19Q54.66-6.78 54.66-5.95L54.66-5.95L54.66-5.95Q54.66-5.31 54.75-4.93L54.75-4.93L54.75-4.93Q54.85-4.54 54.98-4.48L54.98-4.48L54.98-4.48Q55.30-4.35 56.32-4.35L56.32-4.35L56.32-4.35Q58.69-4.35 59.65-4.93L59.65-4.93L59.65-4.93Q61.70-6.02 64.19-7.87L64.19-7.87L64.19-7.87Q64.45-8.06 64.96-8.54L64.96-8.54L64.96-8.54Q65.47-9.02 65.92-9.22L65.92-9.22L65.92-9.22Q66.37-9.92 66.75-10.08L66.75-10.08L66.75-10.08Q67.14-10.24 67.97-10.24L67.97-10.24L67.97-10.24Q68.80-9.98 69.31-9.57L69.31-9.57L69.31-9.57Q69.82-9.15 69.31-8.90L69.31-8.90L69.31-8.90Q69.12-8.90 69.06-8.77L69.06-8.77L69.06-8.77Q68.99-8.64 68.99-8.58L68.99-8.58L68.99-8.58Q69.12-8.26 67.97-6.98L67.97-6.98L67.97-6.98Q66.82-5.70 65.41-4.58L65.41-4.58L65.41-4.58Q64-3.46 63.49-3.46L63.49-3.46L63.49-3.46Q63.23-3.46 63.04-3.39L63.04-3.39L63.04-3.39Q62.85-3.33 62.85-3.07L62.85-3.07L62.85-3.07Q62.85-2.82 60.90-1.89L60.90-1.89L60.90-1.89Q58.94-0.96 57.73-0.70L57.73-0.70ZM75.78-3.46L75.39-3.46L75.39-3.46Q74.43-3.46 73.92-3.90L73.92-3.90L73.92-3.90Q73.41-4.35 73.25-4.61L73.25-4.61L73.25-4.61Q73.09-4.86 73.09-5.25L73.09-5.25L73.09-5.25Q73.09-5.50 73.54-7.62L73.54-7.62L74.11-9.73L74.11-9.73Q74.75-12.35 75.26-14.08L75.26-14.08L75.26-14.08Q75.52-15.68 76.26-17.47L76.26-17.47L76.26-17.47Q76.99-19.26 77.12-19.65L77.12-19.65L77.12-19.65Q77.63-21.50 79.10-25.41L79.10-25.41L81.02-30.59L81.02-30.59Q83.26-36.67 83.71-38.02L83.71-38.02L84.74-40.83L84.74-40.83Q84.74-41.86 85.76-41.86L85.76-41.86L85.76-41.86Q86.66-41.86 87.26-40.86L87.26-40.86L87.26-40.86Q87.87-39.87 87.87-38.59L87.87-38.59L87.87-38.59Q87.87-37.63 87.49-36.74L87.49-36.74L87.49-36.74Q86.59-34.82 85.54-31.90L85.54-31.90L85.54-31.90Q84.48-28.99 84.16-28.10L84.16-28.10L84.16-28.10Q81.98-21.95 81.02-19.90L81.02-19.90L81.02-19.90Q81.02-19.65 80.83-19.01L80.83-19.01L80.83-19.01Q80.64-18.37 80.38-17.86L80.38-17.86L79.68-16.45L79.68-16.45Q79.68-16.26 78.98-13.76L78.98-13.76L78.98-13.76Q78.08-11.01 77.89-9.73L77.89-9.73L77.89-9.73Q78.21-10.30 79.23-11.49L79.23-11.49L79.23-11.49Q80.26-12.67 81.15-13.44L81.15-13.44L81.15-13.44Q84.67-16.45 85.50-17.02L85.50-17.02L85.50-17.02Q86.27-17.47 86.78-17.86L86.78-17.86L86.78-17.86Q87.30-18.24 87.49-18.37L87.49-18.37L87.49-18.37Q87.49-18.69 88.19-18.69L88.19-18.69L88.19-18.69Q88.45-18.69 88.48-18.75L88.48-18.75L88.48-18.75Q88.51-18.82 88.51-19.07L88.51-19.07L88.51-19.07Q88.51-19.52 89.98-19.87L89.98-19.87L89.98-19.87Q91.46-20.22 92.61-20.22L92.61-20.22L92.61-20.22Q93.38-20.22 93.82-19.90L93.82-19.90L93.82-19.90Q94.27-19.58 94.98-18.50L94.98-18.50L94.98-18.50Q96.06-16.96 96.06-15.17L96.06-15.17L96.06-15.17Q96.06-14.14 95.68-13.06L95.68-13.06L95.68-13.06Q95.68-12.54 95.52-11.49L95.52-11.49L95.52-11.49Q95.36-10.43 95.36-9.66L95.36-9.66L94.98-7.62L96-7.62L96-7.62Q96.45-7.62 96.86-7.49L96.86-7.49L96.86-7.49Q97.28-7.36 97.41-7.30L97.41-7.30L97.41-7.30Q97.98-6.59 98.43-6.59L98.43-6.59L98.43-6.59Q99.01-6.59 99.01-6.14L99.01-6.14L99.01-6.14Q99.01-5.89 98.75-5.50L98.75-5.50L98.75-5.50Q98.50-5.12 98.05-4.86L98.05-4.86L98.05-4.86Q96.38-3.84 95.23-3.84L95.23-3.84L95.23-3.84Q94.14-3.84 92.99-4.86L92.99-4.86L92.99-4.86Q91.58-6.27 91.58-8.26L91.58-8.26L91.58-8.26Q91.58-9.28 91.97-10.69L91.97-10.69L92.16-12.74L92.16-12.74Q92.29-14.27 92.29-14.66L92.29-14.66L92.29-14.66Q92.29-16.13 91.58-16.13L91.58-16.13L91.58-16.13Q90.69-16.13 88.16-14.56L88.16-14.56L88.16-14.56Q85.63-12.99 82.94-10.66L82.94-10.66L82.94-10.66Q80.26-8.32 78.66-5.95L78.66-5.95L78.66-5.95Q77.70-4.74 77.02-4.13L77.02-4.13L77.02-4.13Q76.35-3.52 75.78-3.46L75.78-3.46ZM125.82-2.94L125.82-2.94Q124.54-2.94 123.71-3.49L123.71-3.49L123.71-3.49Q122.88-4.03 122.30-5.31L122.30-5.31L122.30-5.31Q121.73-7.36 121.73-9.41L121.73-9.41L121.73-9.41Q121.73-10.37 121.92-10.75L121.92-10.75L121.92-10.75Q122.18-11.01 122.14-11.87L122.14-11.87L122.14-11.87Q122.11-12.74 122.11-13.12L122.11-13.12L122.11-13.12Q122.05-14.59 121.22-14.59L121.22-14.59L121.22-14.59Q120.64-14.59 119.94-14.14L119.94-14.14L119.94-14.14Q116.35-11.90 113.92-10.30L113.92-10.30L113.92-10.30Q111.49-8.70 109.25-6.72L109.25-6.72L109.25-6.72Q108.35-5.70 107.90-4.93L107.90-4.93L107.90-4.93Q107.46-4.16 107.26-3.87L107.26-3.87L107.26-3.87Q107.07-3.58 106.75-3.58L106.75-3.58L106.75-3.58Q106.37-3.46 106.24-3.46L106.24-3.46L106.24-3.46Q105.92-3.46 105.47-3.81L105.47-3.81L105.47-3.81Q105.02-4.16 104.90-4.29L104.90-4.29L104.90-4.29Q104.64-4.54 104.06-5.15L104.06-5.15L104.06-5.15Q103.49-5.76 103.42-6.02L103.42-6.02L103.42-6.02Q103.42-6.53 103.84-8.38L103.84-8.38L103.84-8.38Q104.26-10.24 104.51-10.75L104.51-10.75L104.51-10.75Q104.70-10.75 105.09-11.55L105.09-11.55L105.09-11.55Q105.47-12.35 105.79-12.80L105.79-12.80L105.79-12.80Q105.98-13.76 107.46-17.22L107.46-17.22L107.46-17.22Q108.35-18.75 108.70-19.78L108.70-19.78L108.70-19.78Q109.06-20.80 109.18-22.34L109.18-22.34L109.18-22.46L109.18-22.46Q109.18-22.72 109.38-22.88L109.38-22.88L109.38-22.88Q109.57-23.04 109.76-23.04L109.76-23.04L109.76-23.04Q110.21-23.36 110.59-23.36L110.59-23.36L110.59-23.36Q111.42-23.36 112.26-22.34L112.26-22.34L112.26-22.34Q113.22-21.12 113.22-19.78L113.22-19.78L113.22-19.78Q113.22-18.11 111.10-14.53L111.10-14.53L111.10-14.53Q110.91-14.08 110.56-13.25L110.56-13.25L110.56-13.25Q110.21-12.42 110.21-12.10L110.21-12.10L113.79-14.53L113.79-14.53Q114.30-15.10 116.54-16.58L116.54-16.58L116.54-16.58Q118.78-18.05 119.68-18.24L119.68-18.24L119.68-18.24Q121.22-18.94 121.60-18.94L121.60-18.94L121.60-18.94Q122.37-18.94 123.68-17.79L123.68-17.79L123.68-17.79Q124.99-16.64 125.25-15.87L125.25-15.87L125.25-15.87Q125.25-15.17 125.38-14.85L125.38-14.85L125.38-14.85Q125.70-13.57 125.70-11.84L125.70-11.84L125.70-11.84Q125.70-10.69 125.54-9.76L125.54-9.76L125.54-9.76Q125.38-8.83 125.12-8.70L125.12-8.70L125.12-8.70Q125.12-8.64 125.18-8.51L125.18-8.51L125.18-8.51Q125.25-8.38 125.44-8.38L125.44-8.38L125.44-8.06L125.44-8.06Q124.93-8.06 125.31-6.98L125.31-6.98L125.31-6.98Q125.70-5.89 126.34-5.31L126.34-5.31L126.34-5.31Q126.98-4.67 126.98-4.03L126.98-4.03L126.98-4.03Q126.98-3.26 125.82-2.94L125.82-2.94ZM136.38-0.96L136.38-0.96Q135.62-0.96 135.17-1.22L135.17-1.22L135.17-1.22Q134.72-1.47 133.89-2.18L133.89-2.18L133.89-2.18Q131.78-4.42 131.78-6.27L131.78-6.27L131.78-6.27Q131.78-6.72 131.84-6.91L131.84-6.91L131.84-6.91Q132.03-7.36 132-7.81L132-7.81L132-7.81Q131.97-8.26 131.97-8.38L131.97-8.38L131.97-8.38Q131.71-8.64 131.71-8.74L131.71-8.74L131.71-8.74Q131.71-8.83 131.84-8.93L131.84-8.93L131.84-8.93Q131.97-9.02 132.03-9.15L132.03-9.15L132.03-9.15Q132.42-9.15 132.29-9.86L132.29-9.86L132.29-9.86Q132.16-10.37 132.80-12.13L132.80-12.13L132.80-12.13Q133.44-13.89 134.40-15.36L134.40-15.36L134.40-15.36Q135.10-16.51 136.48-18.24L136.48-18.24L136.48-18.24Q137.86-19.97 138.94-20.86L138.94-20.86L138.94-20.86Q140.48-22.21 141.70-22.85L141.70-22.85L141.70-22.85Q142.91-23.49 144.38-23.81L144.38-23.81L144.38-23.81Q145.66-24.13 146.11-24.13L146.11-24.13L146.11-24.13Q146.56-24.13 146.91-23.90L146.91-23.90L146.91-23.90Q147.26-23.68 147.84-23.10L147.84-23.10L147.84-23.10Q149.57-22.34 150.24-21.15L150.24-21.15L150.24-21.15Q150.91-19.97 150.91-17.47L150.91-17.47L150.91-17.47Q150.91-13.31 147.52-8.45L147.52-8.45L147.52-8.45Q146.05-6.34 144.77-5.22L144.77-5.22L144.77-5.22Q143.49-4.10 141.38-2.82L141.38-2.82L141.38-2.82Q140.03-1.86 138.91-1.44L138.91-1.44L138.91-1.44Q137.79-1.02 136.38-0.96L136.38-0.96ZM142.53-7.74L142.53-7.74Q144.06-9.47 144.99-11.01L144.99-11.01L144.99-11.01Q145.92-12.54 146.75-14.91L146.75-14.91L146.75-14.91Q147.07-16 147.07-17.54L147.07-17.54L147.07-17.54Q147.07-19.46 146.56-19.71L146.56-19.71L146.56-19.71Q145.92-20.03 145.28-20.03L145.28-20.03L145.28-20.03Q143.87-20.03 142.34-18.75L142.34-18.75L142.34-18.75Q140.48-17.15 139.01-14.82L139.01-14.82L139.01-14.82Q137.54-12.48 136-9.02L136-9.02L136-9.02Q135.36-7.68 135.36-6.40L135.36-6.40L135.36-6.40Q135.36-5.44 135.84-4.86L135.84-4.86L135.84-4.86Q136.32-4.29 137.15-4.29L137.15-4.29L137.15-4.29Q139.26-4.29 142.53-7.74L142.53-7.74ZM156.48 0L156.48 0Q156.29 0.06 155.84 0.06L155.84 0.06L155.84 0.06Q154.82 0.06 154.24-0.96L154.24-0.96L154.24-0.96Q153.66-1.98 153.66-3.78L153.66-3.78L153.66-3.78Q153.66-5.25 154.05-7.17L154.05-7.17L154.05-7.17Q154.75-9.02 154.75-9.86L154.75-9.86L154.75-9.86Q154.94-11.07 156.06-14.24L156.06-14.24L156.06-14.24Q157.18-17.41 157.50-18.05L157.50-18.05L157.50-18.05Q157.76-18.05 157.95-18.46L157.95-18.46L157.95-18.46Q158.14-18.88 158.14-19.39L158.14-19.39L158.14-19.39Q158.14-19.97 158.37-20.58L158.37-20.58L158.37-20.58Q158.59-21.18 158.85-21.44L158.85-21.44L158.85-21.44Q158.85-21.63 159.01-22.14L159.01-22.14L159.01-22.14Q159.17-22.66 159.17-22.85L159.17-22.85L159.17-22.85Q159.17-22.98 159.33-23.33L159.33-23.33L159.33-23.33Q159.49-23.68 159.49-23.87L159.49-23.87L159.49-23.87Q160.51-25.86 163.07-32.80L163.07-32.80L163.07-32.80Q165.63-39.74 165.63-40.51L165.63-40.51L165.63-40.51Q165.63-41.54 166.66-41.54L166.66-41.54L166.66-41.54Q166.98-41.86 167.68-41.86L167.68-41.86L168.70-40.83L168.70-40.83Q169.15-40.38 169.28-39.90L169.28-39.90L169.28-39.90Q169.41-39.42 169.41-38.46L169.41-38.46L169.41-38.46Q169.41-37.50 169.15-36.80L169.15-36.80L169.15-36.80Q168.90-36.10 167.87-33.92L167.87-33.92L167.87-33.92Q167.68-33.47 167.36-32.86L167.36-32.86L167.36-32.86Q167.04-32.26 166.66-31.36L166.66-31.36L166.66-31.36Q166.53-31.04 165.63-29.06L165.63-29.06L165.63-29.06Q164.99-27.78 164.99-27.58L164.99-27.58L164.99-27.58Q164.99-27.39 164.74-26.78L164.74-26.78L164.74-26.78Q164.48-26.18 164.29-25.54L164.29-25.54L164.29-25.54Q163.78-24.51 162.66-21.92L162.66-21.92L162.66-21.92Q161.54-19.33 161.54-19.07L161.54-19.07L161.54-19.07Q161.54-18.37 161.22-18.05L161.22-18.05L161.22-18.05Q161.02-18.05 160.96-17.76L160.96-17.76L160.96-17.76Q160.90-17.47 160.90-17.34L160.90-17.34L160.90-17.34Q160.90-16.70 159.87-13.95L159.87-13.95L159.30-12.10L159.30-12.10Q158.08-7.94 157.60-6.02L157.60-6.02L157.60-6.02Q157.12-4.10 157.12-2.75L157.12-2.75L157.12-2.75Q157.12-1.15 157.02-0.70L157.02-0.70L157.02-0.70Q156.93-0.26 156.48 0L156.48 0ZM169.79-0.96L169.79-0.96Q169.02-0.96 168.58-1.22L168.58-1.22L168.58-1.22Q168.13-1.47 167.30-2.18L167.30-2.18L167.30-2.18Q165.18-4.42 165.18-6.27L165.18-6.27L165.18-6.27Q165.18-6.72 165.25-6.91L165.25-6.91L165.25-6.91Q165.44-7.36 165.41-7.81L165.41-7.81L165.41-7.81Q165.38-8.26 165.38-8.38L165.38-8.38L165.38-8.38Q165.12-8.64 165.12-8.74L165.12-8.74L165.12-8.74Q165.12-8.83 165.25-8.93L165.25-8.93L165.25-8.93Q165.38-9.02 165.44-9.15L165.44-9.15L165.44-9.15Q165.82-9.15 165.70-9.86L165.70-9.86L165.70-9.86Q165.57-10.37 166.21-12.13L166.21-12.13L166.21-12.13Q166.85-13.89 167.81-15.36L167.81-15.36L167.81-15.36Q168.51-16.51 169.89-18.24L169.89-18.24L169.89-18.24Q171.26-19.97 172.35-20.86L172.35-20.86L172.35-20.86Q173.89-22.21 175.10-22.85L175.10-22.85L175.10-22.85Q176.32-23.49 177.79-23.81L177.79-23.81L177.79-23.81Q179.07-24.13 179.52-24.13L179.52-24.13L179.52-24.13Q179.97-24.13 180.32-23.90L180.32-23.90L180.32-23.90Q180.67-23.68 181.25-23.10L181.25-23.10L181.25-23.10Q182.98-22.34 183.65-21.15L183.65-21.15L183.65-21.15Q184.32-19.97 184.32-17.47L184.32-17.47L184.32-17.47Q184.32-13.31 180.93-8.45L180.93-8.45L180.93-8.45Q179.46-6.34 178.18-5.22L178.18-5.22L178.18-5.22Q176.90-4.10 174.78-2.82L174.78-2.82L174.78-2.82Q173.44-1.86 172.32-1.44L172.32-1.44L172.32-1.44Q171.20-1.02 169.79-0.96L169.79-0.96ZM175.94-7.74L175.94-7.74Q177.47-9.47 178.40-11.01L178.40-11.01L178.40-11.01Q179.33-12.54 180.16-14.91L180.16-14.91L180.16-14.91Q180.48-16 180.48-17.54L180.48-17.54L180.48-17.54Q180.48-19.46 179.97-19.71L179.97-19.71L179.97-19.71Q179.33-20.03 178.69-20.03L178.69-20.03L178.69-20.03Q177.28-20.03 175.74-18.75L175.74-18.75L175.74-18.75Q173.89-17.15 172.42-14.82L172.42-14.82L172.42-14.82Q170.94-12.48 169.41-9.02L169.41-9.02L169.41-9.02Q168.77-7.68 168.77-6.40L168.77-6.40L168.77-6.40Q168.77-5.44 169.25-4.86L169.25-4.86L169.25-4.86Q169.73-4.29 170.56-4.29L170.56-4.29L170.56-4.29Q172.67-4.29 175.94-7.74L175.94-7.74ZM206.27-19.33L206.27-19.33Q206.66-18.56 206.66-17.86L206.66-17.86L206.66-17.86Q206.66-16.90 205.89-15.94L205.89-15.94L205.89-15.94Q205.70-15.62 205.18-14.94L205.18-14.94L205.18-14.94Q204.67-14.27 204.29-13.57L204.29-13.57L204.29-13.57Q203.90-12.86 203.71-11.97L203.71-11.97L203.71-11.97Q203.46-10.50 202.18-5.70L202.18-5.70L201.47-3.20L200.45 0.77L200.45 0.77Q197.57 10.69 194.69 12.22L194.69 12.22L194.69 12.22Q193.86 12.54 193.09 12.54L193.09 12.54L193.09 12.54Q191.68 12.54 190.18 11.62L190.18 11.62L190.18 11.62Q188.67 10.69 187.58 9.09L187.58 9.09L187.58 9.09Q186.94 8.19 186.34 6.24L186.34 6.24L186.34 6.24Q185.73 4.29 186.11 4.03L186.11 4.03L186.11 4.03Q186.24 3.90 186.56 3.90L186.56 3.90L186.56 3.90Q187.01 3.90 187.52 4.19L187.52 4.19L187.52 4.19Q188.03 4.48 188.16 4.86L188.16 4.86L188.16 4.86Q188.42 5.57 189.25 6.72L189.25 6.72L189.25 6.72Q190.08 7.87 190.46 7.94L190.46 7.94L190.46 7.94Q191.49 8.45 192.19 8.45L192.19 8.45L192.19 8.45Q192.77 8.45 193.28 8.06L193.28 8.06L193.28 8.06Q194.30 7.23 195.04 5.92L195.04 5.92L195.04 5.92Q195.78 4.61 196.67 1.73L196.67 1.73L197.18-0.13L197.18-0.13Q198.72-5.76 199.42-7.42L199.42-7.42L199.42-7.42Q199.74-8.45 200.06-9.02L200.06-9.02L198.91-8L198.91-8Q198.14-7.30 197.31-6.66L197.31-6.66L197.31-6.66Q196.48-6.02 195.58-5.63L195.58-5.63L195.58-5.63Q195.14-5.06 193.34-5.06L193.34-5.06L193.34-5.06Q192.06-5.06 190.78-5.44L190.78-5.44L190.78-5.44Q189.44-6.14 189.12-6.53L189.12-6.53L189.12-6.53Q188.80-6.91 188.22-8.32L188.22-8.32L188.22-8.32Q187.97-8.83 187.97-9.92L187.97-9.92L187.97-9.92Q187.97-12.67 189.25-15.81L189.25-15.81L189.25-15.81Q190.46-18.30 193.09-21.12L193.09-21.12L193.09-21.12Q195.71-23.94 197.63-24.51L197.63-24.51L197.63-24.51Q198.40-24.90 199.04-24.90L199.04-24.90L199.04-24.90Q199.74-24.90 200.51-24.64L200.51-24.64L200.51-24.64Q201.54-24.51 202.11-24.19L202.11-24.19L202.11-24.19Q202.69-23.87 204.03-22.72L204.03-22.72L204.03-22.72Q205.57-21.18 206.27-19.33L206.27-19.33ZM199.23-12.99L199.23-12.99Q200.32-14.46 200.77-16.16L200.77-16.16L200.77-16.16Q201.22-17.86 201.09-19.52L201.09-19.52L201.09-19.52Q201.02-20.42 200.83-20.77L200.83-20.77L200.83-20.77Q200.64-21.12 200.13-21.12L200.13-21.12L200.13-21.12Q198.91-21.12 197.31-19.97L197.31-19.97L197.31-19.97Q195.71-18.82 194.24-16.96L194.24-16.96L194.24-16.96Q193.28-15.68 192.64-13.89L192.64-13.89L192.64-13.89Q191.87-11.71 191.87-9.86L191.87-9.86L191.87-9.86Q191.87-8.45 192.38-8.26L192.38-8.26L192.38-8.26Q194.37-8.32 196.00-9.41L196.00-9.41L196.00-9.41Q197.63-10.50 199.23-12.99L199.23-12.99ZM230.02-23.62L230.02-23.62Q231.04-22.59 231.04-21.50L231.04-21.50L231.04-21.50Q231.04-20.35 229.50-17.47L229.50-17.47L229.50-17.47Q228.99-16 228.38-14.72L228.38-14.72L228.38-14.72Q227.78-13.44 227.46-13.06L227.46-13.06L225.98-9.66L225.98-9.66Q225.02-7.55 223.62-4.74L223.62-4.74L223.62-4.74Q221.89-1.15 221.18 0.58L221.18 0.58L220.35 1.92L220.35 1.92Q217.15 7.04 215.42 9.09L215.42 9.09L215.42 9.09Q211.90 12.22 209.98 12.74L209.98 12.74L209.98 12.74Q209.15 12.99 208.00 12.99L208.00 12.99L208.00 12.99Q205.89 12.99 204.00 12.06L204.00 12.06L204.00 12.06Q202.11 11.14 201.86 9.92L201.86 9.92L201.86 9.92Q201.79 9.47 202.18 8.96L202.18 8.96L202.18 8.96Q202.56 8.45 203.01 8.45L203.01 8.45L203.01 8.45Q203.33 8.45 203.52 8.70L203.52 8.70L203.52 8.70Q204.03 9.09 205.02 9.44L205.02 9.44L205.02 9.44Q206.02 9.79 207.17 9.79L207.17 9.79L207.17 9.79Q207.62 9.79 208.38 9.66L208.38 9.66L208.38 9.66Q209.66 9.41 211.07 8.13L211.07 8.13L211.07 8.13Q212.48 6.85 213.63 5.31L213.63 5.31L213.63 5.31Q215.81 2.11 218.30-2.69L218.30-2.69L218.30-2.69Q217.41-2.94 216.58-3.94L216.58-3.94L216.58-3.94Q215.74-4.93 215.26-6.02L215.26-6.02L215.26-6.02Q214.78-7.10 214.91-7.62L214.91-7.62L214.91-8.32L214.91-8.32Q214.34-8.32 213.98-10.50L213.98-10.50L213.98-10.50Q213.63-12.67 213.63-15.55L213.63-15.55L213.63-15.55Q213.63-16.64 213.76-18.30L213.76-18.30L213.76-18.30Q214.02-19.33 214.05-20.83L214.05-20.83L214.05-20.83Q214.08-22.34 214.08-22.78L214.08-22.78L214.08-23.04L214.08-23.04Q214.08-23.81 214.24-24.13L214.24-24.13L214.24-24.13Q214.40-24.45 214.78-24.70L214.78-24.70L214.78-24.70Q215.30-24.96 215.81-24.96L215.81-24.96L215.81-24.96Q217.60-24.96 217.60-20.22L217.60-20.22L217.60-20.22Q217.60-19.52 217.47-17.47L217.47-17.47L217.47-17.47Q217.41-16.58 217.41-14.78L217.41-14.78L217.41-14.78Q217.41-11.46 217.98-8.90L217.98-8.90L217.98-8.90Q218.56-6.34 219.71-5.38L219.71-5.38L220.10-6.27L220.10-6.27Q220.80-8.13 221.18-8.64L221.18-8.64L221.18-8.64Q222.08-10.50 222.21-11.01L222.21-11.01L222.21-11.01Q222.34-11.46 222.91-12.48L222.91-12.48L223.74-14.21L223.74-14.21Q223.87-14.59 224.58-16.67L224.58-16.67L224.58-16.67Q225.28-18.75 225.98-20.03L225.98-20.03L225.98-20.03Q226.24-20.54 226.75-21.54L226.75-21.54L226.75-21.54Q227.26-22.53 227.58-22.98L227.58-22.98L227.58-22.98Q227.90-23.42 228.29-23.55L228.29-23.55L228.29-23.55Q228.80-24 229.12-24L229.12-24L229.12-24Q229.38-24 230.02-23.62L230.02-23.62ZM240.06-28.03L240.06-28.03Q239.62-28.48 239.30-29.57L239.30-29.57L239.30-29.57Q238.98-30.66 239.30-30.66L239.30-30.66L239.30-30.66Q239.81-30.72 240.48-31.78L240.48-31.78L240.48-31.78Q241.15-32.83 241.09-33.54L241.09-33.54L241.09-33.54Q241.09-33.79 241.28-34.02L241.28-34.02L241.28-34.02Q241.47-34.24 241.73-34.30L241.73-34.30L241.73-34.30Q242.24-34.62 242.62-34.62L242.62-34.62L242.62-34.62Q243.71-34.62 244.61-33.09L244.61-33.09L244.61-33.09Q244.99-32.26 244.99-31.62L244.99-31.62L244.99-31.62Q244.99-31.04 244.67-30.43L244.67-30.43L244.67-30.43Q244.35-29.82 243.52-28.86L243.52-28.86L243.52-28.86Q242.43-27.39 241.47-27.39L241.47-27.39L241.47-27.39Q240.83-27.39 240.06-28.03L240.06-28.03ZM233.86-2.05L233.86-2.05Q232.96-2.94 232.96-4.61L232.96-4.61L232.96-4.61Q232.96-5.50 233.28-6.14L233.28-6.14L233.28-6.14Q233.28-6.46 233.41-6.91L233.41-6.91L233.41-6.91Q233.54-7.36 233.54-7.49L233.54-7.49L233.54-7.49Q233.47-7.87 234.05-9.60L234.05-9.60L234.05-9.60Q235.20-12.16 237.12-18.62L237.12-18.62L237.12-18.62Q237.12-18.94 237.38-19.17L237.38-19.17L237.38-19.17Q237.63-19.39 238.14-19.46L238.14-19.46L238.14-19.46Q238.66-19.58 238.85-19.58L238.85-19.58L238.85-19.58Q239.23-19.58 239.52-19.30L239.52-19.30L239.52-19.30Q239.81-19.01 240.32-18.24L240.32-18.24L240.32-18.24Q240.70-17.86 240.70-17.09L240.70-17.09L240.70-17.09Q240.70-15.87 239.87-14.14L239.87-14.14L239.87-14.14Q239.04-12.29 238.78-10.94L238.78-10.94L238.78-10.94Q238.02-9.22 237.57-7.74L237.57-7.74L237.57-7.74Q237.44-7.36 237.18-6.21L237.18-6.21L237.18-6.21Q236.93-5.06 236.48-4.35L236.48-4.35L236.48-4.35Q236.10-2.56 235.78-1.86L235.78-1.86L235.78-1.86Q235.46-1.15 235.07-1.15L235.07-1.15L235.07-1.15Q234.62-1.15 233.86-2.05L233.86-2.05ZM247.23 6.78L247.23 6.78Q246.85 7.04 246.40 6.69L246.40 6.69L246.40 6.69Q245.95 6.34 244.99 5.25L244.99 5.25L244.99 5.25Q244.61 4.86 244.48 4.51L244.48 4.51L244.48 4.51Q244.35 4.16 244.35 3.58L244.35 3.58L244.48 1.98L244.48 1.98Q244.80 1.02 244.80-0.26L244.80-0.26L244.80-0.26Q244.80-0.77 245.25-3.49L245.25-3.49L245.25-3.49Q245.70-6.21 245.95-7.42L245.95-7.42L246.14-8.19L246.14-8.19Q246.66-10.30 246.91-12.10L246.91-12.10L246.91-12.10Q247.42-13.70 247.78-15.26L247.78-15.26L247.78-15.26Q248.13-16.83 248.13-17.41L248.13-17.41L248.13-17.41Q248.13-18.56 249.02-19.07L249.02-19.07L249.02-19.07Q249.09-19.58 249.98-21.18L249.98-21.18L249.98-21.18Q251.52-25.54 252.26-27.42L252.26-27.42L252.26-27.42Q252.99-29.31 253.82-30.72L253.82-30.72L253.82-30.72Q254.98-33.92 255.68-34.75L255.68-34.75L255.68-34.75Q256.13-35.84 258.11-37.95L258.11-37.95L258.11-37.95Q260.10-40.06 261.63-41.34L261.63-41.34L261.63-41.34Q263.04-42.11 263.90-42.34L263.90-42.34L263.90-42.34Q264.77-42.56 266.05-42.56L266.05-42.56L266.05-42.56Q267.14-42.56 267.55-42.34L267.55-42.34L267.55-42.34Q267.97-42.11 268.93-41.22L268.93-41.22L268.93-41.22Q269.76-40.26 269.92-39.94L269.92-39.94L269.92-39.94Q270.08-39.62 270.08-38.72L270.08-38.72L270.08-38.72Q269.82-37.38 268.80-35.26L268.80-35.26L268.80-35.26Q267.78-33.15 267.26-33.09L267.26-33.09L267.26-33.09Q267.07-33.02 266.75-33.02L266.75-33.02L266.75-33.02Q265.79-33.02 265.79-34.62L265.79-34.62L265.79-34.62Q265.79-35.01 265.60-35.39L265.60-35.39L265.60-35.39Q265.41-35.78 265.34-35.90L265.34-35.90L265.34-35.90Q265.34-36.86 265.79-37.50L265.79-37.50L265.79-37.50Q265.98-37.89 265.98-38.21L265.98-38.21L265.98-38.21Q265.98-38.53 265.76-38.62L265.76-38.62L265.76-38.62Q265.54-38.72 265.09-38.59L265.09-38.59L265.09-38.59Q264.51-38.27 262.24-36.32L262.24-36.32L262.24-36.32Q259.97-34.37 259.97-33.98L259.97-33.98L259.97-33.98Q259.90-33.86 259.62-33.31L259.62-33.31L259.62-33.31Q259.33-32.77 258.75-32.06L258.75-32.06L258.75-32.06Q257.60-30.46 257.60-30.08L257.60-30.08L257.60-30.08Q257.60-29.25 257.22-29.25L257.22-29.25L257.22-29.25Q257.15-29.12 256.93-28.51L256.93-28.51L256.93-28.51Q256.70-27.90 256.32-27.20L256.32-27.20L256.32-27.20Q256.06-26.62 255.68-25.92L255.68-25.92L255.68-25.92Q255.30-25.22 255.04-24.96L255.04-24.96L255.10-24.96L255.10-24.96Q254.91-24.45 254.40-23.07L254.40-23.07L254.40-23.07Q253.89-21.70 253.89-21.50L253.89-21.50L253.89-21.50Q253.89-21.25 254.78-21.25L254.78-21.25L254.78-21.25Q256.77-21.25 259.33-21.95L259.33-21.95L259.33-21.95Q260.16-22.21 260.54-22.21L260.54-22.21L260.54-22.21Q260.99-22.21 261.82-21.95L261.82-21.95L261.82-21.95Q262.53-21.50 262.98-20.48L262.98-20.48L262.98-20.48Q263.42-19.46 263.17-19.07L263.17-19.07L263.17-19.07Q263.10-18.82 261.79-18.37L261.79-18.37L261.79-18.37Q260.48-17.92 259.07-17.66L259.07-17.66L259.07-17.66Q257.09-17.22 255.81-17.02L255.81-17.02L255.81-17.02Q255.49-16.96 253.79-16.64L253.79-16.64L253.79-16.64Q252.10-16.32 252.10-16.06L252.10-16.06L252.10-16.06Q251.84-16.06 251.65-15.81L251.65-15.81L251.65-15.81Q251.46-15.55 251.46-15.30L251.46-15.30L251.46-15.30Q251.46-14.40 251.20-13.95L251.20-13.95L251.20-13.95Q250.88-12.99 250.08-9.76L250.08-9.76L250.08-9.76Q249.28-6.53 249.28-5.76L249.28-5.76L249.28-5.76Q248.77-5.12 248.77-3.46L248.77-3.46L248.77-3.46Q248.38-2.75 248.38-1.86L248.38-1.86L248.38-1.86Q248.38-1.47 248.32-1.22L248.32-1.22L248.32-1.22Q248.32-0.90 248.19 0.32L248.19 0.32L248.19 0.32Q248.06 1.54 248.06 2.56L248.06 2.56L247.87 4.42L247.87 4.42Q247.81 5.18 247.68 5.82L247.68 5.82L247.68 5.82Q247.55 6.46 247.23 6.78L247.23 6.78ZM283.71-23.62L283.71-23.62Q284.74-22.59 284.74-21.50L284.74-21.50L284.74-21.50Q284.74-20.35 283.20-17.47L283.20-17.47L283.20-17.47Q282.69-16 282.08-14.72L282.08-14.72L282.08-14.72Q281.47-13.44 281.15-13.06L281.15-13.06L279.68-9.66L279.68-9.66Q278.72-7.55 277.31-4.74L277.31-4.74L277.31-4.74Q275.58-1.15 274.88 0.58L274.88 0.58L274.05 1.92L274.05 1.92Q270.85 7.04 269.12 9.09L269.12 9.09L269.12 9.09Q265.60 12.22 263.68 12.74L263.68 12.74L263.68 12.74Q262.85 12.99 261.70 12.99L261.70 12.99L261.70 12.99Q259.58 12.99 257.70 12.06L257.70 12.06L257.70 12.06Q255.81 11.14 255.55 9.92L255.55 9.92L255.55 9.92Q255.49 9.47 255.87 8.96L255.87 8.96L255.87 8.96Q256.26 8.45 256.70 8.45L256.70 8.45L256.70 8.45Q257.02 8.45 257.22 8.70L257.22 8.70L257.22 8.70Q257.73 9.09 258.72 9.44L258.72 9.44L258.72 9.44Q259.71 9.79 260.86 9.79L260.86 9.79L260.86 9.79Q261.31 9.79 262.08 9.66L262.08 9.66L262.08 9.66Q263.36 9.41 264.77 8.13L264.77 8.13L264.77 8.13Q266.18 6.85 267.33 5.31L267.33 5.31L267.33 5.31Q269.50 2.11 272.00-2.69L272.00-2.69L272.00-2.69Q271.10-2.94 270.27-3.94L270.27-3.94L270.27-3.94Q269.44-4.93 268.96-6.02L268.96-6.02L268.96-6.02Q268.48-7.10 268.61-7.62L268.61-7.62L268.61-8.32L268.61-8.32Q268.03-8.32 267.68-10.50L267.68-10.50L267.68-10.50Q267.33-12.67 267.33-15.55L267.33-15.55L267.33-15.55Q267.33-16.64 267.46-18.30L267.46-18.30L267.46-18.30Q267.71-19.33 267.74-20.83L267.74-20.83L267.74-20.83Q267.78-22.34 267.78-22.78L267.78-22.78L267.78-23.04L267.78-23.04Q267.78-23.81 267.94-24.13L267.94-24.13L267.94-24.13Q268.10-24.45 268.48-24.70L268.48-24.70L268.48-24.70Q268.99-24.96 269.50-24.96L269.50-24.96L269.50-24.96Q271.30-24.96 271.30-20.22L271.30-20.22L271.30-20.22Q271.30-19.52 271.17-17.47L271.17-17.47L271.17-17.47Q271.10-16.58 271.10-14.78L271.10-14.78L271.10-14.78Q271.10-11.46 271.68-8.90L271.68-8.90L271.68-8.90Q272.26-6.34 273.41-5.38L273.41-5.38L273.79-6.27L273.79-6.27Q274.50-8.13 274.88-8.64L274.88-8.64L274.88-8.64Q275.78-10.50 275.90-11.01L275.90-11.01L275.90-11.01Q276.03-11.46 276.61-12.48L276.61-12.48L277.44-14.21L277.44-14.21Q277.57-14.59 278.27-16.67L278.27-16.67L278.27-16.67Q278.98-18.75 279.68-20.03L279.68-20.03L279.68-20.03Q279.94-20.54 280.45-21.54L280.45-21.54L280.45-21.54Q280.96-22.53 281.28-22.98L281.28-22.98L281.28-22.98Q281.60-23.42 281.98-23.55L281.98-23.55L281.98-23.55Q282.50-24 282.82-24L282.82-24L282.82-24Q283.07-24 283.71-23.62L283.71-23.62Z" 
        fill="#ccc"
      >
      </path>
    </g>
  </g>
  <style>
    text {
      font-size: 64px;
      font-family: Arial Black;
      dominant-baseline: central;
      text-anchor: middle;
    }
  </style>
</svg>
