<svg 
  width="405.21999511718747px" 
  height="161.1425018310547px" 
  xmlns="http://www.w3.org/2000/svg" 
  viewBox="47.39000244140627 -5.571250915527344 405.21999511718747 161.1425018310547" 
  style="background: rgba(0, 0, 0, 0);" 
  preserveAspectRatio="xMidYMid"
>
  <defs>
    <filter 
      id="editing-hole" 
      x="-100%" 
      y="-100%" 
      width="300%" 
      height="300%"
    >
      <feFlood 
        flood-color="#000" 
        result="black"
      ></feFlood>
      <feMorphology 
        operator="dilate" 
        radius="2" 
        in="SourceGraphic" 
        result="erode"
      ></feMorphology>
      <feGaussianBlur 
        in="erode" 
        stdDeviation="4" 
        result="blur"
      ></feGaussianBlur>
      <feOffset 
        in="blur" 
        dx="2" 
        dy="2" 
        result="offset"
      ></feOffset>
      <feComposite 
        operator="atop" 
        in="offset" 
        in2="black" 
        result="merge"
      ></feComposite>
      <feComposite 
        operator="in" 
        in="merge" 
        in2="SourceGraphic" 
        result="inner-shadow"
      ></feComposite>
    </filter>
  </defs>
  <g filter="url(#editing-hole)">
    <g transform="translate(108.94499936699867, 100.69500160217285)">
      <path 
        d="M25.98-32.70L25.98-32.70L25.98-32.70Q23.68-23.10 21.18-16.38L21.18-16.38L21.18-16.38Q18.69-9.66 14.21-0.90L14.21-0.90L14.21-0.90Q13.76-0.70 12.96-0.64L12.96-0.64L12.96-0.64Q12.16-0.58 10.37-0.58L10.37-0.58L10.37-0.58Q8.58-10.11 6.08-18.62L6.08-18.62L6.08-18.62Q3.58-27.14 0.32-34.88L0.32-34.88L0.32-34.88Q1.41-35.52 2.75-35.87L2.75-35.87L2.75-35.87Q4.10-36.22 5.57-36.35L5.57-36.35L5.57-36.35Q7.87-29.95 9.66-23.10L9.66-23.10L9.66-23.10Q11.46-16.26 13.31-6.78L13.31-6.78L13.31-6.78Q16.45-14.02 18.56-21.06L18.56-21.06L18.56-21.06Q20.67-28.10 21.50-34.18L21.50-34.18L21.50-34.18Q22.59-34.05 23.78-33.66L23.78-33.66L23.78-33.66Q24.96-33.28 25.98-32.70ZM35.58-20.03L35.58-20.03L35.58-20.03Q37.44-19.39 39.58-19.04L39.58-19.04L39.58-19.04Q41.73-18.69 44.10-18.69L44.10-18.69L44.10-18.69Q44.74-18.69 45.60-18.75L45.60-18.75L45.60-18.75Q46.46-18.82 46.85-18.94L46.85-18.94L46.85-18.94Q47.36-20.80 47.58-22.37L47.58-22.37L47.58-22.37Q47.81-23.94 47.81-25.22L47.81-25.22L47.81-25.22Q47.81-28.03 46.88-29.25L46.88-29.25L46.88-29.25Q45.95-30.46 43.90-30.46L43.90-30.46L43.90-30.46Q41.22-30.46 38.98-27.58L38.98-27.58L38.98-27.58Q36.74-24.70 35.58-20.03ZM49.86-10.88L49.86-10.88L49.86-10.88Q50.88-10.69 51.94-10.11L51.94-10.11L51.94-10.11Q52.99-9.54 53.76-8.77L53.76-8.77L53.76-8.77Q52.54-5.12 48.80-2.21L48.80-2.21L48.80-2.21Q45.06 0.70 41.02 0.70L41.02 0.70L41.02 0.70Q35.84 0.70 32.86-3.33L32.86-3.33L32.86-3.33Q29.89-7.36 29.89-14.14L29.89-14.14L29.89-14.14Q29.89-21.76 34.14-27.84L34.14-27.84L34.14-27.84Q38.40-33.92 44.29-33.92L44.29-33.92L44.29-33.92Q48.06-33.92 50.27-31.52L50.27-31.52L50.27-31.52Q52.48-29.12 52.48-25.02L52.48-25.02L52.48-25.02Q52.48-22.85 52.06-20.64L52.06-20.64L52.06-20.64Q51.65-18.43 50.94-16.45L50.94-16.45L50.94-16.45Q49.66-16 47.84-15.78L47.84-15.78L47.84-15.78Q46.02-15.55 43.33-15.55L43.33-15.55L43.33-15.55Q41.28-15.55 39.14-15.90L39.14-15.90L39.14-15.90Q36.99-16.26 35.01-16.96L35.01-16.96L35.01-16.96Q34.88-16.19 34.85-15.46L34.85-15.46L34.85-15.46Q34.82-14.72 34.82-14.02L34.82-14.02L34.82-14.02Q34.82-8.96 36.58-5.86L36.58-5.86L36.58-5.86Q38.34-2.75 41.28-2.75L41.28-2.75L41.28-2.75Q43.84-2.75 46.40-5.15L46.40-5.15L46.40-5.15Q48.96-7.55 49.86-10.88ZM65.28 0.13L65.28 0.13L65.28 0.13Q64.77 0.32 64.06 0.45L64.06 0.45L64.06 0.45Q63.36 0.58 62.66 0.58L62.66 0.58L62.66 0.58Q62.14 0.64 61.73 0.58L61.73 0.58L61.73 0.58Q61.31 0.51 60.93 0.38L60.93 0.38L60.93 0.38Q59.33-7.74 58.78-16.64L58.78-16.64L58.78-16.64Q58.24-25.54 58.69-34.56L58.69-34.56L58.69-34.56Q59.14-34.75 59.78-34.85L59.78-34.85L59.78-34.85Q60.42-34.94 61.70-34.94L61.70-34.94L61.70-34.94Q62.34-34.94 62.94-34.85L62.94-34.85L62.94-34.85Q63.55-34.75 64.19-34.56L64.19-34.56L64.19-34.56Q63.81-31.81 63.62-29.89L63.62-29.89L63.62-29.89Q63.42-27.97 63.36-26.24L63.36-26.24L63.36-26.24Q64.83-31.23 67.26-34.11L67.26-34.11L67.26-34.11Q69.70-36.99 72.32-36.99L72.32-36.99L72.32-36.99Q74.88-36.99 76.10-35.10L76.10-35.10L76.10-35.10Q77.31-33.22 77.31-29.31L77.31-29.31L77.31-29.31Q77.31-28.54 77.25-27.65L77.25-27.65L77.25-27.65Q77.18-26.75 77.12-25.73L77.12-25.73L77.12-25.73Q76.35-25.54 75.30-25.44L75.30-25.44L75.30-25.44Q74.24-25.34 73.02-25.41L73.02-25.41L73.02-25.41Q73.15-26.37 73.22-27.23L73.22-27.23L73.22-27.23Q73.28-28.10 73.28-28.93L73.28-28.93L73.28-28.93Q73.28-30.98 72.77-31.97L72.77-31.97L72.77-31.97Q72.26-32.96 71.23-32.96L71.23-32.96L71.23-32.96Q69.06-32.96 66.88-28.38L66.88-28.38L66.88-28.38Q64.70-23.81 63.42-16.51L63.42-16.51L63.42-16.51Q63.62-12.86 64.06-8.74L64.06-8.74L64.06-8.74Q64.51-4.61 65.28 0.13ZM105.02-32.70L105.02-32.70L105.02-32.70Q102.72-23.10 100.22-16.38L100.22-16.38L100.22-16.38Q97.73-9.66 93.25-0.90L93.25-0.90L93.25-0.90Q92.80-0.70 92-0.64L92-0.64L92-0.64Q91.20-0.58 89.41-0.58L89.41-0.58L89.41-0.58Q87.62-10.11 85.12-18.62L85.12-18.62L85.12-18.62Q82.62-27.14 79.36-34.88L79.36-34.88L79.36-34.88Q80.45-35.52 81.79-35.87L81.79-35.87L81.79-35.87Q83.14-36.22 84.61-36.35L84.61-36.35L84.61-36.35Q86.91-29.95 88.70-23.10L88.70-23.10L88.70-23.10Q90.50-16.26 92.35-6.78L92.35-6.78L92.35-6.78Q95.49-14.02 97.60-21.06L97.60-21.06L97.60-21.06Q99.71-28.10 100.54-34.18L100.54-34.18L100.54-34.18Q101.63-34.05 102.82-33.66L102.82-33.66L102.82-33.66Q104-33.28 105.02-32.70ZM114.62-20.03L114.62-20.03L114.62-20.03Q116.48-19.39 118.62-19.04L118.62-19.04L118.62-19.04Q120.77-18.69 123.14-18.69L123.14-18.69L123.14-18.69Q123.78-18.69 124.64-18.75L124.64-18.75L124.64-18.75Q125.50-18.82 125.89-18.94L125.89-18.94L125.89-18.94Q126.40-20.80 126.62-22.37L126.62-22.37L126.62-22.37Q126.85-23.94 126.85-25.22L126.85-25.22L126.85-25.22Q126.85-28.03 125.92-29.25L125.92-29.25L125.92-29.25Q124.99-30.46 122.94-30.46L122.94-30.46L122.94-30.46Q120.26-30.46 118.02-27.58L118.02-27.58L118.02-27.58Q115.78-24.70 114.62-20.03ZM128.90-10.88L128.90-10.88L128.90-10.88Q129.92-10.69 130.98-10.11L130.98-10.11L130.98-10.11Q132.03-9.54 132.80-8.77L132.80-8.77L132.80-8.77Q131.58-5.12 127.84-2.21L127.84-2.21L127.84-2.21Q124.10 0.70 120.06 0.70L120.06 0.70L120.06 0.70Q114.88 0.70 111.90-3.33L111.90-3.33L111.90-3.33Q108.93-7.36 108.93-14.14L108.93-14.14L108.93-14.14Q108.93-21.76 113.18-27.84L113.18-27.84L113.18-27.84Q117.44-33.92 123.33-33.92L123.33-33.92L123.33-33.92Q127.10-33.92 129.31-31.52L129.31-31.52L129.31-31.52Q131.52-29.12 131.52-25.02L131.52-25.02L131.52-25.02Q131.52-22.85 131.10-20.64L131.10-20.64L131.10-20.64Q130.69-18.43 129.98-16.45L129.98-16.45L129.98-16.45Q128.70-16 126.88-15.78L126.88-15.78L126.88-15.78Q125.06-15.55 122.37-15.55L122.37-15.55L122.37-15.55Q120.32-15.55 118.18-15.90L118.18-15.90L118.18-15.90Q116.03-16.26 114.05-16.96L114.05-16.96L114.05-16.96Q113.92-16.19 113.89-15.46L113.89-15.46L113.89-15.46Q113.86-14.72 113.86-14.02L113.86-14.02L113.86-14.02Q113.86-8.96 115.62-5.86L115.62-5.86L115.62-5.86Q117.38-2.75 120.32-2.75L120.32-2.75L120.32-2.75Q122.88-2.75 125.44-5.15L125.44-5.15L125.44-5.15Q128-7.55 128.90-10.88ZM150.27-30.08L150.27-30.08L150.27-30.08Q150.34-27.52 150.50-25.22L150.50-25.22L150.50-25.22Q150.66-22.91 150.91-20.16L150.91-20.16L150.91-20.16Q150.40-20.03 149.63-19.90L149.63-19.90L149.63-19.90Q148.86-19.78 148.29-19.78L148.29-19.78L148.29-19.78Q148.03-19.78 147.78-19.81L147.78-19.81L147.78-19.81Q147.52-19.84 146.82-19.97L146.82-19.97L146.82-19.97Q146.75-21.70 146.85-23.84L146.85-23.84L146.85-23.84Q146.94-25.98 147.26-30.02L147.26-30.02L147.26-30.02Q144.96-28.61 143.04-27.33L143.04-27.33L143.04-27.33Q141.12-26.05 139.01-24.58L139.01-24.58L139.01-24.58Q137.92-25.98 137.73-26.27L137.73-26.27L137.73-26.27Q137.54-26.56 137.41-26.82L137.41-26.82L137.41-26.82Q137.28-27.07 137.12-27.46L137.12-27.46L137.12-27.46Q136.96-27.84 136.83-28.10L136.83-28.10L136.83-28.10Q138.69-29.25 140.70-30.30L140.70-30.30L140.70-30.30Q142.72-31.36 145.79-32.83L145.79-32.83L145.79-32.83Q143.62-34.05 141.60-35.04L141.60-35.04L141.60-35.04Q139.58-36.03 137.02-37.18L137.02-37.18L137.02-37.18Q137.22-37.89 137.50-38.56L137.50-38.56L137.50-38.56Q137.79-39.23 138.05-39.68L138.05-39.68L138.05-39.68Q138.24-40 138.50-40.35L138.50-40.35L138.50-40.35Q138.75-40.70 138.88-40.83L138.88-40.83L138.88-40.83Q140.74-39.87 142.72-38.62L142.72-38.62L142.72-38.62Q144.70-37.38 147.46-35.46L147.46-35.46L147.46-35.46Q147.33-38.98 147.20-41.09L147.20-41.09L147.20-41.09Q147.07-43.20 146.88-45.25L146.88-45.25L146.88-45.25Q147.39-45.38 148.13-45.47L148.13-45.47L148.13-45.47Q148.86-45.57 149.50-45.57L149.50-45.57L149.50-45.57Q149.89-45.57 150.37-45.50L150.37-45.50L150.37-45.50Q150.85-45.44 150.98-45.44L150.98-45.44L150.98-45.44Q151.04-43.26 150.94-40.99L150.94-40.99L150.94-40.99Q150.85-38.72 150.53-35.26L150.53-35.26L150.53-35.26Q152.70-36.54 154.62-37.82L154.62-37.82L154.62-37.82Q156.54-39.10 158.78-40.77L158.78-40.77L158.78-40.77Q159.42-40.06 159.81-39.52L159.81-39.52L159.81-39.52Q160.19-38.98 160.38-38.59L160.38-38.59L160.38-38.59Q160.58-38.27 160.70-37.89L160.70-37.89L160.70-37.89Q160.83-37.50 160.96-37.25L160.96-37.25L160.96-37.25Q159.23-36.22 157.22-35.17L157.22-35.17L157.22-35.17Q155.20-34.11 151.94-32.64L151.94-32.64L151.94-32.64Q154.30-31.36 156.35-30.34L156.35-30.34L156.35-30.34Q158.40-29.31 160.77-28.22L160.77-28.22L160.77-28.22Q160.58-27.52 160.29-26.85L160.29-26.85L160.29-26.85Q160-26.18 159.74-25.73L159.74-25.73L159.74-25.73Q159.55-25.34 159.26-24.96L159.26-24.96L159.26-24.96Q158.98-24.58 158.91-24.51L158.91-24.51L158.91-24.51Q157.06-25.54 155.10-26.78L155.10-26.78L155.10-26.78Q153.15-28.03 150.27-30.08ZM187.78-23.55L187.78-23.55L187.78-23.55Q186.75-23.04 185.54-22.82L185.54-22.82L185.54-22.82Q184.32-22.59 182.91-22.59L182.91-22.59L182.91-22.59Q182.91-26.88 181.73-29.06L181.73-29.06L181.73-29.06Q180.54-31.23 178.24-31.23L178.24-31.23L178.24-31.23Q174.72-31.23 172.16-25.70L172.16-25.70L172.16-25.70Q169.60-20.16 169.60-13.06L169.60-13.06L169.60-13.06Q169.60-7.87 171.36-4.86L171.36-4.86L171.36-4.86Q173.12-1.86 176.32-1.86L176.32-1.86L176.32-1.86Q178.75-1.86 180.83-3.87L180.83-3.87L180.83-3.87Q182.91-5.89 184.51-9.66L184.51-9.66L184.51-9.66Q185.47-9.34 186.24-8.83L186.24-8.83L186.24-8.83Q187.01-8.32 187.58-7.62L187.58-7.62L187.58-7.62Q186.56-3.78 183.14-1.09L183.14-1.09L183.14-1.09Q179.71 1.60 175.49 1.60L175.49 1.60L175.49 1.60Q170.30 1.60 167.52-2.14L167.52-2.14L167.52-2.14Q164.74-5.89 164.74-12.67L164.74-12.67L164.74-12.67Q164.74-22.08 168.58-28.35L168.58-28.35L168.58-28.35Q172.42-34.62 178.30-34.62L178.30-34.62L178.30-34.62Q182.78-34.62 185.28-31.68L185.28-31.68L185.28-31.68Q187.78-28.74 187.78-23.55ZM192.06-15.49L192.06-15.49L192.06-15.49Q192.06-23.81 195.87-29.06L195.87-29.06L195.87-29.06Q199.68-34.30 205.70-34.30L205.70-34.30L205.70-34.30Q210.62-34.30 213.50-30.56L213.50-30.56L213.50-30.56Q216.38-26.82 216.38-20.48L216.38-20.48L216.38-20.48Q216.38-11.20 212.77-5.28L212.77-5.28L212.77-5.28Q209.15 0.64 203.20 0.64L203.20 0.64L203.20 0.64Q198.08 0.64 195.07-3.81L195.07-3.81L195.07-3.81Q192.06-8.26 192.06-15.49ZM211.26-17.79L211.26-17.79L211.26-17.79Q211.26-24.32 209.60-27.52L209.60-27.52L209.60-27.52Q207.94-30.72 204.54-30.72L204.54-30.72L204.54-30.72Q201.47-30.72 199.20-26.50L199.20-26.50L199.20-26.50Q196.93-22.27 196.93-16.13L196.93-16.13L196.93-16.13Q196.93-10.50 198.85-6.69L198.85-6.69L198.85-6.69Q200.77-2.88 204.03-2.88L204.03-2.88L204.03-2.88Q206.91-2.88 209.09-7.26L209.09-7.26L209.09-7.26Q211.26-11.65 211.26-17.79ZM227.65 3.39L227.65 3.39L227.65 3.39Q227.01 3.58 225.63 3.74L225.63 3.74L225.63 3.74Q224.26 3.90 223.30 3.90L223.30 3.90L223.30 3.90Q222.27-10.37 222.11-22.30L222.11-22.30L222.11-22.30Q221.95-34.24 222.66-46.72L222.66-46.72L222.66-46.72Q223.30-47.04 224.10-47.26L224.10-47.26L224.10-47.26Q224.90-47.49 225.66-47.49L225.66-47.49L225.66-47.49Q226.30-47.49 226.91-47.39L226.91-47.39L226.91-47.39Q227.52-47.30 228.22-47.10L228.22-47.10L228.22-47.10Q227.20-37.18 227.04-23.65L227.04-23.65L227.04-23.65Q226.88-10.11 227.65 3.39ZM233.47-15.49L233.47-15.49L233.47-15.49Q233.47-23.81 237.28-29.06L237.28-29.06L237.28-29.06Q241.09-34.30 247.10-34.30L247.10-34.30L247.10-34.30Q252.03-34.30 254.91-30.56L254.91-30.56L254.91-30.56Q257.79-26.82 257.79-20.48L257.79-20.48L257.79-20.48Q257.79-11.20 254.18-5.28L254.18-5.28L254.18-5.28Q250.56 0.64 244.61 0.64L244.61 0.64L244.61 0.64Q239.49 0.64 236.48-3.81L236.48-3.81L236.48-3.81Q233.47-8.26 233.47-15.49ZM252.67-17.79L252.67-17.79L252.67-17.79Q252.67-24.32 251.01-27.52L251.01-27.52L251.01-27.52Q249.34-30.72 245.95-30.72L245.95-30.72L245.95-30.72Q242.88-30.72 240.61-26.50L240.61-26.50L240.61-26.50Q238.34-22.27 238.34-16.13L238.34-16.13L238.34-16.13Q238.34-10.50 240.26-6.69L240.26-6.69L240.26-6.69Q242.18-2.88 245.44-2.88L245.44-2.88L245.44-2.88Q248.32-2.88 250.50-7.26L250.50-7.26L250.50-7.26Q252.67-11.65 252.67-17.79ZM269.76 0.13L269.76 0.13L269.76 0.13Q269.25 0.32 268.54 0.45L268.54 0.45L268.54 0.45Q267.84 0.58 267.14 0.58L267.14 0.58L267.14 0.58Q266.62 0.64 266.21 0.58L266.21 0.58L266.21 0.58Q265.79 0.51 265.41 0.38L265.41 0.38L265.41 0.38Q263.81-7.74 263.26-16.64L263.26-16.64L263.26-16.64Q262.72-25.54 263.17-34.56L263.17-34.56L263.17-34.56Q263.62-34.75 264.26-34.85L264.26-34.85L264.26-34.85Q264.90-34.94 266.18-34.94L266.18-34.94L266.18-34.94Q266.82-34.94 267.42-34.85L267.42-34.85L267.42-34.85Q268.03-34.75 268.67-34.56L268.67-34.56L268.67-34.56Q268.29-31.81 268.10-29.89L268.10-29.89L268.10-29.89Q267.90-27.97 267.84-26.24L267.84-26.24L267.84-26.24Q269.31-31.23 271.74-34.11L271.74-34.11L271.74-34.11Q274.18-36.99 276.80-36.99L276.80-36.99L276.80-36.99Q279.36-36.99 280.58-35.10L280.58-35.10L280.58-35.10Q281.79-33.22 281.79-29.31L281.79-29.31L281.79-29.31Q281.79-28.54 281.73-27.65L281.73-27.65L281.73-27.65Q281.66-26.75 281.60-25.73L281.60-25.73L281.60-25.73Q280.83-25.54 279.78-25.44L279.78-25.44L279.78-25.44Q278.72-25.34 277.50-25.41L277.50-25.41L277.50-25.41Q277.63-26.37 277.70-27.23L277.70-27.23L277.70-27.23Q277.76-28.10 277.76-28.93L277.76-28.93L277.76-28.93Q277.76-30.98 277.25-31.97L277.25-31.97L277.25-31.97Q276.74-32.96 275.71-32.96L275.71-32.96L275.71-32.96Q273.54-32.96 271.36-28.38L271.36-28.38L271.36-28.38Q269.18-23.81 267.90-16.51L267.90-16.51L267.90-16.51Q268.10-12.86 268.54-8.74L268.54-8.74L268.54-8.74Q268.99-4.61 269.76 0.13Z" 
        fill="#ccc"
      ></path>
    </g>
  </g>
  <style>
    text {
      font-size: 64px;
      font-family: Arial Black;
      dominant-baseline: central;
      text-anchor: middle;
    }
  </style>
</svg>
